<svg xmlns="http://www.w3.org/2000/svg" width="88.697" height="108.612" viewBox="0 0 88.697 108.612">
  <path id="Path_3367" data-name="Path 3367" d="M132.647,84.2c-2.789-4.2-7.031-6.5-11.024-8-2-.752-3.945-1.315-5.667-1.786s-3.226-.861-4.229-1.235a23.25,23.25,0,0,1-4.9-2.411,5.79,5.79,0,0,1-1.44-1.317,1.514,1.514,0,0,1-.373-.924V61.954a26.4,26.4,0,0,0,6.841-12.541,8.643,8.643,0,0,0,1.33-.735A9.107,9.107,0,0,0,116,45.31a31.349,31.349,0,0,0,2.254-6.059,13.836,13.836,0,0,0,.566-3.523,6.419,6.419,0,0,0-.706-3.069,4.876,4.876,0,0,0-2.645-2.286l-.281-.093V24.424A28.605,28.605,0,0,0,111.149,10a20.5,20.5,0,0,0-7.33-7.046A25.28,25.28,0,0,0,91.278,0,25.275,25.275,0,0,0,78.753,2.958a21.425,21.425,0,0,0-9.379,11.133,29.537,29.537,0,0,0-1.988,10.333V30.28a4.755,4.755,0,0,0-1.2.547,4.7,4.7,0,0,0-1.722,1.849,6.3,6.3,0,0,0-.706,3.052,13.074,13.074,0,0,0,.566,3.523A24.339,24.339,0,0,0,67.4,46.672a8.628,8.628,0,0,0,1.991,2,7.431,7.431,0,0,0,1.33.735,26.4,26.4,0,0,0,6.841,12.541v6.576a1.742,1.742,0,0,1-.407.94,8.889,8.889,0,0,1-2.615,2.05,23.536,23.536,0,0,1-3.664,1.644c-1.379.486-3.587,1-6.061,1.706-3.725,1.081-8.11,2.632-11.694,5.7a17.085,17.085,0,0,0-4.462,5.856,20.254,20.254,0,0,0-1.725,8.549c0,.783.034,1.581.095,2.411a3.059,3.059,0,0,0,.532,1.423,6.863,6.863,0,0,0,1.957,1.816,28.3,28.3,0,0,0,5.966,2.787c7.609,2.708,20.2,5.2,35.791,5.2A121.561,121.561,0,0,0,122.3,104.9a48.148,48.148,0,0,0,9.082-3.3,14.067,14.067,0,0,0,2.709-1.754,5.9,5.9,0,0,0,.923-1.034,3.062,3.062,0,0,0,.532-1.423q.092-1.245.092-2.4A18.848,18.848,0,0,0,132.647,84.2Z" transform="translate(-46.938)" fill="#fff"/>
</svg>
