<svg xmlns="http://www.w3.org/2000/svg" xmlns:xlink="http://www.w3.org/1999/xlink" width="24" height="24" viewBox="0 0 24 24">
  <defs>
    <clipPath id="clip-path">
      <rect width="24" height="24" fill="none"/>
    </clipPath>
  </defs>
  <g id="btn_anything" clip-path="url(#clip-path)">
    <path id="Path_1236" data-name="Path 1236" d="M2,0H22a2,2,0,0,1,2,2V22a2,2,0,0,1-2,2H2a2,2,0,0,1-2-2V2A2,2,0,0,1,2,0Z" fill="#fff"/>
    <path id="ic_more_horiz_24px" d="M6,10a2,2,0,1,0,2,2A2.006,2.006,0,0,0,6,10Zm12,0a2,2,0,1,0,2,2A2.006,2.006,0,0,0,18,10Zm-6,0a2,2,0,1,0,2,2A2.006,2.006,0,0,0,12,10Z" fill="#ccc"/>
  </g>
</svg>
