<svg xmlns="http://www.w3.org/2000/svg" width="260" height="70.569" viewBox="0 0 260 70.569">
  <g id="Group_5938" data-name="Group 5938" transform="translate(329.162 -239.345)">
    <path id="Path_4574" data-name="Path 4574" d="M-254.051,272.647H-278V279.5h23.952a4.839,4.839,0,0,1,4.915,4.746v1.819h-21.353a9.035,9.035,0,0,0-9.171,8.871v3.555a9.035,9.035,0,0,0,9.171,8.871h22.074a6.259,6.259,0,0,0,6.352-6.148V284.241A11.811,11.811,0,0,0-254.051,272.647Zm4.915,26.073c0,1.26-.53,1.79-1.922,1.79h-19.431a2.065,2.065,0,0,1-2.1-2.024v-3.555a2.064,2.064,0,0,1,2.1-2.024h21.353Zm16.9-16.294v25.037h7.072V282.426a2.99,2.99,0,0,1,3.038-2.931h15.972v-6.848h-15.972A9.96,9.96,0,0,0-232.238,282.426Zm-96.924,1.873v1.585c0,11.9,10.013,21.579,22.321,21.579H-289.5v-6.848h-17.338a15.013,15.013,0,0,1-15.249-14.731V284.3a15.014,15.014,0,0,1,15.249-14.732H-289.5v-6.848h-17.338C-319.149,262.719-329.162,272.4-329.162,284.3Zm194.84-12.291h-.772c-10.113,0-17.429,7.953-17.429,17.727s7.316,17.728,17.429,17.728h.772c10.11,0,18.335-7.953,18.335-17.728S-124.211,272.007-134.322,272.007Zm0,28.608h-.772a11.091,11.091,0,0,1-11.266-10.881,11.091,11.091,0,0,1,11.266-10.881h.772a11.091,11.091,0,0,1,11.266,10.881A11.094,11.094,0,0,1-134.322,300.615Zm-37.294-37.9H-197.4v6.847h25.787a6.691,6.691,0,0,1,6.8,6.562v.909a6.691,6.691,0,0,1-6.8,6.563h-19.433a6.259,6.259,0,0,0-6.354,6.145v17.718h7.072V291.572a.986.986,0,0,1,1.126-1.126h17.589a13.659,13.659,0,0,0,13.867-13.41v-.909A13.661,13.661,0,0,0-171.616,262.719Zm85.768,9.928H-100.97a7.186,7.186,0,0,0-7.294,7.056v27.76h7.071V280.488c0-.662.265-.993.862-.993h14.483a9.466,9.466,0,0,1,9.614,9.286v18.682h7.071V288.781C-69.162,279.884-76.646,272.647-85.848,272.647Z" transform="translate(0 2.451)" fill="#fff"/>
    <g id="Group_5938-2" data-name="Group 5938" transform="translate(-324.488 239.345)">
      <path id="Path_4575" data-name="Path 4575" d="M-316.32,240.82c-.212,2.4-.887,9.2-7.46,10.8l-.557-1.378c5.3-1.26,6.228-5.963,6.506-8.03h-3.511a11.94,11.94,0,0,1-2.77,3.67l-.821-1.153a9.354,9.354,0,0,0,2.716-3.909Z" transform="translate(324.932 -239.19)" fill="#fff"/>
      <path id="Path_4576" data-name="Path 4576" d="M-303.684,244.168c0,4.955-1.338,6.652-1.974,7.46l-.94-1.219c.715-.9,1.643-2.24,1.643-6v-3.67h1.272Zm6.9,1.007c-.8,4.532-2.465,5.765-5.314,6.268V240.365h1.3l-.013,9.169c1.1-.5,2.371-1.272,2.835-4.955Z" transform="translate(326.854 -239.238)" fill="#fff"/>
      <path id="Path_4577" data-name="Path 4577" d="M-281.954,251.264A24.852,24.852,0,0,0-286.3,245.8l.968-.94c.993.927,1.418,1.338,1.988,1.961a10.294,10.294,0,0,0,3.087-4.162h-7.3V241.18h9.143a12.181,12.181,0,0,1-4.028,6.692,22.857,22.857,0,0,1,1.709,2.372Z" transform="translate(328.851 -239.153)" fill="#fff"/>
      <path id="Path_4578" data-name="Path 4578" d="M-264.505,250.116c1.126-.146,3.524-.636,3.524-4.227,0-1.272-.317-3.657-2.7-3.975-.251,5.857-1.788,8.521-3.312,8.521-1.378,0-2.027-2.014-2.027-3.962,0-4.042,2.6-5.963,5-5.963,2.782,0,4.4,2.225,4.4,5.393,0,2.624-1.021,5.048-4.413,5.645Zm-3.3-3.524c0,.65.173,2.225.888,2.225.477,0,.822-.781.955-1.1a18.545,18.545,0,0,0,1.046-5.737C-267.116,242.51-267.805,244.8-267.805,246.591Z" transform="translate(330.794 -239.223)" fill="#fff"/>
      <path id="Path_4579" data-name="Path 4579" d="M-246.519,241.712c-.411.821-1.273,2.452-2.067,3.75.635-.04.847-.066,1.086-.093-.092-.318-.146-.464-.252-.755l.822-.4a16.059,16.059,0,0,1,.756,2.344l-.888.412-.133-.557c-.517.08-.57.093-.675.106v5.7h-1.074v-5.578c-.742.066-1.232.093-1.59.093l-.093-1.233c.4,0,.529,0,.808-.013.119-.171.225-.357.623-1.046a18.275,18.275,0,0,0-1.471-1.749l.543-1.047c.16.146.2.186.331.3a15.926,15.926,0,0,0,.941-2.133l1.06.384a25.64,25.64,0,0,1-1.232,2.583l.438.557c.106-.2.623-1.192,1.033-2.12Zm-4.148,9.275a24.114,24.114,0,0,0,.424-3.538l1.007.146a35.95,35.95,0,0,1-.4,3.723Zm3.352-.436a21.7,21.7,0,0,0-.252-2.956l.849-.277a19.089,19.089,0,0,1,.411,2.954Zm5.049-5.619h1.471v1.153h-1.471v1.643h1.471v1.153h-1.471V250.7h1.656v1.258h-5.234v-7.062l-.266.357-.582-1.232a10.092,10.092,0,0,0,1.7-4.24l1.192.252c-.265.928-.41,1.378-.662,2.08h1.073a21.325,21.325,0,0,0,.623-2.173l1.152.225a16.239,16.239,0,0,1-.61,1.948h1.617v1.205h-1.656Zm-2.491-1.616v1.616h1.457v-1.616Zm1.457,4.413v-1.643h-1.457v1.643Zm-1.457,1.153V250.7h1.457v-1.815Z" transform="translate(332.719 -239.3)" fill="#fff"/>
      <path id="Path_4580" data-name="Path 4580" d="M-230.624,239.777h1.193v2.332h1.113v1.272h-1.113v2.372c.292-.133.358-.159.9-.424l.107,1.3c-.424.225-.6.318-1.008.516v3.816c0,.61,0,1.273-1.127,1.273h-1.1l-.119-1.378h.769c.225,0,.383,0,.383-.464v-2.7c-.383.146-.6.225-1.152.411l-.2-1.4c.5-.159.809-.265,1.351-.451v-2.863h-1.245v-1.272h1.245Zm4.85,0h1.219v1.18h2.347v1.3h-2.347v1.537h2.664v1.325h-1.06v1.313h.98v1.3h-.98v3.313c0,.463,0,1.192-1.127,1.192h-1.55l-.212-1.378h1.26c.37,0,.41-.133.41-.477v-2.651h-4.055v-1.3h4.055v-1.313h-4.148v-1.325h2.544v-1.537h-2.2v-1.3h2.2Zm-.756,10.826a8.669,8.669,0,0,0-1.325-1.974l1.113-.729a9.989,9.989,0,0,1,1.286,1.908Z" transform="translate(334.679 -239.3)" fill="#fff"/>
      <path id="Path_4581" data-name="Path 4581" d="M-211.9,250.1v-3.763a7.949,7.949,0,0,1-.9.436l-.517-1.179a6.155,6.155,0,0,0,2.386-1.4h-1.962c.119-.729.2-1.3.278-2.24h2.571c.013-.252.013-.318.013-.662h-2.916v-.915h2.916v-.583h1.113v.583h1.352v-.583h1.139v.583h2.651v2.344h-2.651v.676h3.286c-.1,2.7-.277,2.783-.927,2.783h-.345V250.1h-1.855a7.625,7.625,0,0,0,3.06.887l-.7,1.286a9.281,9.281,0,0,1-3.206-1.193l.662-.98h-3.776l.689.887a6.719,6.719,0,0,1-3.115,1.22l-.529-1.22a6.758,6.758,0,0,0,2.7-.887Zm.371-7.382c-.013.146-.053.464-.08.676h1.205a2.871,2.871,0,0,0,.225-.676Zm.809,3.711h5.128v-.636h-5.128Zm0,.7v.662h5.128v-.662Zm0,1.378v.715h5.128v-.715Zm3.153-3.564v-.756h-2.054a5.284,5.284,0,0,1-.557.756Zm0-1.551v-.676h-1.472a4.5,4.5,0,0,1-.2.676Zm0-1.444v-.662h-1.352c0,.224,0,.423-.012.662Zm2.663,0v-.662h-1.524v.662Zm-1.524,2.24v.756h2.014v.145a.3.3,0,0,0,.066-.2c.013-.106.027-.557.027-.7Z" transform="translate(336.635 -239.298)" fill="#fff"/>
      <path id="Path_4582" data-name="Path 4582" d="M-191.349,250.972a22.811,22.811,0,0,0-2.147-2.928l1.139-.8a22.724,22.724,0,0,1,2.319,2.835Z" transform="translate(338.713 -238.516)" fill="#fff"/>
      <path id="Path_4583" data-name="Path 4583" d="M-175.856,243.411c-.33-1.046-.4-1.192-.463-1.378h-.2a5.632,5.632,0,0,1-1.3,1.444l-.716-.993a6.089,6.089,0,0,0,1.815-2.717l1.127.3c-.107.3-.173.451-.3.768h2.306v1.193h-1.525c.225.623.252.688.371,1.047Zm-2.57,7.169c.4-.013.476-.026.65-.026V243.7h4.24v4.771h-3.075v1.948c.914-.159.94-.159,1.709-.331a8.49,8.49,0,0,0-.358-.782l.994-.582a15.217,15.217,0,0,1,1.245,2.689l-1.1.636c-.146-.384-.172-.437-.318-.835a21.142,21.142,0,0,1-3.79.663Zm3.75-4.983v-.741h-1.935v.741Zm-1.935.981v.755h1.935v-.755Zm5.525-3.128a11.415,11.415,0,0,0-.569-1.418h-.4a8.473,8.473,0,0,1-1.047,1.537l-.953-.834a6.817,6.817,0,0,0,1.59-3l1.166.3c-.106.345-.159.556-.252.794h3.128v1.193h-1.988a9.44,9.44,0,0,1,.424,1.008Zm-1.563.252h3.856v6.506c0,.331,0,1.126-.834,1.126h-1.193l-.278-1.444h.822c.3,0,.318-.119.318-.4v-4.519h-1.51v7.249h-1.18Z" transform="translate(340.282 -239.303)" fill="#fff"/>
      <path id="Path_4584" data-name="Path 4584" d="M-155.587,241.652a31.208,31.208,0,0,1-2,3.79c.728-.08.821-.08,1.113-.118-.133-.438-.2-.65-.318-.955l.928-.385a18.009,18.009,0,0,1,.847,2.518l-1.046.41-.133-.542c-.438.08-.5.093-.7.119v5.737h-1.086v-5.592c-.557.066-.888.106-1.683.159v-1.26c.6-.013.663-.013.861-.027.225-.358.345-.582.583-1.033a9.642,9.642,0,0,0-1.484-1.775l.569-1.034c.186.172.212.2.278.252a23.541,23.541,0,0,0,.955-2.2l1.007.491a16.011,16.011,0,0,1-1.205,2.558c.212.278.318.41.451.6.635-1.3.794-1.63,1.046-2.226Zm-4.121,9.3a16.687,16.687,0,0,0,.438-3.539l.98.186a26.272,26.272,0,0,1-.4,3.8Zm3.432-.371c-.08-1.127-.212-2.133-.358-3.048l.875-.2a22.872,22.872,0,0,1,.489,3.048Zm2.6,1.643-.225-1.419h1.829c.358,0,.529-.065.61-.635.186-1.311.224-6.546.224-6.732v-.516h-2.411a8,8,0,0,1-1.14,2.053l-.847-1.1a9.71,9.71,0,0,0,1.63-4.121l1.22.119c-.16.821-.266,1.233-.412,1.749H-150c-.093,5.235-.119,7.725-.3,9.051-.08.583-.278,1.55-1.127,1.55Zm.371-3.617a14,14,0,0,0-1.286-3.207l1.021-.609a11.486,11.486,0,0,1,1.325,3.167Z" transform="translate(342.256 -239.306)" fill="#fff"/>
      <path id="Path_4585" data-name="Path 4585" d="M-135.708,245.264a4.6,4.6,0,0,0,2.6-3.167h-7.473v-1.445h9.023c-.3,3.207-1.59,4.691-3.326,5.817Zm-4.77,5.076c3.326-1.709,3.3-5.036,3.3-7.01h1.339c-.054,3.1-.292,6.042-3.79,8.255Z" transform="translate(344.261 -239.208)" fill="#fff"/>
      <path id="Path_4586" data-name="Path 4586" d="M-115.514,241.412l1.457,1.8c-.371,2.372-.741,4.784-3.06,6.772a8.378,8.378,0,0,1-3.312,1.656l-.6-1.4c4.612-1.047,5.366-4.612,5.645-7.355h-6.427v-1.471Zm3.5-.371a1.6,1.6,0,0,1-1.471,1.7,1.6,1.6,0,0,1-1.484-1.7,1.6,1.6,0,0,1,1.484-1.7A1.587,1.587,0,0,1-112.016,241.041Zm-2.238,0a.826.826,0,0,0,.768.888.835.835,0,0,0,.756-.888.833.833,0,0,0-.756-.887A.826.826,0,0,0-114.254,241.041Z" transform="translate(346.23 -239.345)" fill="#fff"/>
      <path id="Path_4587" data-name="Path 4587" d="M-100.886,247.769h-1.366V240.6h1.366Zm5.512-1.709c0,3.776-2.173,5.154-5.976,5.512l-.438-1.431c3.153-.225,5.022-.849,5.022-3.962v-5.791h1.392Z" transform="translate(348.28 -239.236)" fill="#fff"/>
    </g>
  </g>
</svg>
