<svg xmlns="http://www.w3.org/2000/svg" viewBox="0 0 38 38">
  <defs>
    <style>
      .cls-1 {
        fill: #fff;
      }
    </style>
  </defs>
  <path id="ic_do_not_disturb_alt_24px" class="cls-1" d="M21,2A19,19,0,1,0,40,21,19.056,19.056,0,0,0,21,2ZM5.8,21A15.245,15.245,0,0,1,21,5.8a14.974,14.974,0,0,1,9.31,3.23L9.03,30.31A14.974,14.974,0,0,1,5.8,21ZM21,36.2a14.974,14.974,0,0,1-9.31-3.23L32.97,11.69A14.974,14.974,0,0,1,36.2,21,15.245,15.245,0,0,1,21,36.2Z" transform="translate(-2 -2)"/>
</svg>
