<svg id="Button_Trash" xmlns="http://www.w3.org/2000/svg" xmlns:xlink="http://www.w3.org/1999/xlink" width="50" height="50" viewBox="0 0 50 50">
  <defs>
    <clipPath id="clip-path">
      <rect id="Rectangle_3715" data-name="Rectangle 3715" width="24" height="22" transform="translate(0 0)" fill="none"/>
    </clipPath>
  </defs>
  <rect id="Rectangle_3693" data-name="Rectangle 3693" width="50" height="50" fill="none"/>
  <g id="Group_6118" data-name="Group 6118" transform="translate(13 14)">
    <g id="Group_6116" data-name="Group 6116" clip-path="url(#clip-path)">
      <path id="Path_4698" data-name="Path 4698" d="M24,8.374a2.206,2.206,0,0,0-.675-1.591L17.022.638a2.406,2.406,0,0,0-3.263,0L.676,13.4a2.208,2.208,0,0,0,0,3.182l5.26,5.129A1.036,1.036,0,0,0,6.661,22H20.248a.75.75,0,0,0,0-1.5H12.519l10.8-10.535A2.206,2.206,0,0,0,24,8.374M6.873,20.5l-5.11-4.983a.737.737,0,0,1,0-1.06l3.926-3.829,7.3,7.3L10.344,20.5Z" fill="#fff"/>
    </g>
  </g>
</svg>
