<svg xmlns="http://www.w3.org/2000/svg" width="67" height="42.924" viewBox="0 0 70.5 42.924">
  <g id="car" transform="translate(-704.25 -378.08)">
    <g id="Group_5460" data-name="Group 5460">
      <path id="Path_4444" data-name="Path 4444" d="M712.1,410.414v8.365A1.2,1.2,0,0,0,713.267,420h6.8a1.2,1.2,0,0,0,1.167-1.225V413.74c-3.985-.309-6.58-.592-6.58-.592A2.648,2.648,0,0,1,712.1,410.414Z" fill="#999"/>
      <path id="Path_4445" data-name="Path 4445" d="M764.348,413.148s-2.6.283-6.58.592v5.039A1.2,1.2,0,0,0,758.935,420h6.8a1.2,1.2,0,0,0,1.167-1.225v-8.365A2.648,2.648,0,0,1,764.348,413.148Z" fill="#999"/>
      <path id="Path_4446" data-name="Path 4446" d="M766.161,396.458a111.721,111.721,0,0,0-3.33-11.081c-1.131-2.917-9.849-6.3-23.331-6.3s-22.2,3.38-23.331,6.3a103.455,103.455,0,0,0-3.237,11.092,220.037,220.037,0,0,0,53.229-.011Z" fill="#fff"/>
      <path id="Path_4447" data-name="Path 4447" d="M739.5,398.079a220.985,220.985,0,0,1-26.568-1.61c-.509,2.08-.832,3.544-.832,3.544v10.4a2.648,2.648,0,0,0,2.552,2.734s2.6.283,6.58.592v0c4.775.371,11.547.778,18.268.778s13.493-.407,18.268-.778v0c3.985-.309,6.58-.592,6.58-.592a2.648,2.648,0,0,0,2.552-2.734V399.449s-.284-1.212-.739-2.991A221.138,221.138,0,0,1,739.5,398.079Z" fill="#ccc"/>
      <path id="Path_4448" data-name="Path 4448" d="M740,414l-5-16s18.25,0,23.625-.5a57.529,57.529,0,0,0,7.536-1.042S767,406.5,767,408.25s-.25,4.5-5.125,5.125S740,414,740,414Z" fill="#666" opacity="0.1"/>
    </g>
    <path id="Path_4449" data-name="Path 4449" d="M740,398c9.227-.183,20.829-.884,26.161-1.542a111.721,111.721,0,0,0-3.33-11.081c-1.131-2.917-9.849-6.3-23.331-6.3-1.913,0-3.727.07-5.441.2Z" fill="#f5f5f5"/>
    <g id="Group_5461" data-name="Group 5461">
      <path id="Path_4450" data-name="Path 4450" d="M766.9,400.013" fill="none" stroke="#666" stroke-linecap="round" stroke-linejoin="round" stroke-width="2"/>
      <line id="Line_164" data-name="Line 164" x2="6.524" transform="translate(717.317 402.19)" fill="none" stroke="#666" stroke-linecap="round" stroke-linejoin="round" stroke-width="2"/>
      <line id="Line_165" data-name="Line 165" x2="6.524" transform="translate(755.158 402.19)" fill="none" stroke="#666" stroke-linecap="round" stroke-linejoin="round" stroke-width="2"/>
      <path id="Path_4451" data-name="Path 4451" d="M721.233,413.542v5.237A1.2,1.2,0,0,1,720.065,420h-6.8a1.2,1.2,0,0,1-1.167-1.225v-8.365" fill="none" stroke="#666" stroke-linecap="round" stroke-linejoin="round" stroke-width="2"/>
      <path id="Path_4452" data-name="Path 4452" d="M757.767,413.542v5.237A1.2,1.2,0,0,0,758.935,420h6.8a1.2,1.2,0,0,0,1.167-1.225v-8.365" fill="none" stroke="#666" stroke-linecap="round" stroke-linejoin="round" stroke-width="2"/>
      <path id="Path_4453" data-name="Path 4453" d="M766.9,399.449v10.965a2.647,2.647,0,0,1-2.552,2.734s-12.518,1.37-24.848,1.37-24.848-1.37-24.848-1.37a2.647,2.647,0,0,1-2.552-2.734v-10.4a134.8,134.8,0,0,1,4.069-14.636c1.131-2.917,9.849-6.3,23.331-6.3s22.2,3.38,23.331,6.3A139.085,139.085,0,0,1,766.9,399.449Z" fill="none" stroke="#666" stroke-linecap="round" stroke-linejoin="round" stroke-width="2"/>
      <path id="Path_4454" data-name="Path 4454" d="M773.75,395.339a215.431,215.431,0,0,1-68.5,0" fill="none" stroke="#666" stroke-linecap="round" stroke-linejoin="round" stroke-width="2"/>
    </g>
  </g>
</svg>
