<svg xmlns="http://www.w3.org/2000/svg" width="173.887" height="30.014" viewBox="0 0 173.887 30.014">
  <g id="Group_2319" data-name="Group 2319" transform="translate(0 0)">
    <path id="Path_1431" data-name="Path 1431" d="M0,48.216V49.3A14.7,14.7,0,0,0,14.93,63.714H26.5v-4.6H14.93A10.035,10.035,0,0,1,4.753,49.25V48.165A10.068,10.068,0,0,1,14.93,38.3H26.5V33.7H14.93C6.716,33.752,0,40.261,0,48.216Z" transform="translate(0 -33.7)" fill="#4b9fa5"/>
    <path id="Path_1432" data-name="Path 1432" d="M81.151,46.7H65.137v4.6H81.151a3.267,3.267,0,0,1,3.306,3.151v1.24H70.148A6.088,6.088,0,0,0,64,61.63v2.376a6.055,6.055,0,0,0,6.148,5.941H84.922a4.2,4.2,0,0,0,4.236-4.133V54.449A7.863,7.863,0,0,0,81.151,46.7Zm3.306,13.535V65.3H70.148a1.379,1.379,0,0,1-1.395-1.343V61.578a1.379,1.379,0,0,1,1.395-1.343Z" transform="translate(-30.938 -39.984)" fill="#4b9fa5"/>
    <path id="Path_1433" data-name="Path 1433" d="M125.5,53.261V70h4.753V53.261a2.007,2.007,0,0,1,2.015-1.963h10.694V46.7H132.267A6.65,6.65,0,0,0,125.5,53.261Z" transform="translate(-60.667 -39.984)" fill="#4b9fa5"/>
    <path id="Path_1434" data-name="Path 1434" d="M187.754,33.8H170.5v4.6h17.254a4.456,4.456,0,0,1,4.546,4.391v.62a4.456,4.456,0,0,1-4.546,4.391H174.736a4.2,4.2,0,0,0-4.236,4.133v11.83h4.753V52.4h12.5a9.165,9.165,0,0,0,9.3-8.989v-.62A9.165,9.165,0,0,0,187.754,33.8Z" transform="translate(-82.42 -33.748)" fill="#4b9fa5"/>
    <path id="Path_1435" data-name="Path 1435" d="M240.792,45.9h-.517a11.831,11.831,0,0,0,0,23.66h.517a11.837,11.837,0,1,0,0-23.66Zm7.542,11.83a7.4,7.4,0,0,1-7.542,7.284h-.517a7.288,7.288,0,1,1,0-14.568h.517A7.4,7.4,0,0,1,248.334,57.73Z" transform="translate(-110.505 -39.597)" fill="#4b9fa5"/>
    <path id="Path_1436" data-name="Path 1436" d="M300.981,46.7H290.856A4.786,4.786,0,0,0,286,51.4V69.947h4.753V51.4a.165.165,0,0,1,.155-.155h10.074a6.3,6.3,0,0,1,6.406,6.2v12.5h4.753V57.5A11.006,11.006,0,0,0,300.981,46.7Z" transform="translate(-138.253 -39.984)" fill="#4b9fa5"/>
  </g>
</svg>
