<svg xmlns="http://www.w3.org/2000/svg" width="78.648" height="13.575" viewBox="0 0 78.648 13.575">
  <g id="Group_2319" data-name="Group 2319" transform="translate(0 0)">
    <path id="Path_1431" data-name="Path 1431" d="M0,40.266v.491a6.649,6.649,0,0,0,6.753,6.519h5.234V45.2H6.753a4.539,4.539,0,0,1-4.6-4.463v-.491a4.554,4.554,0,0,1,4.6-4.463h5.234V33.7H6.753A6.7,6.7,0,0,0,0,40.266Z" transform="translate(0 -33.7)" fill="#fff"/>
    <path id="Path_1432" data-name="Path 1432" d="M71.757,46.7H64.514v2.08h7.243a1.477,1.477,0,0,1,1.5,1.425v.561H66.78A2.754,2.754,0,0,0,64,53.453v1.075a2.739,2.739,0,0,0,2.78,2.687h6.683a1.9,1.9,0,0,0,1.916-1.869V50.2A3.556,3.556,0,0,0,71.757,46.7Zm1.5,6.122v2.29H66.78a.624.624,0,0,1-.631-.608V53.429a.624.624,0,0,1,.631-.607Z" transform="translate(-49.046 -43.662)" fill="#fff"/>
    <path id="Path_1433" data-name="Path 1433" d="M125.5,49.667v7.57h2.15v-7.57a.908.908,0,0,1,.911-.888H133.4V46.7h-4.837A3.008,3.008,0,0,0,125.5,49.667Z" transform="translate(-96.176 -43.662)" fill="#fff"/>
    <path id="Path_1434" data-name="Path 1434" d="M178.3,33.8h-7.8v2.08h7.8a2.015,2.015,0,0,1,2.056,1.986v.28a2.015,2.015,0,0,1-2.056,1.986h-5.888A1.9,1.9,0,0,0,170.5,42v5.351h2.15v-5.14H178.3a4.145,4.145,0,0,0,4.206-4.066v-.28A4.145,4.145,0,0,0,178.3,33.8Z" transform="translate(-130.662 -33.777)" fill="#fff"/>
    <path id="Path_1435" data-name="Path 1435" d="M234.114,45.9h-.234a5.351,5.351,0,0,0,0,10.7h.234a5.354,5.354,0,1,0,0-10.7Zm3.411,5.351a3.347,3.347,0,0,1-3.411,3.295h-.234a3.3,3.3,0,1,1,0-6.589h.234A3.347,3.347,0,0,1,237.526,51.251Z" transform="translate(-175.187 -43.049)" fill="#fff"/>
    <path id="Path_1436" data-name="Path 1436" d="M292.776,46.7H288.2a2.165,2.165,0,0,0-2.2,2.126v8.388h2.15V48.826a.075.075,0,0,1,.07-.07h4.556a2.848,2.848,0,0,1,2.9,2.8v5.654h2.15V51.583A4.978,4.978,0,0,0,292.776,46.7Z" transform="translate(-219.175 -43.662)" fill="#fff"/>
  </g>
</svg>
