<svg xmlns="http://www.w3.org/2000/svg" xmlns:xlink="http://www.w3.org/1999/xlink" width="110.4" height="19" viewBox="0 0 110.4 19">
  <defs>
    <clipPath id="clip-path">
      <rect width="110.4" height="19" fill="none"/>
    </clipPath>
  </defs>
  <g id="Component_1" data-name="Component 1" transform="translate(0)" clip-path="url(#clip-path)">
    <path id="Path_1763" data-name="Path 1763" d="M0,9.162v.672A9.334,9.334,0,0,0,9.477,19h7.361V16.09H9.477A6.376,6.376,0,0,1,3,9.834V9.162A6.378,6.378,0,0,1,9.477,2.906h7.361V0H9.477A9.334,9.334,0,0,0,0,9.162Z" fill="#fff"/>
    <path id="Path_1764" data-name="Path 1764" d="M74.954,12.85H64.785v2.906H74.954a2.054,2.054,0,0,1,2.086,2.014v.771H67.974a3.835,3.835,0,0,0-3.894,3.766v1.509a3.837,3.837,0,0,0,3.894,3.766h9.372a2.658,2.658,0,0,0,2.7-2.611v-7.2A5.013,5.013,0,0,0,74.954,12.85Zm2.086,8.6v3.228H67.974a.878.878,0,0,1-.892-.859V22.314a.878.878,0,0,1,.892-.859h9.067Z" transform="translate(-43.06 -8.635)" fill="#fff"/>
    <path id="Path_1765" data-name="Path 1765" d="M125.46,17V27.635h3V17a1.27,1.27,0,0,1,1.289-1.247h6.781V12.85h-6.781A4.231,4.231,0,0,0,125.46,17Z" transform="translate(-84.305 -8.635)" fill="#fff"/>
    <path id="Path_1766" data-name="Path 1766" d="M181.51,0H170.56V2.906h10.95A2.841,2.841,0,0,1,184.4,5.691v.387a2.841,2.841,0,0,1-2.887,2.785h-8.25a2.659,2.659,0,0,0-2.7,2.611V19h3V11.773h7.948A5.8,5.8,0,0,0,187.4,6.078V5.691A5.8,5.8,0,0,0,181.51,0Z" transform="translate(-114.61 0)" fill="#fff"/>
    <path id="Path_1767" data-name="Path 1767" d="M236.379,12.02h-.328a7.339,7.339,0,0,0-7.4,7.528,7.341,7.341,0,0,0,7.4,7.528h.328a7.666,7.666,0,0,0,7.784-7.528A7.666,7.666,0,0,0,236.379,12.02Zm4.786,7.528a4.707,4.707,0,0,1-4.783,4.619h-.328a4.622,4.622,0,1,1,0-9.237h.328A4.709,4.709,0,0,1,241.165,19.548Z" transform="translate(-153.645 -8.077)" fill="#fff"/>
    <path id="Path_1768" data-name="Path 1768" d="M295.46,12.85h-6.423a3.05,3.05,0,0,0-3.1,2.995V27.631h3V15.845a.092.092,0,0,1,.1-.089h6.423A4.018,4.018,0,0,1,299.54,19.7v7.932h3V19.7A6.975,6.975,0,0,0,295.46,12.85Z" transform="translate(-192.142 -8.635)" fill="#fff"/>
  </g>
</svg>
