<svg xmlns="http://www.w3.org/2000/svg" width="134.464" height="108.612" viewBox="0 0 134.464 108.612">
  <g id="Group_3804" data-name="Group 3804" transform="translate(-120 -226.722)">
    <g id="Group_2311" data-name="Group 2311" transform="translate(120.003 226.732)">
      <path id="Path_1419" data-name="Path 1419" d="M129.639,43.095c-.222-.59-.455-1.169-.7-1.732-3.961-9.236-7.752-12.1-9.692-16.021s-9.1-16.6-10.705-18.8a14.727,14.727,0,0,0-4.789-4.473S96.014-.01,72.845-.01c-.331,0-.646,0-.967.005h-.993C47.716,0,39.974,2.069,39.974,2.069a14.727,14.727,0,0,0-4.789,4.473c-1.6,2.208-8.766,14.878-10.705,18.8s-5.73,6.785-9.692,16.021c-.243.564-.476,1.143-.7,1.732a94.673,94.673,0,0,0-3.227,12.577,106.065,106.065,0,0,0-1.215,18.69c.2,10.059,1.008,16.849,2.017,18.835,1.588.61,3.78,1.365,6.128,2.1v8.119a5.28,5.28,0,0,0,5.342,5.182H33.551a5.28,5.28,0,0,0,5.342-5.182V98.192c.683.01,1.081.01,1.081.01h63.786s.409,0,1.1-.01v5.228A5.28,5.28,0,0,0,110.2,108.6H120.62a5.28,5.28,0,0,0,5.342-5.182V95.3c2.343-.734,4.525-1.479,6.108-2.089,1.008-1.986,1.81-8.776,2.017-18.835a106.061,106.061,0,0,0-1.215-18.69A96.426,96.426,0,0,0,129.639,43.095ZM39.049,18.132c4.215-9.076,6.93-10.565,9.34-10.953,1.314-.212,6.661-.326,12.045-.388V6.728H83.323v.062c5.384.062,10.731.176,12.045.388,2.41.388,5.12,1.882,9.34,10.953s3.853,10.048,3.853,10.695c0,0-4.3,4.292-36.682,4.292S35.2,28.826,35.2,28.826C35.2,28.18,34.834,27.208,39.049,18.132Zm-3.02,46.7a10.111,10.111,0,0,1-10.26-9.955c0-5.5,1.888-9.955,7.556-9.955s12.97,4.458,12.97,9.955A10.119,10.119,0,0,1,36.028,64.831ZM92.451,77.118c-.44.052-10.845,1.22-19.869,1.22-9.009,0-20.748-1.164-21.245-1.215a2.614,2.614,0,0,1-2.384-2.844,2.655,2.655,0,0,1,2.932-2.312c.119.01,11.967,1.189,20.7,1.189,8.714,0,19.145-1.174,19.249-1.184a2.65,2.65,0,0,1,2.963,2.27A2.608,2.608,0,0,1,92.451,77.118Zm15.277-12.288a10.111,10.111,0,0,1-10.26-9.955c0-5.5,7.3-9.955,12.97-9.955s7.556,4.458,7.556,9.955A10.119,10.119,0,0,1,107.727,64.831Z" transform="translate(-4.649)" fill="#fff"/>
      <path id="Path_1420" data-name="Path 1420" d="M6.39,56.227C9.566,50.735,12.374,48.1,14.008,44.8c.414-.838,1.039-2.027,1.789-3.418a33.771,33.771,0,0,0-9.04.021c-3.584.745-5.673,1.515-6.175,3.16-1.965,6.485,1.3,9.309,5.528,11.558A2.072,2.072,0,0,0,6.39,56.227Z" transform="translate(0 -19.834)" fill="#fff"/>
      <path id="Path_1421" data-name="Path 1421" d="M244.641,44.553c-.5-1.639-2.591-2.415-6.175-3.165-3.263-.683-8.2-.124-9.066-.016.75,1.391,1.376,2.581,1.789,3.418,1.634,3.31,4.442,5.942,7.623,11.439a1.786,1.786,0,0,0,.3-.114C243.338,53.862,246.606,51.039,244.641,44.553Z" transform="translate(-110.765 -19.828)" fill="#fff"/>
    </g>
  </g>
</svg>
