<svg xmlns="http://www.w3.org/2000/svg" width="303.994" height="315.838" viewBox="0 0 303.994 315.838">
  <g id="Group_2545" data-name="Group 2545" transform="translate(-18.317 -48.476)">
    <path id="Path_1034" data-name="Path 1034" d="M243.972,110H26.5l8.787,20.415L26.5,150.831H243.972l-8.787-20.415Z" transform="translate(34.94 77.756)" fill="#4b9fa5"/>
    <path id="Path_1044" data-name="Path 1044" d="M191.425,30.627a5.771,5.771,0,0,0-2.421.484,5.631,5.631,0,0,0-2.785,2.784,6.729,6.729,0,0,0-.605,1.937,14.772,14.772,0,0,0,2.3.605,9.461,9.461,0,0,0,4.479-.242,5.746,5.746,0,0,0,2.906-2.663,5.186,5.186,0,0,0,.726-1.816,11.92,11.92,0,0,0-2.421-.726A4.147,4.147,0,0,0,191.425,30.627ZM207.648,272.5c-.242.121-.605.363-1.09.605-.363.242-.847.484-1.211.726a19.733,19.733,0,0,0-2.664,2.058,10.171,10.171,0,0,0-2.179,2.905,9.777,9.777,0,0,0-.726,6.295,13.214,13.214,0,0,0,.969,3.026,21.658,21.658,0,0,0,3.753-1.574c1.937-1.211,4.237-2.905,5.327-5.084a8.778,8.778,0,0,0,.242-6.295,10.73,10.73,0,0,0-1.332-2.905A1.546,1.546,0,0,0,207.648,272.5Zm36.32-22.153a8.4,8.4,0,0,0-2.058-2.179l-.726.726a5.266,5.266,0,0,0-.726.847,7.829,7.829,0,0,1-.969,1.09,12.306,12.306,0,0,0-1.816,2.784c-.242.484-.484,1.09-.726,1.574a6.939,6.939,0,0,0-.484,1.695,8.7,8.7,0,0,0,1.332,5.932,13.114,13.114,0,0,0,1.816,2.421,18.3,18.3,0,0,0,2.785-2.663l.605-.605c.121-.242.363-.484.484-.726a6.86,6.86,0,0,0,.969-1.574,9.545,9.545,0,0,0,1.211-3.39,3.989,3.989,0,0,0,0-1.695c-.121-.605-.242-1.09-.363-1.574A6.146,6.146,0,0,0,243.967,250.346ZM217.7,267.294c-.363.363-.847.726-1.211,1.09l-1.211,1.211a9.6,9.6,0,0,0-1.816,3.026,7.961,7.961,0,0,0-.484,3.268,10.406,10.406,0,0,0,.484,2.905,10.73,10.73,0,0,0,1.332,2.905,9.523,9.523,0,0,0,1.09-.484,4.907,4.907,0,0,0,1.09-.605,12.777,12.777,0,0,1,1.332-.847c1.816-1.332,3.874-3.268,4.6-5.569a8.129,8.129,0,0,0-.484-6.174,10.887,10.887,0,0,0-1.574-2.663A12.282,12.282,0,0,0,217.7,267.294ZM198.568,34.259a5.165,5.165,0,0,0-3.027,2.663,5.315,5.315,0,0,0-.726,1.937,3.9,3.9,0,0,0,.726.242,15.438,15.438,0,0,0,1.695.484,9.814,9.814,0,0,0,4.6.121,5.687,5.687,0,0,0,3.148-2.542,7.934,7.934,0,0,0,.847-1.816,20.36,20.36,0,0,0-2.421-.968A9.42,9.42,0,0,0,198.568,34.259Zm33.293,222.866a.423.423,0,0,1-.242.121c-.121.121-.363.242-.605.484a19.12,19.12,0,0,0-1.937,1.695,14.509,14.509,0,0,0-2.058,2.542,10.961,10.961,0,0,0-1.574,3.147,10.353,10.353,0,0,0,.605,6.174,15.067,15.067,0,0,0,1.574,2.663.375.375,0,0,0,.242-.121,7.16,7.16,0,0,1,.726-.484,18.2,18.2,0,0,0,2.179-1.695,11.414,11.414,0,0,0,1.211-1.211,15.378,15.378,0,0,0,1.211-1.453,12.308,12.308,0,0,0,1.574-3.39,8.359,8.359,0,0,0-1.09-6.053A13.114,13.114,0,0,0,231.861,257.126ZM172.539,56.534l-5.811-8.353-7.748,6.537-6.9-7.506-6.9,7.506-7.748-6.537-5.811,8.353-8.6-5.448L118.3,60.044l-9.2-4.237-3.753,9.564-9.685-3.026-2.179,9.927L83.435,70.576l-.847,10.169-10.169-.363.363,10.169L62.612,91.4l1.695,10.048-9.927,2.179,3.027,9.685-9.564,3.511,4.237,9.2-7.385,4.842H29.682l9.685,29.054L29.682,188.97H43.241v.121l8.959,4.721-4.237,9.2,9.564,3.511L54.5,216.208l9.927,2.179-1.695,10.048,10.169.847-.363,10.169,10.169-.363.847,10.169L93.6,247.562l2.179,9.927,9.685-3.026,3.511,9.564,9.2-4.237,4.722,8.958,8.6-5.448,5.811,8.353,7.748-6.537,6.9,7.506,6.9-7.506,7.748,6.537,5.811-8.353,8.6,5.448,4.722-8.958,9.2,4.237,3.511-9.564,9.685,3.026,2.179-9.927,10.048,1.695.847-10.169,10.169.363-.363-10.169,10.169-.847-1.695-10.048,9.927-2.179-3.027-9.685,9.564-3.511-4.237-9.2,8.959-4.721v-.121h13.559l-9.685-29.054,9.685-29.054h-16.1l-6.416-4.842,4.237-9.2-9.564-3.511,3.027-9.685-9.927-2.179L241.183,91.4l-10.169-.847.363-10.169-10.169.363-.847-10.169-10.048,1.695-2.179-9.927-9.685,3.026-3.511-9.564-9.2,4.237-4.722-8.958Zm96.61,77.84-8.111,24.333-.363,1.09.363,1.089,8.111,24.333H34.646l8.111-24.333.363-1.089-.363-1.09-8.111-24.333Zm-4.116-46.123a4.7,4.7,0,0,0-2.542-.242,9.391,9.391,0,0,0-2.179.605,16.951,16.951,0,0,0-2.058,1.211,5.535,5.535,0,0,0,.484.726c.121.242.363.484.484.726.242.242.484.605.726.847a13.3,13.3,0,0,0,1.816,1.937,10.475,10.475,0,0,0,1.211.847,5.655,5.655,0,0,0,1.211.605,6.923,6.923,0,0,0,4.722-.121,9.938,9.938,0,0,0,2.179-1.09,27.671,27.671,0,0,0-1.574-2.663A12.232,12.232,0,0,0,265.032,88.251Zm-2.058-6.416c-1.211-1.211-2.785-2.663-4.6-3.026a6.7,6.7,0,0,0-4.721.726,8.1,8.1,0,0,0-1.937,1.332,2.687,2.687,0,0,0,.484.605c.363.363.847.968,1.332,1.453a9.638,9.638,0,0,0,4.479,2.905,6.481,6.481,0,0,0,4.6-.484,16.949,16.949,0,0,0,2.058-1.211,5.543,5.543,0,0,0-.484-.726C263.943,83.045,263.459,82.44,262.974,81.835ZM248.083,64.16a19.046,19.046,0,0,0-2.3-1.453,6.718,6.718,0,0,0-2.663-.726,5.8,5.8,0,0,0-4.237,1.453,15.7,15.7,0,0,0-1.574,1.574,17.026,17.026,0,0,0,2.058,1.695,8.863,8.863,0,0,0,4.721,2.058,5.352,5.352,0,0,0,2.421-.242,9.652,9.652,0,0,0,1.937-.968,8.574,8.574,0,0,0,1.695-1.453l-.605-.605A8.171,8.171,0,0,0,248.083,64.16Zm7.748,8.474a10.7,10.7,0,0,0-4.722-2.663,6.539,6.539,0,0,0-4.479,1.09,13.11,13.11,0,0,0-1.816,1.453,10.482,10.482,0,0,0,2.058,1.937,8.921,8.921,0,0,0,4.6,2.421,6.533,6.533,0,0,0,4.479-.847,6.02,6.02,0,0,0,1.816-1.332,3,3,0,0,1-.484-.726C256.921,73.724,256.437,73.119,255.832,72.634Zm-16.1-16.1a13.806,13.806,0,0,0-2.3-1.211,4.292,4.292,0,0,0-1.332-.363,4.967,4.967,0,0,0-1.332-.121,5.7,5.7,0,0,0-4.116,1.816A7.431,7.431,0,0,0,229.2,58.35a20.99,20.99,0,0,0,2.179,1.574A10.418,10.418,0,0,0,236.1,61.5a6.333,6.333,0,0,0,4.116-1.574,8.117,8.117,0,0,0,1.574-1.574A6.234,6.234,0,0,0,239.73,56.534ZM222.054,43.823a9.872,9.872,0,0,0-4.964-.968,5.627,5.627,0,0,0-3.632,2.3,9.848,9.848,0,0,0-1.09,1.816,13.522,13.522,0,0,0,2.3,1.09,8.91,8.91,0,0,0,4.722.847,4.351,4.351,0,0,0,2.179-.847,8.334,8.334,0,0,0,1.574-1.332,6.063,6.063,0,0,0,1.211-1.695,2.687,2.687,0,0,1-.605-.484A13.842,13.842,0,0,1,222.054,43.823Zm6.659,4.963a9.216,9.216,0,0,0-2.542-.363,5.794,5.794,0,0,0-3.874,2.058,7.685,7.685,0,0,0-1.211,1.816,13.692,13.692,0,0,0,2.3,1.332,8.859,8.859,0,0,0,4.722,1.211,6.831,6.831,0,0,0,4-1.816,7.429,7.429,0,0,0,1.453-1.695,14.218,14.218,0,0,0-2.3-1.574A21.813,21.813,0,0,0,228.713,48.786ZM212.732,38.738a9.391,9.391,0,0,0-4.843-.484A6.2,6.2,0,0,0,204.5,40.8a14.943,14.943,0,0,0-.969,1.816l.726.363a8.683,8.683,0,0,0,1.695.605,8.812,8.812,0,0,0,4.721.484,6.648,6.648,0,0,0,3.511-2.3,9.85,9.85,0,0,0,1.09-1.816l-.726-.363A6.325,6.325,0,0,0,212.732,38.738ZM105.348,34.38a9.358,9.358,0,0,0-4.843.121,9.219,9.219,0,0,0-2.421.968,7.934,7.934,0,0,0,.847,1.816,6.148,6.148,0,0,0,3.148,2.542,8.421,8.421,0,0,0,4.6-.121,15.426,15.426,0,0,0,1.695-.484,3.9,3.9,0,0,0,.726-.242,16.4,16.4,0,0,0-.726-1.937A5.165,5.165,0,0,0,105.348,34.38Zm6.053,1.937a9.461,9.461,0,0,0,4.479.242,14.772,14.772,0,0,0,2.3-.605,8.126,8.126,0,0,0-.605-1.937,5.631,5.631,0,0,0-2.785-2.784,7.827,7.827,0,0,0-2.421-.484,7.077,7.077,0,0,0-2.3.242,9.375,9.375,0,0,0-2.421.726,11.775,11.775,0,0,0,.726,1.816A6.219,6.219,0,0,0,111.4,36.317Zm-45.278,217.3a22.015,22.015,0,0,0-1.816-2.784c-.363-.363-.605-.726-.969-1.09a5.263,5.263,0,0,0-.726-.847l-.726-.726a11.919,11.919,0,0,0-2.058,2.179,12.522,12.522,0,0,0-1.332,2.542c-.121.484-.242.969-.363,1.574a4,4,0,0,0,0,1.695,8.784,8.784,0,0,0,1.211,3.39,11.051,11.051,0,0,0,.969,1.574c.121.242.363.484.484.726.242.242.363.484.605.605a30.766,30.766,0,0,0,2.785,2.663A13.11,13.11,0,0,0,66,262.694a9.228,9.228,0,0,0,1.332-5.932,8.916,8.916,0,0,0-.484-1.695A7.958,7.958,0,0,0,66.123,253.615ZM81.861,44.065c-.726.363-1.332.605-1.695.847a4.369,4.369,0,0,0-.605.484,6.062,6.062,0,0,0,1.211,1.695,9.047,9.047,0,0,0,1.574,1.332,9.092,9.092,0,0,0,2.179.847,8.7,8.7,0,0,0,4.722-.847,13.523,13.523,0,0,0,2.3-1.09,9.851,9.851,0,0,0-1.09-1.816,6.135,6.135,0,0,0-3.632-2.3A8.335,8.335,0,0,0,81.861,44.065Zm-6.78,4.963a10.113,10.113,0,0,0-2.3.968,9.585,9.585,0,0,0-2.3,1.574,7.431,7.431,0,0,0,1.453,1.695,6.5,6.5,0,0,0,4,1.816A10.119,10.119,0,0,0,80.65,53.87a13.691,13.691,0,0,0,2.3-1.332,7.686,7.686,0,0,0-1.211-1.816,6.017,6.017,0,0,0-3.874-2.058A7.063,7.063,0,0,0,75.081,49.028ZM91.062,38.859a7.806,7.806,0,0,0-1.695.726l-.726.363a9.849,9.849,0,0,0,1.09,1.816,5.818,5.818,0,0,0,3.511,2.3,8.812,8.812,0,0,0,4.722-.484c.726-.242,1.332-.484,1.695-.605a3.575,3.575,0,0,0,.726-.363,6.225,6.225,0,0,0-.969-1.816,5.886,5.886,0,0,0-3.39-2.542A11.244,11.244,0,0,0,91.062,38.859ZM74.718,259.789a19.122,19.122,0,0,0-1.937-1.695c-.242-.242-.484-.363-.605-.484a.375.375,0,0,0-.242-.121,13.114,13.114,0,0,0-1.816,2.421,8.24,8.24,0,0,0-1.09,6.053,9.586,9.586,0,0,0,1.574,3.39,12.826,12.826,0,0,0,1.211,1.453,11.413,11.413,0,0,0,1.211,1.211A18.191,18.191,0,0,0,75.2,273.71a2.534,2.534,0,0,0,.726.484.375.375,0,0,0,.242.121,15.065,15.065,0,0,0,1.574-2.663,9.4,9.4,0,0,0,.605-6.174,8.558,8.558,0,0,0-1.574-3.147A14.507,14.507,0,0,0,74.718,259.789Zm39.951,21.185a27.673,27.673,0,0,0-2.906-1.816,11.037,11.037,0,0,0-2.421-.968c-.605-.242-.969-.363-.969-.363a13.214,13.214,0,0,0-.969,3.026,12.162,12.162,0,0,0-.121,3.027,8.689,8.689,0,0,0,1.09,3.268,12.244,12.244,0,0,0,5.932,4.6,28.184,28.184,0,0,0,3.874,1.211,12.615,12.615,0,0,0,.605-3.147,10.435,10.435,0,0,0-1.453-6.295A17.51,17.51,0,0,0,114.67,280.974Zm50.847,3.269-1.453.363a18.375,18.375,0,0,0-3.39,1.09,10.216,10.216,0,0,0-6.174,7.869,10.019,10.019,0,0,0-.121,3.269,21.844,21.844,0,0,0,4.237-.242c2.3-.484,5.206-1.332,7.022-3.148a8.943,8.943,0,0,0,2.421-6.174,11.018,11.018,0,0,0-.242-3.268,7.474,7.474,0,0,0-1.09.121C166.486,284.121,166,284.242,165.517,284.242Zm12.833-1.695c-.484.242-1.09.363-1.574.605s-1.09.484-1.574.726a10.6,10.6,0,0,0-2.906,2.3,10.1,10.1,0,0,0-.969,1.453c-.242.484-.484.968-.726,1.574a9.27,9.27,0,0,0-.484,3.026,11.726,11.726,0,0,0,.242,3.268,8.151,8.151,0,0,0,1.211-.121,6.249,6.249,0,0,0,1.332-.242,11.243,11.243,0,0,0,1.574-.484c2.3-.726,4.964-1.816,6.537-3.874a9.093,9.093,0,0,0,1.695-6.295,14.567,14.567,0,0,0-.605-3.269S180.408,281.821,178.35,282.548Zm-35.109,3.269a18.367,18.367,0,0,0-3.39-1.089c-.484-.121-1.09-.242-1.453-.363-.484-.121-.847-.121-1.211-.242A7.475,7.475,0,0,0,136.1,284a11.726,11.726,0,0,0-.242,3.269,9.544,9.544,0,0,0,2.421,6.174c1.816,1.816,4.722,2.663,7.022,3.148a21.662,21.662,0,0,0,4.237.242,11.2,11.2,0,0,0-3.148-9.079A16.935,16.935,0,0,0,143.241,285.816ZM98.568,274.074a10.66,10.66,0,0,1-1.211-.726c-.363-.242-.726-.363-1.09-.605a5.52,5.52,0,0,0-.969-.484,18.014,18.014,0,0,0-1.332,2.905,8.778,8.778,0,0,0,.242,6.295,13.418,13.418,0,0,0,5.327,5.084,21.659,21.659,0,0,0,3.753,1.574,13.216,13.216,0,0,0,.969-3.026,9.777,9.777,0,0,0-.726-6.295,13.035,13.035,0,0,0-2.179-2.905C100.384,275.284,99.415,274.558,98.568,274.074ZM87.43,268.626c-.363-.363-.847-.726-1.211-1.09a17.062,17.062,0,0,0-3.027-2.058,15.064,15.064,0,0,0-1.574,2.663,8.8,8.8,0,0,0-.484,6.174c.726,2.421,2.785,4.237,4.6,5.569a8.134,8.134,0,0,0,1.332.847,10.9,10.9,0,0,0,1.09.605,4.459,4.459,0,0,0,1.09.484,13.269,13.269,0,0,0,1.332-2.905,10.4,10.4,0,0,0,.484-2.905,10.2,10.2,0,0,0-.484-3.268,9.606,9.606,0,0,0-1.816-3.027A4.032,4.032,0,0,1,87.43,268.626Zm107.264,9.321c-.605.242-1.574.605-2.421.968a19.092,19.092,0,0,0-2.906,1.816,10.146,10.146,0,0,0-2.542,2.542,10.256,10.256,0,0,0-1.453,6.3,12.616,12.616,0,0,0,.605,3.148,23.486,23.486,0,0,0,3.874-1.211,12.244,12.244,0,0,0,5.932-4.6,6.986,6.986,0,0,0,1.09-3.269,12.159,12.159,0,0,0-.121-3.026,13.216,13.216,0,0,0-.969-3.026A9.427,9.427,0,0,0,194.694,277.947ZM132.587,288a10.1,10.1,0,0,0-.969-1.453,10.6,10.6,0,0,0-2.906-2.3,9.128,9.128,0,0,0-1.574-.726,8.4,8.4,0,0,0-1.574-.605,22.32,22.32,0,0,0-3.632-.968,12.848,12.848,0,0,0-.605,3.268,9.247,9.247,0,0,0,1.695,6.3c1.574,2.058,4.237,3.147,6.537,3.874.605.121,1.09.363,1.574.484s.969.121,1.332.242a8.153,8.153,0,0,0,1.211.121,11.726,11.726,0,0,0,.242-3.269,14.255,14.255,0,0,0-.484-3.026C133.072,289.085,132.829,288.6,132.587,288ZM250.868,238.12a13.355,13.355,0,0,0-2.058,2.905,13.133,13.133,0,0,0-2.3,6.174,8.765,8.765,0,0,0,1.816,5.569,11.919,11.919,0,0,0,2.058,2.179,3.345,3.345,0,0,0,.726-.726,5.6,5.6,0,0,1,.847-.847,2.64,2.64,0,0,0,.484-.605,2.127,2.127,0,0,1,.484-.605,17.932,17.932,0,0,0,1.695-3.026,7.819,7.819,0,0,0-1.453-9.079A16.925,16.925,0,0,0,250.868,238.12Zm-.726-179.891a15.412,15.412,0,0,0,1.574,2.3c.605.605,1.09,1.211,1.453,1.574l.605.605a7.086,7.086,0,0,0,1.574-1.695,7.236,7.236,0,0,0,.969-1.937,4.435,4.435,0,0,0,.121-2.542,11.661,11.661,0,0,0-2.785-5.084,20.482,20.482,0,0,0-2.3-2.179,7.646,7.646,0,0,0-1.453,1.816,6.532,6.532,0,0,0-.847,4.479A10.274,10.274,0,0,0,250.142,58.229ZM204.984,30.143a16.607,16.607,0,0,0,2.421,1.09,5.842,5.842,0,0,0,.726-1.937,5.774,5.774,0,0,0-.605-4.116,9.571,9.571,0,0,0-4-3.269c-.726-.363-1.332-.605-1.816-.847-.484-.121-.847-.242-.847-.242a12.175,12.175,0,0,0-.605,1.937,5.935,5.935,0,0,0,.847,4.116A10.989,10.989,0,0,0,204.984,30.143Zm54.843,38.98a11.814,11.814,0,0,0,1.332,1.695,7.4,7.4,0,0,0,.605.726,11.126,11.126,0,0,0,1.695-1.574,5.742,5.742,0,0,0,1.453-4.479c-.121-1.937-1.332-3.874-2.3-5.448a18.1,18.1,0,0,0-2.179-2.421,7.084,7.084,0,0,0-1.574,1.695,6.711,6.711,0,0,0-1.211,4.6A11.138,11.138,0,0,0,259.827,69.124ZM232.1,43.823c.605.726,1.211,1.332,1.816,1.937a22.571,22.571,0,0,0,2.3,1.816,12.916,12.916,0,0,0,1.211-1.816,6.033,6.033,0,0,0,.363-4.479,10.93,10.93,0,0,0-3.39-4.358,15.307,15.307,0,0,0-2.542-1.695,7.821,7.821,0,0,0-1.09,1.937,6.245,6.245,0,0,0-.121,4.479A11.371,11.371,0,0,0,232.1,43.823ZM214.912,34.5c.726.363,1.211.726,1.695.968l.726.363a7.876,7.876,0,0,0,.847-1.937,5.343,5.343,0,0,0-.363-4.237,10.134,10.134,0,0,0-3.874-3.632,13.976,13.976,0,0,0-1.816-.968L211.4,24.7a7.724,7.724,0,0,0-.726,1.937,6.092,6.092,0,0,0,.605,4.237A9.514,9.514,0,0,0,214.912,34.5Zm53.632,46a5.532,5.532,0,0,1,.484.726,6.679,6.679,0,0,0,1.816-1.453,6.206,6.206,0,0,0,1.937-4.479,11.84,11.84,0,0,0-1.937-5.69,17.149,17.149,0,0,0-1.332-1.937,7.415,7.415,0,0,0-.605-.726,11.127,11.127,0,0,0-1.695,1.574A6.479,6.479,0,0,0,265.638,73a11.657,11.657,0,0,0,1.816,5.448A7.872,7.872,0,0,0,268.543,80.5Zm-44.068-40.8a9.744,9.744,0,0,0,1.695,1.09,3,3,0,0,1,.726.484,6.144,6.144,0,0,0,.969-1.816,9.069,9.069,0,0,0,.484-1.937,5.246,5.246,0,0,0-.484-2.3,11.524,11.524,0,0,0-3.632-3.995,13.122,13.122,0,0,0-2.542-1.453,7.877,7.877,0,0,0-.847,1.937,6.118,6.118,0,0,0,.242,4.358A13.782,13.782,0,0,0,224.476,39.707Zm16.1,9.685A10.641,10.641,0,0,0,241.3,50.6,13.936,13.936,0,0,0,243,52.66a22.763,22.763,0,0,0,2.179,1.937,6.018,6.018,0,0,0,1.332-1.816,5.939,5.939,0,0,0,.726-4.479,11.347,11.347,0,0,0-3.027-4.721,22.95,22.95,0,0,0-2.421-1.937,6.648,6.648,0,0,0-1.211,1.816,6.152,6.152,0,0,0-.484,4.479C240.214,48.544,240.456,48.907,240.577,49.391ZM293,130.5a14.186,14.186,0,0,0-.848,6.295c.121.968.121,1.816.242,2.421a5.484,5.484,0,0,1,.121.968,8.891,8.891,0,0,0,2.542-.484,6.508,6.508,0,0,0,4-3.511c.969-1.937.969-4.479.847-6.658a22.745,22.745,0,0,0-.726-3.632A7.889,7.889,0,0,0,293,130.5Zm4.237,11.137a6.783,6.783,0,0,0-1.937,2.179,9.73,9.73,0,0,0-1.09,3.147,31.434,31.434,0,0,0-.363,3.148,18.228,18.228,0,0,0,.121,3.511,8.636,8.636,0,0,0,2.663-.242,6.706,6.706,0,0,0,4.358-3.147c.242-.484.484-.968.726-1.574a8.915,8.915,0,0,0,.484-1.695,16.555,16.555,0,0,0,.242-3.39v-1.453c0-.484-.121-.847-.121-1.211a7.983,7.983,0,0,0-.242-1.09,8.3,8.3,0,0,0-2.542.484A11.265,11.265,0,0,0,297.236,141.637Zm-.847,15.98a13.931,13.931,0,0,0-1.453,3.026c-.121.242-.121.605-.242.847s-.121.605-.242.847a7.085,7.085,0,0,0-.242,1.574,34.539,34.539,0,0,0-.242,3.632,8.2,8.2,0,0,0,2.663,0,7.274,7.274,0,0,0,4.721-2.784,10.961,10.961,0,0,0,1.574-3.148,16.621,16.621,0,0,0,.605-3.39,23.5,23.5,0,0,0,.121-2.663v-1.089a8.636,8.636,0,0,0-2.663.242A7.267,7.267,0,0,0,296.388,157.617ZM274.112,88.856a18.99,18.99,0,0,0,1.453,2.784,7.356,7.356,0,0,0,2.058-1.332,5.915,5.915,0,0,0,2.3-4.358V84.377c-.121-.484-.242-1.09-.363-1.574a20.619,20.619,0,0,0-1.09-2.905,11.2,11.2,0,0,1-.605-1.211,5.125,5.125,0,0,0-.605-.847c-.363-.484-.605-.847-.605-.847a8.361,8.361,0,0,0-1.937,1.453,7.053,7.053,0,0,0-1.332,1.816,7.823,7.823,0,0,0-.726,2.542A14.85,14.85,0,0,0,274.112,88.856Zm15.375,28.933a13.851,13.851,0,0,0-.242,6.295,18.062,18.062,0,0,0,.484,2.3,8.885,8.885,0,0,0,.242.968,8.861,8.861,0,0,0,2.421-.726,14.519,14.519,0,0,0,2.058-1.332,6.994,6.994,0,0,0,1.574-2.421,9.721,9.721,0,0,0,.484-3.269,14.234,14.234,0,0,0-.363-3.269c-.484-1.937-.969-3.511-.969-3.511a8.618,8.618,0,0,0-2.3.968A6.693,6.693,0,0,0,289.488,117.789Zm-10.169-20.7.363,1.453.363,1.453a23.681,23.681,0,0,0,1.332,3.026,10.276,10.276,0,0,0,2.179-1.09,6.924,6.924,0,0,0,2.784-4.237,13.68,13.68,0,0,0,0-3.147,22.132,22.132,0,0,0-.968-3.026c-.363-.968-.726-1.695-.969-2.3a3.348,3.348,0,0,1-.484-.847,7.356,7.356,0,0,0-2.058,1.332,12.133,12.133,0,0,0-1.574,1.816,5.872,5.872,0,0,0-.969,2.542A8.445,8.445,0,0,0,279.318,97.088Zm5.327,11.5a22.608,22.608,0,0,0,.484,3.026,17.536,17.536,0,0,0,.726,2.3c.242.605.363.847.363.847a8.618,8.618,0,0,0,2.3-.968,6.818,6.818,0,0,0,3.148-3.995,9.712,9.712,0,0,0,.242-3.269,24.172,24.172,0,0,0-.605-3.147,19.925,19.925,0,0,0-1.332-3.269,8.2,8.2,0,0,0-2.179,1.211,7.047,7.047,0,0,0-2.906,4.237A6.455,6.455,0,0,0,284.645,108.588Zm1.574,29.3a11.385,11.385,0,0,0-3.027-5.205,6.775,6.775,0,0,0-4.964-1.453,12.066,12.066,0,0,0-2.542.484,21.386,21.386,0,0,0,.848,3.026,10.263,10.263,0,0,0,3.027,4.963,8.05,8.05,0,0,0,4.843,1.816,12.977,12.977,0,0,0,2.542-.242,5.486,5.486,0,0,0-.121-.969C286.582,139.579,286.461,138.732,286.219,137.884Zm.605,9.806a10,10,0,0,0-1.695-2.663,5.647,5.647,0,0,0-2.421-1.453,21.377,21.377,0,0,0-2.421-.484,15.179,15.179,0,0,0-2.663.242,3.87,3.87,0,0,0,.121.847c0,.242.121.605.121.968a5.328,5.328,0,0,0,.242,1.211,15.332,15.332,0,0,0,.969,2.784,13.188,13.188,0,0,0,.726,1.332,4.737,4.737,0,0,0,.969,1.211,8.831,8.831,0,0,0,7.385,2.3,20.391,20.391,0,0,0-.363-3.39A16.328,16.328,0,0,0,286.824,147.69ZM193,25.422a19.589,19.589,0,0,0,2.179,1.211c1.332.605,2.421.968,2.421.968a7.582,7.582,0,0,0,.484-1.937,5.9,5.9,0,0,0-.969-3.995A9.86,9.86,0,0,0,193,18.764a15.755,15.755,0,0,0-2.663-.847,5.428,5.428,0,0,0-.363,1.937,5.474,5.474,0,0,0,1.09,3.874A8.477,8.477,0,0,0,193,25.422Zm94.189,151.564v-1.574a7.085,7.085,0,0,0-.242-1.574,8.368,8.368,0,0,0-1.211-3.026,7.245,7.245,0,0,0-4.479-2.905,8.747,8.747,0,0,0-2.663-.242,5.483,5.483,0,0,1-.121.968,14.389,14.389,0,0,0,0,2.3,8.137,8.137,0,0,0,.484,2.905,6.822,6.822,0,0,0,.484,1.453,8.14,8.14,0,0,0,.726,1.453,7.666,7.666,0,0,0,4.358,3.147,9.348,9.348,0,0,0,2.663.484Zm.969-9.806a25.856,25.856,0,0,0,0-3.39,6.078,6.078,0,0,0-.242-1.453c0-.242-.121-.484-.121-.726-.121-.242-.121-.484-.242-.726a6.976,6.976,0,0,0-1.574-2.784,7.467,7.467,0,0,0-4.722-2.421,7.916,7.916,0,0,0-2.663,0v.968a8.7,8.7,0,0,0,.242,2.3,14.559,14.559,0,0,0,.726,2.905,11.785,11.785,0,0,0,1.332,2.784,7.946,7.946,0,0,0,4.6,2.663C286.945,167.18,288.156,167.18,288.156,167.18ZM279.8,113.673a10.386,10.386,0,0,0-1.574-2.421,8.9,8.9,0,0,0-2.3-1.937,6.6,6.6,0,0,0-4.964-.484,13.819,13.819,0,0,0-2.3.847,13.717,13.717,0,0,0,1.211,2.663,12.981,12.981,0,0,0,1.574,2.3,7.245,7.245,0,0,0,7.143,2.784,9.374,9.374,0,0,0,2.421-.726s-.121-.363-.242-.847A19.184,19.184,0,0,1,279.8,113.673Zm3.753,11.864a10.679,10.679,0,0,0-3.511-4.842,6.966,6.966,0,0,0-4.964-.968,9.375,9.375,0,0,0-2.421.726,20.813,20.813,0,0,0,1.09,2.905c.363.726.847,1.574,1.332,2.421a8.814,8.814,0,0,0,2.058,2.179,7.691,7.691,0,0,0,2.542,1.09,5.551,5.551,0,0,0,2.421.121,12.065,12.065,0,0,0,2.542-.484,2.91,2.91,0,0,0-.242-.968C284.161,127.11,283.919,126.384,283.555,125.536ZM274.233,101.2a7.834,7.834,0,0,0-.969-1.09,6.61,6.61,0,0,0-4.964-2.179,7.079,7.079,0,0,0-2.3.484,9.939,9.939,0,0,0-2.179,1.09l.363.726a17.754,17.754,0,0,0,1.09,1.816,13.938,13.938,0,0,0,1.695,2.058,16.108,16.108,0,0,0,2.3,1.695,6.853,6.853,0,0,0,4.843.363,13.819,13.819,0,0,0,2.3-.847,14.632,14.632,0,0,0-1.453-2.784A13.212,13.212,0,0,0,274.233,101.2Zm10.654,89.1c0-.484.121-.968.121-1.574a7.988,7.988,0,0,0-.121-1.695,9.515,9.515,0,0,0-.969-3.147,5.715,5.715,0,0,0-1.937-2.179,10.541,10.541,0,0,0-2.3-1.211,13.692,13.692,0,0,0-2.663-.605v.242a2.13,2.13,0,0,1-.121.726,11.144,11.144,0,0,0-.242,2.3,13.272,13.272,0,0,0,.968,6.053,7.827,7.827,0,0,0,4.116,3.632,15.751,15.751,0,0,0,2.664.847S284.645,192.239,284.887,190.3ZM67.7,55.2c-.484.121-.847.242-1.332.363a13.8,13.8,0,0,0-2.3,1.211,11.083,11.083,0,0,0-2.179,1.816,8.116,8.116,0,0,0,1.574,1.574,6.333,6.333,0,0,0,4.116,1.574,12.68,12.68,0,0,0,6.9-3.147A7.43,7.43,0,0,0,73.023,56.9a6.85,6.85,0,0,0-4.116-1.816A4.542,4.542,0,0,0,67.7,55.2Zm212.59,151.685a26.471,26.471,0,0,0,1.09-3.39,6.132,6.132,0,0,0,.242-1.574,7.929,7.929,0,0,0,0-1.695,9.784,9.784,0,0,0-.605-3.269,7.485,7.485,0,0,0-1.816-2.421,12.075,12.075,0,0,0-2.3-1.453,15.759,15.759,0,0,0-2.663-.847.375.375,0,0,1-.121.242,4.278,4.278,0,0,0-.121.726c-.121.605-.363,1.332-.484,2.3a12.429,12.429,0,0,0-.121,3.026,15434.682,15434.682,0,0,0,.242,1.695c.121.484.242,1.09.363,1.574a7.9,7.9,0,0,0,3.753,4.116A10.038,10.038,0,0,0,280.287,206.887ZM133.8,13.2c.363,0,.605-.121.847-.121,2.179,4.963,5.69,14.043,6.3,20.338H165.4c.484-6.295,4.116-15.374,6.3-20.338a2.06,2.06,0,0,0,.847.121,2.421,2.421,0,1,0-2.421-2.421,2.527,2.527,0,0,0,.969,1.937c-3.148,4.358-8.717,11.5-10.412,9.927-1.453-1.211-.605-11.985,0-17.8h0a2.421,2.421,0,1,0-2.421-2.421,2.361,2.361,0,0,0,1.695,2.3c-1.695,5.327-4.479,14.164-6.659,14.164s-4.964-8.716-6.659-14.164a2.475,2.475,0,0,0,1.695-2.3A2.421,2.421,0,1,0,145.9,4.842h0c.605,5.811,1.453,16.585,0,17.8-1.816,1.453-7.264-5.569-10.412-9.927a2.352,2.352,0,0,0,.969-1.937,2.421,2.421,0,0,0-4.843,0A2.1,2.1,0,0,0,133.8,13.2ZM259.948,243.93a6.249,6.249,0,0,1,.726-.847,9.468,9.468,0,0,0,1.453-2.3,24.558,24.558,0,0,0,1.332-3.147,8.493,8.493,0,0,0,.363-3.511,8.052,8.052,0,0,0-2.784-5.084,12.262,12.262,0,0,0-2.421-1.695,16.469,16.469,0,0,0-1.816,3.026c-.242.484-.363.968-.605,1.453s-.363.968-.605,1.574a7.927,7.927,0,0,0-.363,3.39,9.505,9.505,0,0,0,2.421,5.327A11.658,11.658,0,0,0,259.948,243.93Zm5.811-13.437a12.261,12.261,0,0,0,2.421,1.695.375.375,0,0,1,.121-.242,1.972,1.972,0,0,0,.363-.726c.363-.605.726-1.453,1.211-2.421a24.031,24.031,0,0,0,1.09-3.147,8.568,8.568,0,0,0,0-3.511,7.784,7.784,0,0,0-3.269-4.721,13.122,13.122,0,0,0-2.542-1.453,15.792,15.792,0,0,0-1.453,3.148c-.121.484-.363.968-.484,1.453s-.242,1.09-.363,1.574a9.9,9.9,0,0,0-.121,3.269A8.866,8.866,0,0,0,265.759,230.493Zm9.08-10.774a25.245,25.245,0,0,0,1.332-3.39,11.285,11.285,0,0,0,.363-6.658,7.832,7.832,0,0,0-3.632-4.358,9.627,9.627,0,0,0-2.663-1.089,7.206,7.206,0,0,1-.363.847,17.565,17.565,0,0,0-.726,2.3,12.172,12.172,0,0,0-.484,3.026,9.952,9.952,0,0,0,.242,3.269,9.043,9.043,0,0,0,3.39,4.6A10.05,10.05,0,0,0,274.839,219.719Zm29.056-50.844a8.823,8.823,0,0,0-2.785,0,8.116,8.116,0,0,0-4.964,2.663,9.3,9.3,0,0,0-1.695,3.026,7.83,7.83,0,0,0-.484,1.574c-.121.484-.363,1.089-.484,1.574a26.5,26.5,0,0,0-.605,3.632,7.989,7.989,0,0,0,2.663.242,7.458,7.458,0,0,0,5.085-2.3l1.09-1.453a7.394,7.394,0,0,0,.848-1.695,17.833,17.833,0,0,0,.969-3.39c.242-1.089.242-2.058.363-2.784ZM59.706,270.563a24.493,24.493,0,0,0-3.148-2.542c-.484-.363-.969-.605-1.453-.968s-1.09-.605-1.695-.968a10.71,10.71,0,0,0-3.632-1.211,9.159,9.159,0,0,0-1.816-.121,6.138,6.138,0,0,0-1.574.242,8.953,8.953,0,0,0-2.663,1.211,12.619,12.619,0,0,0-2.3,1.937s.363.363.847.968l.969.968a12.85,12.85,0,0,0,1.332,1.089,18.167,18.167,0,0,0,3.39,2.179,12.225,12.225,0,0,0,1.816.847,5.485,5.485,0,0,0,1.937.363,8.125,8.125,0,0,0,5.932-1.816A8.336,8.336,0,0,0,59.706,270.563Zm-13.559-8.716a12.621,12.621,0,0,0,2.3-1.937,6.253,6.253,0,0,0-.726-.847l-.847-.847a2.642,2.642,0,0,0-.605-.484l-.605-.605a30.452,30.452,0,0,0-2.906-2.3,13.023,13.023,0,0,0-3.511-1.574,8.176,8.176,0,0,0-6.053.726,9.61,9.61,0,0,0-2.542,1.695,26.606,26.606,0,0,0,2.784,3.269,15.138,15.138,0,0,0,6.659,4.116A8.57,8.57,0,0,0,46.147,261.847Zm26.029,18.28-.242-.242a1.861,1.861,0,0,0-.726-.484,19.356,19.356,0,0,0-2.542-1.574c-.484-.242-1.09-.605-1.695-.847l-1.816-.726a10.53,10.53,0,0,0-3.753-.847,9.335,9.335,0,0,0-6.053,2.058,12.939,12.939,0,0,0-2.179,2.3l.242.242a4.611,4.611,0,0,0,.726.605,28.692,28.692,0,0,0,2.542,1.816,16.973,16.973,0,0,0,3.632,1.816,11.822,11.822,0,0,0,4,.847,8.116,8.116,0,0,0,5.811-2.421A9.881,9.881,0,0,0,72.176,280.126ZM36.1,249.862a7.78,7.78,0,0,0,2.421-1.695s-.242-.363-.726-.968a21.39,21.39,0,0,0-1.816-2.179,18.016,18.016,0,0,0-2.663-2.542,16.932,16.932,0,0,0-3.148-1.937,8.546,8.546,0,0,0-6.053.121,11.508,11.508,0,0,0-2.663,1.453,25.077,25.077,0,0,0,2.421,3.511,12.823,12.823,0,0,0,1.211,1.453c.484.484.969.847,1.453,1.332a10.657,10.657,0,0,0,3.39,1.937A7.943,7.943,0,0,0,36.1,249.862Zm48.184,41.159a13.016,13.016,0,0,0,1.574-2.663,11.193,11.193,0,0,0-1.09-.605,11.206,11.206,0,0,1-1.211-.605l-1.453-.726a17.623,17.623,0,0,0-7.627-1.695,8.567,8.567,0,0,0-5.811,2.784,8.741,8.741,0,0,0-1.937,2.542,23.49,23.49,0,0,0,3.874,2.3c.605.242,1.211.605,1.816.847a10.228,10.228,0,0,0,2.058.605,11.888,11.888,0,0,0,4.116.363,7.568,7.568,0,0,0,3.39-1.211A7.264,7.264,0,0,0,84.282,291.022ZM27.5,237.151a11.492,11.492,0,0,0,2.542-1.332s-.242-.363-.605-.968-.847-1.453-1.453-2.3a22.533,22.533,0,0,0-2.3-2.663,10.17,10.17,0,0,0-2.906-2.179,8.753,8.753,0,0,0-5.932-.605,8.862,8.862,0,0,0-2.663,1.089,23.528,23.528,0,0,0,2.058,3.632l1.09,1.453a14.5,14.5,0,0,0,1.332,1.453,9.213,9.213,0,0,0,3.148,2.179A6.335,6.335,0,0,0,27.5,237.151Zm88.741,62.95a39.138,39.138,0,0,0-4.237-1.089c-2.421-.363-5.448-.726-7.99.121a8,8,0,0,0-3.148,1.816,17.612,17.612,0,0,0-2.058,2.3,12.407,12.407,0,0,0-1.332,2.905,10.181,10.181,0,0,0,1.211.484c.847.242,1.937.605,3.148.968,1.332.242,2.785.484,4.237.605a12.392,12.392,0,0,0,4.237-.605,8.474,8.474,0,0,0,4.843-4.479A10.9,10.9,0,0,0,116.244,300.1Zm-16.949-2.179a12.408,12.408,0,0,0,1.332-2.905,22.948,22.948,0,0,0-4-1.453,17.031,17.031,0,0,0-7.869-.847,9.561,9.561,0,0,0-5.569,3.39,8.235,8.235,0,0,0-1.574,2.784l1.211.605a14.2,14.2,0,0,0,1.332.605c.484.242,1.09.484,1.695.726a20.5,20.5,0,0,0,4.116.969,9.954,9.954,0,0,0,4.237-.121A7.953,7.953,0,0,0,99.294,297.922ZM2.079,177.954a11.357,11.357,0,0,0,1.09,1.453,7.458,7.458,0,0,0,5.085,2.3,7.41,7.41,0,0,0,2.663-.242,26.482,26.482,0,0,0-.605-3.632,11.246,11.246,0,0,0-.484-1.574c-.121-.484-.363-1.09-.484-1.574a10.734,10.734,0,0,0-1.695-3.026A8.116,8.116,0,0,0,2.684,169,8.822,8.822,0,0,0-.1,169v1.09a13.5,13.5,0,0,0,.363,2.784,17.835,17.835,0,0,0,.969,3.39C1.474,176.865,1.837,177.47,2.079,177.954Zm18.4,45.881a8.861,8.861,0,0,0,2.663-1.09,24.371,24.371,0,0,0-1.695-3.39c-1.211-1.816-2.663-4.116-4.6-5.327a8.1,8.1,0,0,0-5.811-1.089,10.465,10.465,0,0,0-2.784.847,9.42,9.42,0,0,0,.363,1.09c.242.726.726,1.574,1.211,2.663a22.1,22.1,0,0,0,1.937,3.147,13.6,13.6,0,0,0,2.784,2.542A8.753,8.753,0,0,0,20.481,223.835ZM.869,161.611a9.61,9.61,0,0,0,1.574,3.147,7.274,7.274,0,0,0,4.722,2.784,8.2,8.2,0,0,0,2.663,0,16.056,16.056,0,0,0-.242-3.632c-.121-.484-.121-1.089-.242-1.574a3.079,3.079,0,0,0-.242-.847c-.121-.242-.121-.605-.242-.847a8.771,8.771,0,0,0-1.453-3.026,8.069,8.069,0,0,0-4.6-3.026,8.636,8.636,0,0,0-2.663-.242v1.089A21.465,21.465,0,0,0,.263,158.1,16.366,16.366,0,0,0,.869,161.611ZM60.675,62.223a6.718,6.718,0,0,0-2.663.726,14.8,14.8,0,0,0-2.3,1.453c-.605.484-1.211.968-1.574,1.332l-.605.605a8.574,8.574,0,0,0,1.695,1.453,7.237,7.237,0,0,0,1.937.968A5.352,5.352,0,0,0,59.585,69a9.293,9.293,0,0,0,4.722-2.058,9.976,9.976,0,0,0,2.058-1.695,8.116,8.116,0,0,0-1.574-1.574A5.324,5.324,0,0,0,60.675,62.223ZM2.2,148.9c.242.605.484,1.09.726,1.574a7,7,0,0,0,4.358,3.147,8.636,8.636,0,0,0,2.663.242,18.231,18.231,0,0,0,.121-3.511,31.441,31.441,0,0,0-.363-3.147,13.827,13.827,0,0,0-1.09-3.147,6.916,6.916,0,0,0-1.937-2.179A6.567,6.567,0,0,0,4.5,140.668a8.89,8.89,0,0,0-2.542-.484,7.979,7.979,0,0,0-.242,1.09c0,.363-.121.726-.121,1.211v1.453c0,1.09.121,2.179.242,3.39A3.727,3.727,0,0,0,2.2,148.9Zm7.022,59.8a7.22,7.22,0,0,0,5.569,1.332,11.524,11.524,0,0,0,2.663-.726,17.577,17.577,0,0,0-1.332-3.511l-.726-1.453c-.242-.484-.605-1.09-.847-1.574a12.152,12.152,0,0,0-2.3-2.663,8.182,8.182,0,0,0-2.906-1.453,6.851,6.851,0,0,0-2.663-.242A14.668,14.668,0,0,0,3.9,198.9v.363a3.08,3.08,0,0,0,.242.847,18.389,18.389,0,0,0,.969,2.663,20.138,20.138,0,0,0,1.574,3.269c.121.242.363.484.484.726.242.242.363.484.605.726A15.374,15.374,0,0,1,9.222,208.7ZM5.469,194.055a7.136,7.136,0,0,0,5.327,1.816,14.667,14.667,0,0,0,2.784-.484,22.323,22.323,0,0,0-.969-3.632,13.58,13.58,0,0,0-.605-1.574c-.242-.484-.484-1.09-.726-1.574a7.961,7.961,0,0,0-2.058-2.784,7.1,7.1,0,0,0-2.663-1.695,7.172,7.172,0,0,0-2.542-.484,8.433,8.433,0,0,0-2.784.242v.363a2.363,2.363,0,0,0,.121.847c.121.726.363,1.695.605,2.784C2.684,189.939,3.653,192.481,5.469,194.055ZM131.256,303.127c-.363,0-.847-.121-1.332-.121a7.445,7.445,0,0,0-1.695-.121,19.072,19.072,0,0,0-8.111,1.09A8.927,8.927,0,0,0,115.4,308.7a9.586,9.586,0,0,0-.969,3.147,35.708,35.708,0,0,0,4.722.969,11.083,11.083,0,0,0,2.058.121,13.165,13.165,0,0,0,2.179-.121,12.88,12.88,0,0,0,4.237-1.09,5.08,5.08,0,0,0,1.695-1.089,6.346,6.346,0,0,0,1.211-1.332,8.822,8.822,0,0,0,1.453-2.784,11.448,11.448,0,0,0,.605-3.269A10.481,10.481,0,0,1,131.256,303.127Zm163.2-104.715a8.183,8.183,0,0,0-2.906,1.453,9.612,9.612,0,0,0-2.3,2.663,6.522,6.522,0,0,0-.847,1.574l-.726,1.453a36.713,36.713,0,0,0-1.332,3.511,7.11,7.11,0,0,0,2.663.726,7.22,7.22,0,0,0,5.569-1.332,6.345,6.345,0,0,0,1.332-1.211c.242-.242.363-.484.605-.726a2.531,2.531,0,0,0,.484-.726,13.453,13.453,0,0,0,1.574-3.269c.363-1.09.726-2.058.969-2.663a7.7,7.7,0,0,1,.242-.847v-.363a8.274,8.274,0,0,0-2.784-.484A6.445,6.445,0,0,0,294.451,198.413Zm-34.14,67.55a10.947,10.947,0,0,0-2.663-1.211,7.087,7.087,0,0,0-1.574-.242,9.166,9.166,0,0,0-1.816.121,9.911,9.911,0,0,0-3.632,1.211,12.1,12.1,0,0,0-1.695.969,10.1,10.1,0,0,1-1.453.968,24.5,24.5,0,0,0-3.148,2.542,11.188,11.188,0,0,0,2.058,2.179,8.125,8.125,0,0,0,5.932,1.816c.605-.121,1.332-.242,1.937-.363a12.211,12.211,0,0,0,1.816-.847,32.386,32.386,0,0,0,3.39-2.179,12.865,12.865,0,0,0,1.332-1.09l.969-.969a7.307,7.307,0,0,0,.847-.968A12.618,12.618,0,0,0,260.311,265.963Zm13.317-25.422a13.726,13.726,0,0,0-3.148,1.937,17.777,17.777,0,0,0-2.663,2.542q-1.09,1.271-1.816,2.179c-.484.605-.726.969-.726.969a10.263,10.263,0,0,0,2.421,1.695,7.764,7.764,0,0,0,6.053.484,10.657,10.657,0,0,0,3.39-1.937,14.5,14.5,0,0,0,1.453-1.332,12.821,12.821,0,0,0,1.211-1.453,30.678,30.678,0,0,0,2.421-3.511,8.912,8.912,0,0,0-2.663-1.453A8.246,8.246,0,0,0,273.628,240.541Zm-9.08,12.469a13.025,13.025,0,0,0-3.511,1.574,18.707,18.707,0,0,0-2.906,2.3l-.605.605c-.242.121-.363.363-.605.484l-.847.847a6.256,6.256,0,0,0-.726.847,12.62,12.62,0,0,0,2.3,1.937,8,8,0,0,0,6.053,1.211,16.64,16.64,0,0,0,6.659-4.116,26.6,26.6,0,0,0,2.784-3.269,9.611,9.611,0,0,0-2.542-1.695A8.809,8.809,0,0,0,264.548,253.01Zm16.586-25.664a10.17,10.17,0,0,0-2.906,2.179,22.539,22.539,0,0,0-2.3,2.663,13.739,13.739,0,0,0-1.453,2.3c-.363.605-.605.968-.605.968a7.563,7.563,0,0,0,2.542,1.332,7.757,7.757,0,0,0,5.932-.121,13.356,13.356,0,0,0,3.148-2.179c.484-.484.847-.968,1.332-1.453l1.09-1.453a23.524,23.524,0,0,0,2.058-3.632,8.861,8.861,0,0,0-2.663-1.09A8.485,8.485,0,0,0,281.134,227.345Zm5.932-13.558c-2.058,1.211-3.511,3.511-4.6,5.327a24.373,24.373,0,0,0-1.695,3.39,8.862,8.862,0,0,0,2.663,1.09,7.842,7.842,0,0,0,5.811-.726,7.978,7.978,0,0,0,2.785-2.542,22.109,22.109,0,0,0,1.937-3.148,23.6,23.6,0,0,0,1.211-2.663l.363-1.09a8.807,8.807,0,0,0-2.785-.847A8.142,8.142,0,0,0,287.066,213.787ZM299.9,183.4a9.43,9.43,0,0,0-2.542.484,7.094,7.094,0,0,0-2.663,1.695,15.038,15.038,0,0,0-2.058,2.784c-.242.484-.484,1.09-.726,1.574a8.407,8.407,0,0,0-.605,1.574,19.36,19.36,0,0,0-.969,3.632,8.562,8.562,0,0,0,8.111-1.332c1.816-1.574,2.784-4.116,3.39-6.295a16.806,16.806,0,0,0,.605-2.784,2.363,2.363,0,0,0,.121-.847v-.363S301.473,183.4,299.9,183.4ZM9.464,125.415a5.468,5.468,0,0,0,2.058,1.332,8.861,8.861,0,0,0,2.421.726,8.893,8.893,0,0,0,.242-.968c.121-.605.363-1.453.484-2.3a13.91,13.91,0,0,0-.242-6.295,7.544,7.544,0,0,0-3.39-3.995,8.618,8.618,0,0,0-2.3-.968,18.357,18.357,0,0,0-.969,3.511,14.233,14.233,0,0,0-.363,3.269,9.721,9.721,0,0,0,.484,3.269A6.994,6.994,0,0,0,9.464,125.415Zm219.854,159.19a18.024,18.024,0,0,0-7.627,1.695,16.2,16.2,0,0,0-1.453.726,29.946,29.946,0,0,0-2.3,1.211,10.228,10.228,0,0,0,1.574,2.663,11.819,11.819,0,0,0,2.179,2.058,7.568,7.568,0,0,0,3.39,1.211,11.888,11.888,0,0,0,4.116-.363,13.229,13.229,0,0,0,2.058-.605,12.214,12.214,0,0,0,1.816-.847,23.491,23.491,0,0,0,3.874-2.3,10.981,10.981,0,0,0-1.937-2.542A7.455,7.455,0,0,0,229.318,284.606ZM166.97,306.517a17.437,17.437,0,0,0-7.99-2.058,22.689,22.689,0,0,0-4.479,0,12.986,12.986,0,0,0,.242,3.269,9.1,9.1,0,0,0,3.753,5.69,12.113,12.113,0,0,0,4.116,1.574,28.217,28.217,0,0,0,4.358.484,9.781,9.781,0,0,0,1.937-.121c.605,0,1.09-.121,1.574-.121.847-.121,1.332-.242,1.332-.242a11.448,11.448,0,0,0-.605-3.269A9.4,9.4,0,0,0,166.97,306.517Zm16.828-2.784a20.875,20.875,0,0,0-8.111-1.089c-.605,0-1.211.121-1.695.121s-.968.121-1.332.121c-.726.121-1.211.242-1.211.242a11.448,11.448,0,0,0,.605,3.269,12.358,12.358,0,0,0,1.453,2.784,12.059,12.059,0,0,0,1.211,1.332c.484.363,1.09.726,1.695,1.089a11.492,11.492,0,0,0,4.237,1.09,13.152,13.152,0,0,0,2.179.121c.726,0,1.453-.121,2.058-.121a35.684,35.684,0,0,0,4.722-.968,9.586,9.586,0,0,0-.969-3.148A9.425,9.425,0,0,0,183.8,303.733Zm64.649-26.512a8.864,8.864,0,0,0-6.053-2.058,9.982,9.982,0,0,0-3.753.847l-1.816.726c-.605.242-1.09.605-1.695.847-.969.605-1.937,1.09-2.542,1.574a7.393,7.393,0,0,1-.726.484l-.242.242a9.289,9.289,0,0,0,1.937,2.421,8.116,8.116,0,0,0,5.811,2.421,11.823,11.823,0,0,0,4-.847,25.4,25.4,0,0,0,3.632-1.816q1.634-1.09,2.542-1.816a4.607,4.607,0,0,0,.726-.605l.242-.242A17.5,17.5,0,0,0,248.447,277.221Zm-41.162,13.8,5.811-2.663,5.569-2.905c1.816-.968,3.632-2.058,5.448-3.148a137.023,137.023,0,0,0,20.339-14.89A140.053,140.053,0,0,0,291.3,180.5a141.4,141.4,0,0,0-2.3-50.118A140.373,140.373,0,0,0,269.27,84.256a140.972,140.972,0,0,0-78.813-57.744l-10.533-2.542s1.453,3.753,4.6,4.842c2.058.726,4.358-.121,5.69-.726A139.219,139.219,0,0,1,267.7,85.345a137.7,137.7,0,0,1,19.249,45.518A136.806,136.806,0,0,1,289,180.133a139.451,139.451,0,0,1-15.375,46.849,140.3,140.3,0,0,1-50.847,52.9c-1.816.968-3.511,2.058-5.327,3.026l-5.569,2.784-5.69,2.542c-1.937.847-3.874,1.574-5.69,2.3a143.842,143.842,0,0,1-48.426,8.716h0a139.61,139.61,0,0,1-48.3-8.6c-1.937-.726-3.874-1.453-5.69-2.3l-5.69-2.542-5.448-2.784c-1.816-.969-3.632-2.058-5.327-3.026a137.91,137.91,0,0,1-19.976-14.527,137.845,137.845,0,0,1-47.457-109.8,138.377,138.377,0,0,1,56.3-105.8,136.8,136.8,0,0,1,43.583-21.427,7.745,7.745,0,0,0,5.327.605c3.027-.968,4.6-4.842,4.6-4.842s-3.511-2.179-6.538-1.211A7.792,7.792,0,0,0,113.338,27,140,140,0,0,0,15.154,130.621a140.9,140.9,0,0,0-2.3,50,141.277,141.277,0,0,0,15.375,47.7,144.075,144.075,0,0,0,31.235,39.223A137.025,137.025,0,0,0,79.8,282.427c1.816,1.09,3.632,2.179,5.448,3.147l5.569,2.905,5.69,2.663c1.937.847,3.874,1.574,5.811,2.3a143.32,143.32,0,0,0,49.395,9.079h0a144.521,144.521,0,0,0,49.516-9.079C203.41,292.6,205.347,291.869,207.284,291.022Zm-4.237,9.806a11.307,11.307,0,0,0-3.148-1.816c-2.542-.847-5.569-.484-7.99-.121a21.037,21.037,0,0,0-4.237,1.089,13.3,13.3,0,0,0,.968,3.026,8.87,8.87,0,0,0,4.843,4.479,12.393,12.393,0,0,0,4.237.605c1.453-.121,2.906-.363,4.237-.605a12.177,12.177,0,0,0,3.148-.968,6.6,6.6,0,0,1,1.211-.484,12.406,12.406,0,0,0-1.332-2.905A4.974,4.974,0,0,0,203.047,300.827ZM144.815,304.7a17.436,17.436,0,0,0-7.99,2.058,9.23,9.23,0,0,0-4.237,5.327,11.448,11.448,0,0,0-.605,3.269s.484.121,1.332.242c.484,0,.968.121,1.574.121s1.211.121,1.937.121a18.492,18.492,0,0,0,4.358-.484,12.114,12.114,0,0,0,4.116-1.574,8.631,8.631,0,0,0,3.753-5.69,12.985,12.985,0,0,0,.242-3.268A28.956,28.956,0,0,0,144.815,304.7ZM215.154,292.6a17.032,17.032,0,0,0-7.869.847,22.949,22.949,0,0,0-4,1.453,12.406,12.406,0,0,0,1.332,2.905,8.4,8.4,0,0,0,5.327,3.874,12.374,12.374,0,0,0,4.237.121,40.952,40.952,0,0,0,4.116-.968c.605-.242,1.211-.484,1.695-.726a11.789,11.789,0,0,1,1.332-.605l1.211-.605a12.049,12.049,0,0,0-1.574-2.784A10.535,10.535,0,0,0,215.154,292.6ZM8.738,139.942a8.89,8.89,0,0,0,2.542.484,3.35,3.35,0,0,0,.121-.968c.121-.605.121-1.453.242-2.421a14.187,14.187,0,0,0-.847-6.295,8.02,8.02,0,0,0-3.753-3.753,8.861,8.861,0,0,0-2.421-.726,22.743,22.743,0,0,0-.726,3.632,14.092,14.092,0,0,0,.847,6.658A7.01,7.01,0,0,0,8.738,139.942Zm10.9,53.992a8.5,8.5,0,0,0,2.663-.847,8.381,8.381,0,0,0,4.116-3.632,12.036,12.036,0,0,0,.969-6.053,11.142,11.142,0,0,0-.242-2.3c0-.242-.121-.484-.121-.726v-.242a7.66,7.66,0,0,0-2.663.605,7.051,7.051,0,0,0-2.3,1.211,5.716,5.716,0,0,0-1.937,2.179,9.517,9.517,0,0,0-.969,3.148,7.991,7.991,0,0,0-.121,1.695,6.9,6.9,0,0,0,.121,1.574A11.822,11.822,0,0,0,19.634,193.934Zm-3.511-43.1a19.344,19.344,0,0,0-.363,3.39,7.915,7.915,0,0,0,2.663,0,7.557,7.557,0,0,0,4.722-2.3,10.588,10.588,0,0,0,.969-1.211c.242-.484.484-.847.726-1.332a12.706,12.706,0,0,0,.969-2.784c.121-.484.121-.847.242-1.211a3.008,3.008,0,0,0,.121-.968,5.064,5.064,0,0,0,.121-.847,13.541,13.541,0,0,0-2.663-.242,6.157,6.157,0,0,0-2.421.484,5.647,5.647,0,0,0-2.421,1.453,7.694,7.694,0,0,0-1.695,2.663A10.233,10.233,0,0,0,16.123,150.837Zm-.363,16.585a8.635,8.635,0,0,0,2.663-.242,8.666,8.666,0,0,0,4.6-2.663,8.429,8.429,0,0,0,1.332-2.784,12.769,12.769,0,0,0,.726-2.905c.121-.847.121-1.695.242-2.3v-.968a8.2,8.2,0,0,0-2.663,0,7.467,7.467,0,0,0-4.722,2.421,9.142,9.142,0,0,0-1.574,2.784c-.121.242-.121.484-.242.726,0,.242-.121.484-.121.726-.121.484-.121.968-.242,1.453A31.456,31.456,0,0,0,15.76,167.422Zm4,12.711a8.266,8.266,0,0,0,4.358-3.148l.726-1.453c.121-.484.363-.968.484-1.453a29.043,29.043,0,0,0,.484-2.905v-2.3a3.35,3.35,0,0,0-.121-.968,8.636,8.636,0,0,0-2.663.242,6.945,6.945,0,0,0-4.479,2.905,8.368,8.368,0,0,0-1.211,3.026,7.085,7.085,0,0,0-.242,1.574v1.574a17.392,17.392,0,0,0,.363,3.511A14.717,14.717,0,0,0,19.755,180.133ZM34.04,229.04a14.949,14.949,0,0,0,1.211,2.421c.121.242.363.484.363.726a.375.375,0,0,1,.121.242,8.076,8.076,0,0,0,2.421-1.695,8.806,8.806,0,0,0,2.906-4.963,7.459,7.459,0,0,0-.121-3.269c-.121-.484-.242-1.089-.363-1.574a6.825,6.825,0,0,0-.484-1.453,15.794,15.794,0,0,0-1.453-3.147,13.122,13.122,0,0,0-2.542,1.453A8.158,8.158,0,0,0,32.83,222.5a8.569,8.569,0,0,0,0,3.511A22.531,22.531,0,0,0,34.04,229.04Zm-11.5-25.422a26.466,26.466,0,0,0,1.09,3.39,9.626,9.626,0,0,0,2.663-1.089,8.362,8.362,0,0,0,3.753-4.116,3.351,3.351,0,0,0,.363-1.574c0-.242.121-.484.121-.847a2.363,2.363,0,0,1,.121-.847,23.351,23.351,0,0,0-.121-3.026c-.121-.968-.363-1.695-.484-2.3a1.535,1.535,0,0,1-.121-.726.423.423,0,0,0-.121-.242,8.5,8.5,0,0,0-2.663.847,12.073,12.073,0,0,0-2.3,1.453,6.959,6.959,0,0,0-2.421,5.69v1.695C22.418,202.65,22.539,203.134,22.539,203.618Zm6.416,16.343a9.433,9.433,0,0,0,2.542-1.332,8.558,8.558,0,0,0,3.39-4.6,9.953,9.953,0,0,0,.242-3.269,11.315,11.315,0,0,0-.484-3.026,17.543,17.543,0,0,0-.726-2.3c-.242-.605-.363-.847-.363-.847a9.628,9.628,0,0,0-2.663,1.09,7.39,7.39,0,0,0-3.632,4.358,11.284,11.284,0,0,0,.363,6.658A27.872,27.872,0,0,0,28.956,219.961Zm12.833,21.064a12.667,12.667,0,0,0,1.453,2.3,8.814,8.814,0,0,0,.726.847,16.926,16.926,0,0,0,2.3-1.937,8.767,8.767,0,0,0,2.421-5.327,10.794,10.794,0,0,0-.363-3.39,8.406,8.406,0,0,0-.605-1.574c-.242-.484-.363-.968-.605-1.453a16.467,16.467,0,0,0-1.816-3.026,12.261,12.261,0,0,0-2.421,1.695,8.053,8.053,0,0,0-2.784,5.084,8.494,8.494,0,0,0,.363,3.511A14.037,14.037,0,0,0,41.789,241.025ZM34.525,91.882a13.016,13.016,0,0,0-1.574,2.663,9.939,9.939,0,0,0,2.179,1.09,6.957,6.957,0,0,0,4.722.121,3.787,3.787,0,0,0,1.211-.605,7.35,7.35,0,0,0,1.211-.847,9.1,9.1,0,0,0,1.816-1.937,5.267,5.267,0,0,1,.726-.847,2.533,2.533,0,0,0,.484-.726,3,3,0,0,1,.484-.726,8.141,8.141,0,0,0-2.058-1.211,9.39,9.39,0,0,0-2.179-.605A4.6,4.6,0,0,0,39,88.493,10.524,10.524,0,0,0,34.525,91.882Zm6.416-9.927a13.321,13.321,0,0,0-1.332,1.695,5.536,5.536,0,0,0-.484.726,6.031,6.031,0,0,0,2.058,1.211,6.481,6.481,0,0,0,4.6.484,9.638,9.638,0,0,0,4.479-2.905,12.134,12.134,0,0,0,1.332-1.453,2.687,2.687,0,0,0,.484-.605,8.1,8.1,0,0,0-1.937-1.332,6.585,6.585,0,0,0-4.722-.726A9.933,9.933,0,0,0,40.941,81.956ZM52.805,70.213a8.8,8.8,0,0,0-4.722,2.663,15.855,15.855,0,0,0-1.453,1.574,2.077,2.077,0,0,0-.484.726,9.028,9.028,0,0,0,1.816,1.332,6.832,6.832,0,0,0,4.479.847,11.158,11.158,0,0,0,4.6-2.421A17.828,17.828,0,0,0,59.1,73a7.647,7.647,0,0,0-1.816-1.453A5.565,5.565,0,0,0,52.805,70.213ZM25.687,111.373a27.4,27.4,0,0,0-1.574,2.421c-.363.847-.726,1.574-.969,2.058a2.091,2.091,0,0,0-.242.847,9.374,9.374,0,0,0,2.421.726,7.519,7.519,0,0,0,4.964-.847,8.353,8.353,0,0,0,2.179-1.937,12.978,12.978,0,0,0,1.574-2.3,13.714,13.714,0,0,0,1.211-2.663,7.222,7.222,0,0,0-2.3-.847,6.675,6.675,0,0,0-4.964.484A12.658,12.658,0,0,0,25.687,111.373ZM20.36,125.778a11.4,11.4,0,0,0-.726,2.179,8.9,8.9,0,0,1-.242.968,12.068,12.068,0,0,0,2.542.484,17.049,17.049,0,0,0,2.421-.121A7.69,7.69,0,0,0,26.9,128.2a8.813,8.813,0,0,0,2.058-2.179,16.515,16.515,0,0,0,1.332-2.421,20.808,20.808,0,0,0,1.09-2.905,9.375,9.375,0,0,0-2.421-.726,6.966,6.966,0,0,0-4.964.968A10.118,10.118,0,0,0,20.36,125.778Zm9.322-24.332a4.029,4.029,0,0,0-.726,1.211,14.635,14.635,0,0,0-1.453,2.784,7.222,7.222,0,0,0,2.3.847,6.852,6.852,0,0,0,4.843-.363,7.533,7.533,0,0,0,2.3-1.695,9.026,9.026,0,0,0,1.695-2.058,17.767,17.767,0,0,0,1.09-1.816l.363-.726a9.939,9.939,0,0,0-2.179-1.09,10.923,10.923,0,0,0-2.3-.484,6.323,6.323,0,0,0-2.542.484,8,8,0,0,0-2.421,1.695C30.287,100.72,29.924,101.083,29.682,101.446Zm-12.47,38.98a5.485,5.485,0,0,0-.121.969,12.977,12.977,0,0,0,2.542.242,7.58,7.58,0,0,0,4.843-1.816,11.271,11.271,0,0,0,3.027-4.963,21.384,21.384,0,0,0,.847-3.026,12.066,12.066,0,0,0-2.542-.484,6.775,6.775,0,0,0-4.964,1.453,10.416,10.416,0,0,0-3.027,5.205A5.4,5.4,0,0,0,17.212,140.426ZM67.7,47.818A22.574,22.574,0,0,0,70,46a14.186,14.186,0,0,0,1.816-1.937,7.53,7.53,0,0,0,1.332-2.3,6.245,6.245,0,0,0-.121-4.479,7.822,7.822,0,0,0-1.09-1.937,15.307,15.307,0,0,0-2.542,1.695A10.93,10.93,0,0,0,66,41.4a6.169,6.169,0,0,0,.363,4.479A8.1,8.1,0,0,0,67.7,47.818ZM42.152,71.787a7.412,7.412,0,0,0,.605-.726c.363-.484.847-1.09,1.332-1.695a11.686,11.686,0,0,0,2.179-5.205,6.712,6.712,0,0,0-1.211-4.6,7.085,7.085,0,0,0-1.574-1.695A18.092,18.092,0,0,0,41.3,60.287,10.988,10.988,0,0,0,39,65.734a6.827,6.827,0,0,0,1.453,4.479A6.532,6.532,0,0,0,42.152,71.787Zm6.416-10.532a7.085,7.085,0,0,0,1.574,1.695l.605-.605c.363-.363.847-.968,1.453-1.574a18.908,18.908,0,0,0,1.574-2.3,7.9,7.9,0,0,0,.969-2.663,6.532,6.532,0,0,0-.847-4.479,7.359,7.359,0,0,0-1.453-1.816,20.479,20.479,0,0,0-2.3,2.179,11.661,11.661,0,0,0-2.785,5.084,5.814,5.814,0,0,0,.121,2.542A13.821,13.821,0,0,0,48.568,61.255ZM58.617,54.96s.969-.847,2.179-1.937a13.935,13.935,0,0,0,1.695-2.058c.242-.363.484-.847.726-1.211a4.336,4.336,0,0,0,.484-1.332,6.071,6.071,0,0,0-.484-4.479,7.491,7.491,0,0,0-1.211-1.816,22.952,22.952,0,0,0-2.421,1.937,10.274,10.274,0,0,0-3.027,4.721,5.939,5.939,0,0,0,.726,4.479A10.709,10.709,0,0,0,58.617,54.96ZM26.171,90.672A13.82,13.82,0,0,0,28.229,92s.726-1.211,1.453-2.784c.726-1.695,1.574-3.753,1.332-5.811a7.824,7.824,0,0,0-.726-2.542,7.053,7.053,0,0,0-1.332-1.816A8.36,8.36,0,0,0,27.019,77.6a4.79,4.79,0,0,0-.605.847,3.679,3.679,0,0,1-.605.847A11.247,11.247,0,0,0,25.2,80.5a16.184,16.184,0,0,0-1.09,2.905c-.121.484-.242,1.09-.363,1.574a3.455,3.455,0,0,0,0,1.574A8.134,8.134,0,0,0,26.171,90.672ZM20.36,102.051a6.112,6.112,0,0,0,2.179,1.09,16.762,16.762,0,0,0,1.332-3.026c.121-.484.242-.847.363-1.453l.363-1.453a8.494,8.494,0,0,0,.121-3.026,5.872,5.872,0,0,0-.969-2.542,7.736,7.736,0,0,0-1.574-1.816,7.356,7.356,0,0,0-2.058-1.332,8.758,8.758,0,0,0-.484.847,14.609,14.609,0,0,0-.969,2.3c-.242.968-.726,1.937-.969,3.026a6.9,6.9,0,0,0,0,3.147A5.946,5.946,0,0,0,20.36,102.051Zm14.528-20.58a3,3,0,0,0,.484-.726,19.089,19.089,0,0,0,1.211-1.937A12.134,12.134,0,0,0,38.4,73.361a6.267,6.267,0,0,0-1.574-4.479,6.532,6.532,0,0,0-1.695-1.574,7.414,7.414,0,0,0-.605.726,17.158,17.158,0,0,0-1.332,1.937,11.841,11.841,0,0,0-1.937,5.69,6.206,6.206,0,0,0,1.937,4.479A6.139,6.139,0,0,0,34.888,81.472ZM15.4,114.036a8.619,8.619,0,0,0,2.3.968,7.2,7.2,0,0,1,.363-.847,17.548,17.548,0,0,0,.726-2.3,22.592,22.592,0,0,0,.484-3.026,9.06,9.06,0,0,0-.121-3.147,7.59,7.59,0,0,0-2.906-4.237,10.944,10.944,0,0,0-2.179-1.211,19.933,19.933,0,0,0-1.332,3.269,13.184,13.184,0,0,0-.605,3.147,9.953,9.953,0,0,0,.242,3.269A5.574,5.574,0,0,0,15.4,114.036Zm90.92-86.314a10.289,10.289,0,0,0,2.421-.968,19.586,19.586,0,0,0,2.179-1.211,6.074,6.074,0,0,0,1.816-1.695,5.624,5.624,0,0,0,1.09-3.874,4.406,4.406,0,0,0-.363-1.816,15.755,15.755,0,0,0-2.663.847,8.89,8.89,0,0,0-4.116,2.905,5.636,5.636,0,0,0-.969,3.995A8.652,8.652,0,0,0,106.316,27.722ZM50.989,252.283a2.64,2.64,0,0,0,.484.605c.121.242.363.363.484.605a5.592,5.592,0,0,0,.847.847l.726.726a11.918,11.918,0,0,0,2.058-2.179,9.02,9.02,0,0,0,1.816-5.569,11.578,11.578,0,0,0-2.3-6.174,18.63,18.63,0,0,0-2.058-2.905,16.926,16.926,0,0,0-2.3,1.937,8.453,8.453,0,0,0-2.3,5.569,8.8,8.8,0,0,0,.847,3.511A9.3,9.3,0,0,0,50.989,252.283Zm45.4-220.808a16.6,16.6,0,0,0,2.421-1.09,10.618,10.618,0,0,0,3.874-3.147,5.935,5.935,0,0,0,.847-4.116,4.574,4.574,0,0,0-.605-1.937,3.784,3.784,0,0,1-.847.242,11.3,11.3,0,0,0-1.816.847,9.571,9.571,0,0,0-4,3.269,5.774,5.774,0,0,0-.605,4.116A5.873,5.873,0,0,0,96.389,31.475Zm-9.806,4.6.726-.363c.484-.242,1.09-.605,1.695-.968a10.1,10.1,0,0,0,3.632-3.511A6.016,6.016,0,0,0,93.241,27a5.842,5.842,0,0,0-.726-1.937l-.726.363a8.983,8.983,0,0,0-1.816.968A10.134,10.134,0,0,0,86.1,30.022a5.913,5.913,0,0,0-.363,4.237A14.179,14.179,0,0,0,86.583,36.075ZM75.929,39.586A13.44,13.44,0,0,0,76.9,41.4a5.537,5.537,0,0,0,.726-.484c.363-.242.969-.605,1.695-1.09a12.045,12.045,0,0,0,3.511-3.874,6.118,6.118,0,0,0,.242-4.358,7.877,7.877,0,0,0-.847-1.937,13.122,13.122,0,0,0-2.542,1.453,11.524,11.524,0,0,0-3.632,3.995,5.614,5.614,0,0,0-.484,2.3A5.443,5.443,0,0,0,75.929,39.586Zm89.346-3.269a1.124,1.124,0,0,0,0-2.179H140.941a1.124,1.124,0,0,0,0,2.179Zm95.641,101.688H43v1.211H260.916ZM43,181.586H260.916v-1.211H43Z" transform="translate(18.417 48.476)" fill="#fff"/>
    <g id="Group_473" data-name="Group 473" transform="translate(81.455 105.502)">
      <path id="Path_1045" data-name="Path 1045" d="M111.467,112.872h1.287L96.8,91Z" transform="translate(-44.821 -41.466)" fill="#4b9fa5"/>
      <path id="Path_1046" data-name="Path 1046" d="M84.259,156,82.2,157.287,84.516,156Z" transform="translate(-49.006 -22.836)" fill="#4b9fa5"/>
      <path id="Path_1047" data-name="Path 1047" d="M99.165,110.322h1.029L87.2,99.9Z" transform="translate(-47.573 -38.915)" fill="#4b9fa5"/>
      <path id="Path_1048" data-name="Path 1048" d="M104.124,111.267h1.287L90.1,96.6Z" transform="translate(-46.741 -39.861)" fill="#4b9fa5"/>
      <path id="Path_1049" data-name="Path 1049" d="M108.225,112.1h1.158L93.3,93.7Z" transform="translate(-45.824 -40.692)" fill="#4b9fa5"/>
      <path id="Path_1050" data-name="Path 1050" d="M118.435,114.592h1.415L108.4,85Z" transform="translate(-41.496 -43.185)" fill="#4b9fa5"/>
      <path id="Path_1051" data-name="Path 1051" d="M114.138,113.532h1.415L100.5,88.7Z" transform="translate(-43.761 -42.125)" fill="#4b9fa5"/>
      <path id="Path_1052" data-name="Path 1052" d="M116.494,114.1h1.287L104.4,86.7Z" transform="translate(-42.643 -42.698)" fill="#4b9fa5"/>
      <path id="Path_1053" data-name="Path 1053" d="M111.467,156,96.8,177.872,112.754,156Z" transform="translate(-44.821 -22.836)" fill="#4b9fa5"/>
      <path id="Path_1054" data-name="Path 1054" d="M114.138,156,100.5,180.832,115.553,156Z" transform="translate(-43.761 -22.836)" fill="#4b9fa5"/>
      <path id="Path_1055" data-name="Path 1055" d="M118.435,156,108.4,185.592,119.851,156Z" transform="translate(-41.496 -22.836)" fill="#4b9fa5"/>
      <path id="Path_1056" data-name="Path 1056" d="M116.494,156,104.4,183.4,117.781,156Z" transform="translate(-42.643 -22.836)" fill="#4b9fa5"/>
      <path id="Path_1057" data-name="Path 1057" d="M120.22,156l-7.72,31.265L121.635,156Z" transform="translate(-40.321 -22.836)" fill="#4b9fa5"/>
      <path id="Path_1058" data-name="Path 1058" d="M120.22,114.965h1.415L112.5,83.7Z" transform="translate(-40.321 -43.558)" fill="#4b9fa5"/>
      <path id="Path_1059" data-name="Path 1059" d="M92.734,156,84.5,162.047,93.506,156Z" transform="translate(-48.346 -22.836)" fill="#4b9fa5"/>
      <path id="Path_1060" data-name="Path 1060" d="M104.124,156,90.1,170.667,105.411,156Z" transform="translate(-46.741 -22.836)" fill="#4b9fa5"/>
      <path id="Path_1061" data-name="Path 1061" d="M99.165,156,87.2,166.422,100.195,156Z" transform="translate(-47.573 -22.836)" fill="#4b9fa5"/>
      <path id="Path_1062" data-name="Path 1062" d="M108.225,156,93.3,174.4,109.383,156Z" transform="translate(-45.824 -22.836)" fill="#4b9fa5"/>
      <path id="Path_1063" data-name="Path 1063" d="M169.316,157.287,167.129,156H167Z" transform="translate(-24.701 -22.836)" fill="#4b9fa5"/>
      <path id="Path_1064" data-name="Path 1064" d="M146.387,112.1l14.8-18.4L145.1,112.1Z" transform="translate(-30.978 -40.692)" fill="#4b9fa5"/>
      <path id="Path_1065" data-name="Path 1065" d="M84.5,103.3l8.234,6.047h.772Z" transform="translate(-48.346 -37.94)" fill="#4b9fa5"/>
      <path id="Path_1066" data-name="Path 1066" d="M160.143,109.347l8.234-6.047-8.878,6.047Z" transform="translate(-26.851 -37.94)" fill="#4b9fa5"/>
      <path id="Path_1067" data-name="Path 1067" d="M150.158,111.267,164.182,96.6,149,111.267Z" transform="translate(-29.86 -39.861)" fill="#4b9fa5"/>
      <path id="Path_1068" data-name="Path 1068" d="M154.729,110.322,166.695,99.9,153.7,110.322Z" transform="translate(-28.513 -38.915)" fill="#4b9fa5"/>
      <path id="Path_1069" data-name="Path 1069" d="M141.722,70.5A79.155,79.155,0,0,0,68.9,118.748h4.246a75.167,75.167,0,0,1,137.152,0h4.246A79.291,79.291,0,0,0,141.722,70.5Z" transform="translate(-52.817 -47.341)" fill="#4b9fa5"/>
      <path id="Path_1070" data-name="Path 1070" d="M82.2,107l2.059,1.287h.257Z" transform="translate(-49.006 -36.88)" fill="#4b9fa5"/>
      <path id="Path_1071" data-name="Path 1071" d="M121.818,156,116.8,188.423,123.233,156Z" transform="translate(-39.089 -22.836)" fill="#4b9fa5"/>
      <path id="Path_1072" data-name="Path 1072" d="M168.378,162.047,160.143,156H159.5Z" transform="translate(-26.851 -22.836)" fill="#4b9fa5"/>
      <path id="Path_1073" data-name="Path 1073" d="M130.487,115.223,135.633,82.8,129.2,115.223Z" transform="translate(-35.535 -43.816)" fill="#4b9fa5"/>
      <path id="Path_1074" data-name="Path 1074" d="M121.818,115.223h1.415L116.8,82.8Z" transform="translate(-39.089 -43.816)" fill="#4b9fa5"/>
      <path id="Path_1075" data-name="Path 1075" d="M143.087,112.872,157.754,91,141.8,112.872Z" transform="translate(-31.924 -41.466)" fill="#4b9fa5"/>
      <path id="Path_1076" data-name="Path 1076" d="M128.387,115.395,130.574,82.2,127.1,115.395Z" transform="translate(-36.137 -43.988)" fill="#4b9fa5"/>
      <path id="Path_1077" data-name="Path 1077" d="M121.1,82.2l2.316,33.195H124.7Z" transform="translate(-37.857 -43.988)" fill="#4b9fa5"/>
      <path id="Path_1078" data-name="Path 1078" d="M132.687,114.965l7.72-31.265L131.4,114.965Z" transform="translate(-34.904 -43.558)" fill="#4b9fa5"/>
      <path id="Path_1079" data-name="Path 1079" d="M140.215,113.532,153.853,88.7,138.8,113.532Z" transform="translate(-32.783 -42.125)" fill="#4b9fa5"/>
      <path id="Path_1080" data-name="Path 1080" d="M134.987,114.592,145.151,85,133.7,114.592Z" transform="translate(-34.245 -43.185)" fill="#4b9fa5"/>
      <path id="Path_1081" data-name="Path 1081" d="M137.487,114.1l12.094-27.4L136.2,114.1Z" transform="translate(-33.529 -42.698)" fill="#4b9fa5"/>
      <path id="Path_1082" data-name="Path 1082" d="M141.722,204.248A79.156,79.156,0,0,0,214.544,156H210.3a75.167,75.167,0,0,1-137.152,0H68.9A79.155,79.155,0,0,0,141.722,204.248Z" transform="translate(-52.817 -22.836)" fill="#4b9fa5"/>
      <path id="Path_1083" data-name="Path 1083" d="M69.909,170.762l-4.76-2.187.515-5.146V163.3l-3.474,3.988-4.76-2.187H57.3l2.573,4.5-3.474,3.86v.129l5.146-1.029,2.573,4.5.129-.129.515-5.018Z" transform="translate(-56.4 -20.744)" fill="#4b9fa5"/>
      <path id="Path_1084" data-name="Path 1084" d="M57.672,101.037H57.8l4.76-2.059,3.474,3.989v-.129l-.515-5.147L70.409,95.5h0l-5.146-1.158L64.748,89.2H64.62l-2.573,4.5L56.9,92.545v.129l3.474,3.86Z" transform="translate(-56.257 -41.982)" fill="#4b9fa5"/>
      <path id="Path_1085" data-name="Path 1085" d="M78.909,181.933l-5.146-1.158-.515-5.275h0l-2.7,4.632-5.018-1.158H65.4l3.474,3.86L66.3,187.466h0l4.76-2.059,3.474,3.86.129-.129-.515-5.018Z" transform="translate(-53.821 -17.247)" fill="#4b9fa5"/>
      <path id="Path_1086" data-name="Path 1086" d="M66.129,87.364l5.018-1.029,2.573,4.5h0l.643-5.275,5.146-1.029h0l-4.76-2.187.515-5.146h0L71.79,80.931l-4.76-2.059H66.9l2.573,4.5L66,87.235Z" transform="translate(-53.649 -45.421)" fill="#4b9fa5"/>
      <path id="Path_1087" data-name="Path 1087" d="M90.067,190.818H84.92L83.248,185.8h0l-1.673,5.018-5.146-.129-.129.129,4.246,3.088-1.673,4.889.129.129,4.246-3.088,4.117,3.088h0l-1.544-5.018,4.374-2.959Z" transform="translate(-50.697 -14.295)" fill="#4b9fa5"/>
      <path id="Path_1088" data-name="Path 1088" d="M109.632,62.563l-.515,5.275h0l3.6-3.86,4.76,2.187v-.129l-2.573-4.5,3.474-3.86h0L113.363,58.7l-2.7-4.5h0l-.643,5.146L105,60.376V60.5Z" transform="translate(-42.471 -52.013)" fill="#4b9fa5"/>
      <path id="Path_1089" data-name="Path 1089" d="M137.372,66.237l.129.129,4.76-2.187,3.474,3.989h.129l-.643-5.275,4.76-2.059V60.7l-5.018-1.029-.515-5.275h-.129l-2.573,4.5L136.6,57.745v.129l3.474,3.86Z" transform="translate(-33.414 -51.955)" fill="#4b9fa5"/>
      <path id="Path_1090" data-name="Path 1090" d="M124.717,60.606l-1.673,5.018h.129l4.246-3.088,4.246,3.088h0l-1.544-5.018,4.117-2.959v-.129h-5.146L127.548,52.5h-.129l-1.673,5.018H120.6Z" transform="translate(-38 -52.5)" fill="#4b9fa5"/>
      <path id="Path_1091" data-name="Path 1091" d="M90.3,66.662l5.018,1.029.515,5.275h.129l2.573-4.5,5.146,1.029h0L100.207,65.5l2.573-4.374V61L98.02,63.06,94.546,59.2h-.129l.515,5.275L90.3,66.534Z" transform="translate(-46.684 -50.58)" fill="#4b9fa5"/>
      <path id="Path_1092" data-name="Path 1092" d="M77.1,75.506l5.275.129,1.544,5.018v-.129l1.673-4.889h5.275v-.129l-4.246-3.088,1.673-4.889h-.129l-4.117,2.959L79.8,67.4l-.129.129,1.673,4.889Z" transform="translate(-50.467 -48.23)" fill="#4b9fa5"/>
      <path id="Path_1093" data-name="Path 1093" d="M187.781,179.774l-5.018,1.029-2.573-4.5h-.129l-.515,5.146L174.4,182.6h0l4.76,2.187-.643,5.147h.129l3.474-3.731,4.76,2.059h0l-2.445-4.632,3.474-3.731Z" transform="translate(-22.58 -17.018)" fill="#4b9fa5"/>
      <path id="Path_1094" data-name="Path 1094" d="M176.738,191.418h-5.146l-1.544-5.018h0l-1.673,5.018H163.1l4.246,3.088-1.673,4.889v.129l4.246-3.088,4.246,3.088h0l-1.544-5.018,4.246-2.959Z" transform="translate(-25.819 -14.123)" fill="#4b9fa5"/>
      <path id="Path_1095" data-name="Path 1095" d="M163.609,200.5l-5.018-1.158-.515-5.146h-.129l-2.573,4.5-5.146-1.158H150.1l3.6,3.988-2.7,4.5h.129l4.632-2.059,3.6,3.86h0l-.515-5.146,4.76-2.059Z" transform="translate(-29.545 -11.888)" fill="#4b9fa5"/>
      <path id="Path_1096" data-name="Path 1096" d="M196.237,166.13h-.129l-4.76,2.059-3.474-3.988h0l.515,5.275-4.889,2.059v.129l5.146,1.158.515,5.146h.129l2.573-4.5,5.146,1.158v-.129l-3.474-3.86Z" transform="translate(-19.972 -20.486)" fill="#4b9fa5"/>
      <path id="Path_1097" data-name="Path 1097" d="M144.12,204.475l.643-5.275h-.129l-3.474,3.86-4.76-2.187-.129.129,2.7,4.5-3.474,3.86h0l5.018-1.029,2.573,4.632.129-.129.515-5.146,5.146-1.029v-.129Z" transform="translate(-33.729 -10.455)" fill="#4b9fa5"/>
      <path id="Path_1098" data-name="Path 1098" d="M102.909,197.3l-5.146,1.029L95.19,193.7h-.129l-.515,5.275L89.529,200l-.129.129,4.76,2.059-.515,5.275h0l3.6-3.86,4.632,2.187v-.129l-2.445-4.5Z" transform="translate(-46.942 -12.031)" fill="#4b9fa5"/>
      <path id="Path_1099" data-name="Path 1099" d="M116.709,200.83h-.129l-4.76,2.059-3.474-3.988-.129.129.515,5.146-4.632,2.059v.129l5.018,1.158.515,5.147h.129l2.573-4.5,5.018,1.158.129-.129-3.474-3.86Z" transform="translate(-42.729 -10.541)" fill="#4b9fa5"/>
      <path id="Path_1100" data-name="Path 1100" d="M130.793,201.329h0l-4.246,3.088L122.3,201.2l-.129.129,1.673,5.018-4.246,2.959v.129h5.146l1.673,5.018h0l1.673-5.018h5.275l-4.246-3.088Z" transform="translate(-38.286 -9.881)" fill="#4b9fa5"/>
      <path id="Path_1101" data-name="Path 1101" d="M150.158,156H149l15.182,14.667Z" transform="translate(-29.86 -22.836)" fill="#4b9fa5"/>
      <path id="Path_1102" data-name="Path 1102" d="M132.687,156H131.4l9.006,31.265Z" transform="translate(-34.904 -22.836)" fill="#4b9fa5"/>
      <path id="Path_1103" data-name="Path 1103" d="M134.987,156H133.7l11.451,29.592Z" transform="translate(-34.245 -22.836)" fill="#4b9fa5"/>
      <path id="Path_1104" data-name="Path 1104" d="M130.487,156H129.2l6.433,32.423Z" transform="translate(-35.535 -22.836)" fill="#4b9fa5"/>
      <path id="Path_1105" data-name="Path 1105" d="M137.487,156H136.2l13.381,27.4Z" transform="translate(-33.529 -22.836)" fill="#4b9fa5"/>
      <path id="Path_1106" data-name="Path 1106" d="M128.387,156H127.1l3.474,33.195Z" transform="translate(-36.137 -22.836)" fill="#4b9fa5"/>
      <path id="Path_1107" data-name="Path 1107" d="M151.229,69.893l5.146-1.029,2.573,4.5h0l.643-5.275,5.018-1.029h0l-4.632-2.187.515-5.146V59.6l-3.6,3.86L152.258,61.4h-.129l2.573,4.5-3.6,3.86Z" transform="translate(-29.258 -50.465)" fill="#4b9fa5"/>
      <path id="Path_1108" data-name="Path 1108" d="M140.215,156H138.8l15.053,24.831Z" transform="translate(-32.783 -22.836)" fill="#4b9fa5"/>
      <path id="Path_1109" data-name="Path 1109" d="M125,115.452h1.287L125.643,82Z" transform="translate(-36.739 -44.045)" fill="#4b9fa5"/>
      <path id="Path_1110" data-name="Path 1110" d="M126.287,156H125l.643,33.452Z" transform="translate(-36.739 -22.836)" fill="#4b9fa5"/>
      <path id="Path_1111" data-name="Path 1111" d="M184.1,96.4l4.76,2.187-.515,5.146v.129l3.6-3.988,4.632,2.187.129-.129-2.573-4.374,3.474-3.86v-.129L192.463,94.6l-2.573-4.5h0l-.643,5.146L184.1,96.276Z" transform="translate(-19.8 -41.724)" fill="#4b9fa5"/>
      <path id="Path_1112" data-name="Path 1112" d="M175.229,85.234l5.018,1.158.515,5.275h.129l2.573-4.5,5.146,1.029h0l-3.345-3.86,2.573-4.5V79.7l-4.889,2.059L179.6,77.9h-.129l.515,5.146L175.1,85.234Z" transform="translate(-22.38 -45.22)" fill="#4b9fa5"/>
      <path id="Path_1113" data-name="Path 1113" d="M164,76.106l5.275.129,1.544,5.018h.129l1.673-5.018h5.146l-4.117-3.088,1.673-5.018h-.129l-4.246,2.959L166.831,68l-.129.129,1.544,4.889Z" transform="translate(-25.561 -48.058)" fill="#4b9fa5"/>
      <path id="Path_1114" data-name="Path 1114" d="M167,108.287h.129L169.316,107Z" transform="translate(-24.701 -36.88)" fill="#4b9fa5"/>
      <path id="Path_1115" data-name="Path 1115" d="M123.416,156,121.1,189.195,124.7,156Z" transform="translate(-37.857 -22.836)" fill="#4b9fa5"/>
      <path id="Path_1116" data-name="Path 1116" d="M146.387,156H145.1l16.083,18.4Z" transform="translate(-30.978 -22.836)" fill="#4b9fa5"/>
      <path id="Path_1117" data-name="Path 1117" d="M154.729,156H153.7l12.995,10.421Z" transform="translate(-28.513 -22.836)" fill="#4b9fa5"/>
      <path id="Path_1118" data-name="Path 1118" d="M143.087,156H141.8l15.954,21.872Z" transform="translate(-31.924 -22.836)" fill="#4b9fa5"/>
    </g>
    <g id="Group_472" data-name="Group 472" transform="translate(81.375 198.059)">
      <path id="Path_1035" data-name="Path 1035" d="M60.611,142.433a10.918,10.918,0,0,1-4.214.683c-5.808,0-9-3.986-9-9.68,0-6.719,4.328-10.136,9.453-10.136a10.791,10.791,0,0,1,3.986.683l-.683,2.961a7.229,7.229,0,0,0-3.075-.683c-3.189,0-5.694,2.164-5.694,6.833,0,4.328,2.278,6.719,5.694,6.719a8.86,8.86,0,0,0,3.189-.569Z" transform="translate(-47.4 -123.3)" fill="#fff"/>
      <path id="Path_1036" data-name="Path 1036" d="M79.019,142.846H68.2V123.6H78.564v3.075H71.844v4.669h6.378v3.075H71.958v5.353h7.061Z" transform="translate(-44.512 -123.258)" fill="#fff"/>
      <path id="Path_1037" data-name="Path 1037" d="M96,133.763c1.367.57,2.05,1.822,2.506,3.758a34.74,34.74,0,0,0,1.481,5.353H96.225a29.594,29.594,0,0,1-1.253-4.555c-.456-2.505-1.253-3.3-3.075-3.3H90.644v7.858H87V123.856a29.006,29.006,0,0,1,5.011-.456c2.392,0,7.289.342,7.289,5.466a5.286,5.286,0,0,1-3.3,4.9Zm-3.758-1.48c2.05,0,3.417-1.253,3.417-3.075,0-2.505-1.822-2.961-3.189-2.961a6.559,6.559,0,0,0-1.708.114v5.808h1.48Z" transform="translate(-41.901 -123.286)" fill="#fff"/>
      <path id="Path_1038" data-name="Path 1038" d="M119.211,126.789h-4.783v16.058h-3.758V126.789H106V123.6h13.211Z" transform="translate(-39.263 -123.258)" fill="#fff"/>
      <path id="Path_1039" data-name="Path 1039" d="M126.3,123.6h3.758v19.246H126.3Z" transform="translate(-36.444 -123.258)" fill="#fff"/>
      <path id="Path_1040" data-name="Path 1040" d="M139.7,142.846V123.6h10.364v3.075h-6.605V131.8h6.15v3.075h-6.15v8.086H139.7Z" transform="translate(-34.583 -123.258)" fill="#fff"/>
      <path id="Path_1041" data-name="Path 1041" d="M158.3,123.6h3.758v19.246H158.3Z" transform="translate(-32 -123.258)" fill="#fff"/>
      <path id="Path_1042" data-name="Path 1042" d="M182.519,142.846H171.7V123.6h10.364v3.075h-6.605v4.669h6.264v3.075h-6.264v5.353h7.061Z" transform="translate(-30.14 -123.258)" fill="#fff"/>
      <path id="Path_1043" data-name="Path 1043" d="M190.5,123.856a30.169,30.169,0,0,1,5.011-.456c3.189,0,5.353.683,6.947,2.05,1.822,1.48,2.961,3.872,2.961,7.4,0,4.1-1.48,6.491-2.961,7.858-1.708,1.594-4.441,2.392-7.744,2.392a37.157,37.157,0,0,1-4.214-.228Zm3.644,16.172a5.567,5.567,0,0,0,1.481.114c3.53,0,5.922-2.164,5.922-7.175,0-4.328-2.164-6.491-5.58-6.491-.8,0-1.367.114-1.708.114v13.438Z" transform="translate(-27.529 -123.286)" fill="#fff"/>
    </g>
  </g>
</svg>
