<svg xmlns="http://www.w3.org/2000/svg" xmlns:xlink="http://www.w3.org/1999/xlink" width="27" height="27.002" viewBox="0 0 27 27.002">
  <defs>
    <filter id="Path_4649" x="0" y="2" width="19" height="19.004" filterUnits="userSpaceOnUse">
      <feOffset input="SourceAlpha"/>
      <feGaussianBlur stdDeviation="0.5" result="blur"/>
      <feFlood flood-opacity="0.161"/>
      <feComposite operator="in" in2="blur"/>
      <feComposite in="SourceGraphic"/>
    </filter>
    <filter id="Path_4650" x="12" y="14" width="13" height="13.002" filterUnits="userSpaceOnUse">
      <feOffset input="SourceAlpha"/>
      <feGaussianBlur stdDeviation="0.5" result="blur-2"/>
      <feFlood flood-opacity="0.161"/>
      <feComposite operator="in" in2="blur-2"/>
      <feComposite in="SourceGraphic"/>
    </filter>
    <filter id="Path_4651" x="16" y="0" width="11" height="11.002" filterUnits="userSpaceOnUse">
      <feOffset input="SourceAlpha"/>
      <feGaussianBlur stdDeviation="0.5" result="blur-3"/>
      <feFlood flood-opacity="0.161"/>
      <feComposite operator="in" in2="blur-3"/>
      <feComposite in="SourceGraphic"/>
    </filter>
  </defs>
  <g id="Group_6106" data-name="Group 6106" transform="translate(-125.947 1456.742)">
    <g transform="matrix(1, 0, 0, 1, 125.95, -1456.74)" filter="url(#Path_4649)">
      <path id="Path_4649-2" data-name="Path 4649" d="M137.058-1442.014a2.635,2.635,0,0,1,1.6-1.594l4.285-1.255c.678-.2.678-.523,0-.721l-4.285-1.255a2.633,2.633,0,0,1-1.6-1.594l-1.253-4.285c-.2-.678-.522-.678-.719,0l-1.257,4.285a2.621,2.621,0,0,1-1.592,1.594l-4.283,1.255c-.677.2-.677.522,0,.721l4.283,1.255a2.623,2.623,0,0,1,1.592,1.594l1.257,4.285c.2.677.522.677.719,0Z" transform="translate(-125.95 1456.73)" fill="#fff"/>
    </g>
    <g transform="matrix(1, 0, 0, 1, 125.95, -1456.74)" filter="url(#Path_4650)">
      <path id="Path_4650-2" data-name="Path 4650" d="M147.064-1431.224a1.646,1.646,0,0,1,1-1l2.678-.784c.424-.124.424-.328,0-.451l-2.678-.784a1.644,1.644,0,0,1-1-1l-.783-2.679c-.123-.423-.326-.423-.45,0l-.785,2.679a1.637,1.637,0,0,1-1,1l-2.676.784c-.424.123-.424.326,0,.451l2.676.784a1.639,1.639,0,0,1,1,1l.785,2.678c.123.423.326.423.45,0Z" transform="translate(-127.56 1453.73)" fill="#fff"/>
    </g>
    <g transform="matrix(1, 0, 0, 1, 125.95, -1456.74)" filter="url(#Path_4651)">
      <path id="Path_4651-2" data-name="Path 4651" d="M151.692-1448.636a1.316,1.316,0,0,1,.8-.8l2.142-.628c.339-.1.339-.262,0-.36l-2.142-.627a1.317,1.317,0,0,1-.8-.8l-.626-2.142c-.1-.34-.261-.34-.36,0l-.628,2.142a1.312,1.312,0,0,1-.8.8l-2.141.627c-.339.1-.339.261,0,.36l2.141.628a1.311,1.311,0,0,1,.8.8l.628,2.143c.1.338.261.338.36,0Z" transform="translate(-129.39 1455.74)" fill="#fff"/>
    </g>
  </g>
</svg>
