<svg xmlns="http://www.w3.org/2000/svg" width="18" height="16.499" viewBox="0 0 18 16.499">
  <path id="iconmonstr-speech-bubble-6" d="M9,2.5c4.135,0,7.5,2.694,7.5,6,0,3.688-3.859,5.971-7.432,5.971a12.788,12.788,0,0,1-3.3-.483,10.115,10.115,0,0,1-3.2,1.365,7.019,7.019,0,0,0,.451-3.2A5.281,5.281,0,0,1,1.5,8.5c0-3.311,3.364-6,7.5-6ZM9,1C4.246,1,0,4.169,0,8.5a6.608,6.608,0,0,0,1.535,4.219A11.783,11.783,0,0,1,.04,17.5a21.6,21.6,0,0,0,5.983-1.9,12.865,12.865,0,0,0,3.044.377C14.381,15.975,18,12.347,18,8.5,18,4.146,13.724,1,9,1ZM9,11.5H5.25v-.75H9Zm3.75-2.25H5.25V8.5h7.5Zm0-2.25H5.25V6.25h7.5Z" transform="translate(0 -1)" fill="#ccc"/>
</svg>
