<svg xmlns="http://www.w3.org/2000/svg" xmlns:xlink="http://www.w3.org/1999/xlink" width="25" height="35" viewBox="0 0 25 35">
  <defs>
    <filter id="Path_4674" x="0" y="0" width="25" height="35" filterUnits="userSpaceOnUse">
      <feOffset input="SourceAlpha"/>
      <feGaussianBlur stdDeviation="0.5" result="blur"/>
      <feFlood flood-opacity="0.4"/>
      <feComposite operator="in" in2="blur"/>
      <feComposite in="SourceGraphic"/>
    </filter>
  </defs>
  <g id="Group_6108" data-name="Group 6108" transform="translate(-48.5 -803.5)">
    <rect id="Rectangle_3713" data-name="Rectangle 3713" width="20.465" height="26.583" transform="translate(51.023 807.954)" opacity="0.3"/>
    <g transform="matrix(1, 0, 0, 1, 48.5, 803.5)" filter="url(#Path_4674)">
      <path id="Path_4674-2" data-name="Path 4674" d="M102.19-1738.341a.755.755,0,0,0,.247.159.814.814,0,0,0,.3.057.814.814,0,0,0,.3-.057.756.756,0,0,0,.247-.159l4.434-4.266a.719.719,0,0,0,0-1.045.788.788,0,0,0-1.085,0l-3.124,3.006v-10.032a.754.754,0,0,0-.767-.738.754.754,0,0,0-.767.738v10.032l-3.124-3.006a.789.789,0,0,0-1.086,0,.719.719,0,0,0,0,1.045Zm8.694-20.951H94.512a2.765,2.765,0,0,0-2.814,2.708V-1730a2.765,2.765,0,0,0,2.814,2.708h16.372A2.766,2.766,0,0,0,113.7-1730v-26.585A2.766,2.766,0,0,0,110.884-1759.292Zm1.279,27.72H93.233v-23.44h18.93Zm-14.581-3.6h10.233a.754.754,0,0,0,.767-.738.754.754,0,0,0-.767-.738H97.582a.754.754,0,0,0-.767.738A.754.754,0,0,0,97.582-1735.168Z" transform="translate(-90.2 1760.79)" fill="#fff"/>
    </g>
  </g>
</svg>
