<svg xmlns="http://www.w3.org/2000/svg" width="44.036" height="45" viewBox="0 0 44.036 45">
  <g id="Group_325" data-name="Group 325" transform="translate(-0.025)">
    <path id="Path_751" data-name="Path 751" d="M33.873,14.592A38.668,38.668,0,0,0,33.506,10H12.2v8.633H24.322a10.871,10.871,0,0,1-4.408,6.8v5.694h7.163C31.486,27.265,33.873,21.388,33.873,14.592Z" transform="translate(10.187 8.367)" fill="#4285f4"/>
    <path id="Path_752" data-name="Path 752" d="M21.32,32.867A21.179,21.179,0,0,0,36.2,27.357l-7.163-5.694a14.172,14.172,0,0,1-7.714,2.2A13.637,13.637,0,0,1,8.647,14.5H1.3v5.878A22.361,22.361,0,0,0,21.32,32.867Z" transform="translate(1.067 12.133)" fill="#34a853"/>
    <path id="Path_753" data-name="Path 753" d="M9.9,21.21a13.869,13.869,0,0,1,0-8.633V6.7H2.367a22.96,22.96,0,0,0,0,20.2Z" transform="translate(0 5.606)" fill="#fbbc04"/>
    <path id="Path_754" data-name="Path 754" d="M21.32,8.816a12.707,12.707,0,0,1,8.633,3.306l6.429-6.429A22.245,22.245,0,0,0,21.32,0,22.525,22.525,0,0,0,1.3,12.306l7.531,5.878A13.229,13.229,0,0,1,21.32,8.816Z" transform="translate(1.067)" fill="#ea4335"/>
  </g>
</svg>
