<svg xmlns="http://www.w3.org/2000/svg" xmlns:xlink="http://www.w3.org/1999/xlink" width="62" height="40" viewBox="0 0 62 40">
  <defs>
    <clipPath id="clip-path">
      <rect id="Rectangle_3715" data-name="Rectangle 3715" width="62" height="40" transform="translate(352 134)" fill="#fff"/>
    </clipPath>
    <filter id="Rectangle_2272" x="3" y="-6" width="68" height="58" filterUnits="userSpaceOnUse">
      <feOffset dy="3" input="SourceAlpha"/>
      <feGaussianBlur stdDeviation="3" result="blur"/>
      <feFlood flood-opacity="0.161"/>
      <feComposite operator="in" in2="blur"/>
      <feComposite in="SourceGraphic"/>
    </filter>
  </defs>
  <g id="Mask_Group_2" data-name="Mask Group 2" transform="translate(-352 -134)" clip-path="url(#clip-path)">
    <g id="タグ検索ボタン" transform="translate(364 134)">
      <g id="Group_4877" data-name="Group 4877">
        <g transform="matrix(1, 0, 0, 1, -12, 0)" filter="url(#Rectangle_2272)">
          <rect id="Rectangle_2272-2" data-name="Rectangle 2272" width="50" height="40" transform="translate(12)" fill="#e5e5e5"/>
        </g>
        <g id="icon_search" transform="translate(15 10)">
          <path id="Path_4652" data-name="Path 4652" d="M87.047-1618.151,82.6-1622.6a8.451,8.451,0,0,0-.785-11.022,8.453,8.453,0,0,0-11.943,0,8.454,8.454,0,0,0,0,11.943,8.418,8.418,0,0,0,5.971,2.47,8.425,8.425,0,0,0,5.051-1.685l4.449,4.449a1.2,1.2,0,0,0,.853.353,1.2,1.2,0,0,0,.853-.353A1.207,1.207,0,0,0,87.047-1618.151Zm-6.94-5.234a6.042,6.042,0,0,1-8.531,0,6.039,6.039,0,0,1,0-8.531,6.014,6.014,0,0,1,4.265-1.764,6.014,6.014,0,0,1,4.266,1.764A6.041,6.041,0,0,1,80.107-1623.385Z" transform="translate(-67.4 1636.092)" fill="#4b9fa5"/>
        </g>
        <g id="icon_search-2" data-name="icon_search" transform="translate(15 10)">
          <path id="Path_4652-2" data-name="Path 4652" d="M87.047-1618.151,82.6-1622.6a8.451,8.451,0,0,0-.785-11.022,8.453,8.453,0,0,0-11.943,0,8.454,8.454,0,0,0,0,11.943,8.418,8.418,0,0,0,5.971,2.47,8.425,8.425,0,0,0,5.051-1.685l4.449,4.449a1.2,1.2,0,0,0,.853.353,1.2,1.2,0,0,0,.853-.353A1.207,1.207,0,0,0,87.047-1618.151Zm-6.94-5.234a6.042,6.042,0,0,1-8.531,0,6.039,6.039,0,0,1,0-8.531,6.014,6.014,0,0,1,4.265-1.764,6.014,6.014,0,0,1,4.266,1.764A6.041,6.041,0,0,1,80.107-1623.385Z" transform="translate(-67.4 1636.092)" fill="#4b9fa5"/>
        </g>
      </g>
    </g>
  </g>
</svg>
