<svg xmlns="http://www.w3.org/2000/svg" viewBox="0 0 137 85.666">
  <defs>
    <style>
      .cls-1 {
        fill: #ccc;
      }
    </style>
  </defs>
  <g id="Group_2082" data-name="Group 2082" transform="translate(-92 -230.262)">
    <path id="ic_sms_24px" class="cls-1" d="M74.664,2H10.074A8.063,8.063,0,0,0,2.04,10.074L2,82.738,18.148,66.591H74.664a8.1,8.1,0,0,0,8.074-8.074V10.074A8.1,8.1,0,0,0,74.664,2ZM30.258,38.332H22.185V30.258h8.074Zm16.148,0H38.332V30.258h8.074Zm16.148,0H54.48V30.258h8.074Z" transform="translate(90 228.262)"/>
    <path id="ic_sms_24px-2" data-name="ic_sms_24px" class="cls-1" d="M6.53,2H42.767a4.524,4.524,0,0,1,4.507,4.53L47.3,47.3l-9.059-9.059H6.53A4.543,4.543,0,0,1,2,33.708V6.53A4.543,4.543,0,0,1,6.53,2ZM31.443,22.384h4.53v-4.53h-4.53Zm-9.059,0h4.53v-4.53h-4.53Zm-9.059,0h4.53v-4.53h-4.53Z" transform="translate(181.703 268.631)"/>
  </g>
</svg>
