<svg xmlns="http://www.w3.org/2000/svg" width="27.999" height="22.222" viewBox="0 0 27.999 22.222">
  <g id="Group_2314" data-name="Group 2314" transform="translate(-0.005 -0.01)">
    <path id="Path_1422" data-name="Path 1422" d="M30.679,8.829c-.046-.121-.1-.238-.145-.354A22.117,22.117,0,0,0,28.512,5.2c-.4-.8-1.9-3.4-2.233-3.847a3.071,3.071,0,0,0-1-.916A30.2,30.2,0,0,0,18.837.01h-.409a30.166,30.166,0,0,0-6.447.423,3.033,3.033,0,0,0-1,.916C10.65,1.8,9.155,4.393,8.751,5.2A22.321,22.321,0,0,0,6.73,8.473c-.05.116-.1.235-.145.354A18.994,18.994,0,0,0,5.912,11.4a21.273,21.273,0,0,0-.254,3.825,13.152,13.152,0,0,0,.42,3.854c.331.125.788.28,1.279.43v1.662a1.091,1.091,0,0,0,1.114,1.06h2.172a1.091,1.091,0,0,0,1.114-1.06V20.1l.225,0h13.3l.23,0v1.069a1.091,1.091,0,0,0,1.114,1.06H28.8a1.091,1.091,0,0,0,1.114-1.06V19.508c.488-.15.944-.3,1.274-.428a13.152,13.152,0,0,0,.42-3.854,21.274,21.274,0,0,0-.254-3.825A19.312,19.312,0,0,0,30.679,8.829ZM11.787,3.72c.88-1.857,1.445-2.162,1.947-2.241.274-.043,1.39-.067,2.512-.079V1.384h4.774V1.4c1.123.013,2.238.036,2.512.079.5.079,1.068.385,1.947,2.241s.8,2.055.8,2.189c0,0-.9.878-7.649.878s-7.649-.878-7.649-.878C10.983,5.775,10.908,5.576,11.787,3.72Zm-.629,9.556a2.091,2.091,0,0,1-2.141-2.037c0-1.125.394-2.037,1.576-2.037s2.7.912,2.7,2.037A2.09,2.09,0,0,1,11.158,13.276ZM22.923,15.79c-.092.011-2.26.249-4.143.249s-4.327-.238-4.43-.249a.538.538,0,0,1-.5-.582.551.551,0,0,1,.611-.473c.024,0,2.5.244,4.316.244s3.992-.24,4.014-.242a.552.552,0,0,1,.618.464A.538.538,0,0,1,22.923,15.79Zm3.186-2.514a2.091,2.091,0,0,1-2.141-2.037c0-1.125,1.522-2.037,2.7-2.037s1.576.912,1.576,2.037A2.088,2.088,0,0,1,26.109,13.276Z" transform="translate(-4.629 0)" fill="#999"/>
    <path id="Path_1423" data-name="Path 1423" d="M1.311,27.159c.65-1.123,1.225-1.663,1.559-2.339.085-.172.213-.415.367-.7a6.907,6.907,0,0,0-1.849,0c-.733.154-1.161.311-1.262.647a1.79,1.79,0,0,0,1.131,2.366A.37.37,0,0,0,1.311,27.159Z" transform="translate(0 -19.703)" fill="#999"/>
    <path id="Path_1424" data-name="Path 1424" d="M137.537,24.778c-.1-.336-.529-.495-1.262-.647a6.926,6.926,0,0,0-1.855,0c.154.285.282.529.367.7.334.677.908,1.215,1.559,2.341a.428.428,0,0,0,.061-.023A1.79,1.79,0,0,0,137.537,24.778Z" transform="translate(-109.653 -19.709)" fill="#999"/>
  </g>
</svg>
