<svg id="Button_Rotation90" xmlns="http://www.w3.org/2000/svg" width="50" height="50" viewBox="0 0 50 50">
  <rect id="Rectangle_3693" data-name="Rectangle 3693" width="50" height="50" fill="none"/>
  <g id="Group_6082" data-name="Group 6082" transform="translate(-4505.8 2463)">
    <text id="_90_" data-name="90°" transform="translate(4532 -2435)" fill="#fff" font-size="8" font-family="Helvetica-Bold, Helvetica" font-weight="700"><tspan x="-6.049" y="0">90°</tspan></text>
    <g id="Group_6091" data-name="Group 6091" transform="translate(2 3)">
      <path id="Path_4617" data-name="Path 4617" d="M-466.454-1624.108a12.008,12.008,0,0,1,9.339,10.414,12.145,12.145,0,0,1,.07,1.305,12,12,0,0,1-12,12,12,12,0,0,1-10.992-7.178" transform="translate(4998.166 -828.611)" fill="none" stroke="#fff" stroke-linecap="round" stroke-linejoin="round" stroke-width="0.5"/>
      <path id="Path_4618" data-name="Path 4618" d="M-478.47-1612.636l-3.192,3.192-3.192-3.192" transform="translate(4998.854 -830.25)" fill="none" stroke="#fff" stroke-linecap="round" stroke-linejoin="round" stroke-width="1.5"/>
      <path id="Path_4619" data-name="Path 4619" d="M-481.142-1611.13a12.159,12.159,0,0,1-.07-1.306,12,12,0,0,1,12-12" transform="translate(4998.333 -828.564)" fill="none" stroke="#fff" stroke-linecap="round" stroke-linejoin="round" stroke-width="1.5"/>
    </g>
  </g>
</svg>
