<svg xmlns="http://www.w3.org/2000/svg" xmlns:xlink="http://www.w3.org/1999/xlink" width="50" height="14" viewBox="0 0 50 14">
  <defs>
    <clipPath id="clip-path">
      <rect width="50" height="14" fill="none"/>
    </clipPath>
  </defs>
  <g id="icon_status_REGULAR" transform="translate(0 0)" clip-path="url(#clip-path)">
    <rect id="Rectangle_1620" data-name="Rectangle 1620" width="50" height="14" rx="1" fill="#eda070"/>
    <rect id="Rectangle_2116" data-name="Rectangle 2116" width="50" height="14" rx="1" fill="#eda070"/>
    <path id="Path_1998" data-name="Path 1998" d="M5.767,2.8A1.911,1.911,0,0,0,3.625.807H0V1.813H3.658A1.084,1.084,0,0,1,4.729,2.851a1,1,0,0,1-1.071.939h-2.6C.33,3.79,0,4.054,0,4.8V7.481H1.055V4.96A.148.148,0,0,1,1.219,4.8H3.131l1.6,2.686H5.9L4.3,4.8A1.928,1.928,0,0,0,5.767,2.8Zm4.647,2.571c1.285,0,1.763-.544,1.763-1.5,0-1.005-.527-1.6-1.763-1.6H8.733A1.583,1.583,0,0,0,6.921,3.988v1.78A1.583,1.583,0,0,0,8.733,7.481h3.2V6.459h-3.2c-.577,0-.807-.313-.807-.725V5.355h2.488ZM7.926,3.988c0-.412.231-.725.807-.725h1.681c.511,0,.742.264.742.659,0,.379-.214.626-.774.626H7.926Zm9-1.73H15.489c-1.4,0-2.258.807-2.258,2.488,0,1.7.873,2.5,2.258,2.5H17.8v.231c0,.758-.264,1.055-1.038,1.055h-3V9.541h3.1c1.467,0,1.977-.577,1.977-2.06V4.5C18.851,3,18.175,2.258,16.923,2.258Zm.857,4.054H15.588c-.906,0-1.3-.461-1.3-1.516s.412-1.516,1.3-1.516h1.038c.84,0,1.17.363,1.17,1.219V6.311Zm6.97-.923c0,.61-.445,1.071-1.269,1.071h-.857c-.824,0-1.285-.461-1.285-1.071V2.258H20.285V5.421a2,2,0,0,0,2.258,2.06h.972a1.99,1.99,0,0,0,2.258-2.06V2.258H24.75Zm2.5,2.093H28.31V0H27.255Zm5.883-5.224H30.007V3.263h3.131c.577,0,.807.313.807.725v.4H31.457c-1.285,0-1.763.56-1.763,1.5,0,.989.511,1.6,1.747,1.6h2.439c.873,0,1.071-.3,1.071-1.055V3.988A1.587,1.587,0,0,0,33.138,2.258ZM33.929,6.2c0,.181-.082.264-.28.264H31.457c-.527,0-.725-.247-.725-.626s.2-.61.758-.61h2.455V6.2ZM37.85,2.258c-1.022,0-1.417.478-1.417,1.516V7.465h1.055V3.938a.589.589,0,0,1,.676-.676h1.846V2.258Z" transform="translate(5.024 2.575)" fill="#fff"/>
  </g>
</svg>
