<svg xmlns="http://www.w3.org/2000/svg" width="42.975" height="34.712" viewBox="0 0 42.975 34.712">
  <g id="Group_3804" data-name="Group 3804" transform="translate(0)">
    <g id="Group_2311" data-name="Group 2311" transform="translate(0 0)">
      <path id="Path_1419" data-name="Path 1419" d="M47.982,13.766c-.071-.188-.145-.374-.223-.554-1.266-2.952-2.478-3.866-3.1-5.12s-2.909-5.3-3.421-6.01A4.707,4.707,0,0,0,39.709.653S37.235-.01,29.83-.01c-.106,0-.207,0-.309,0H29.2c-7.4,0-9.879.663-9.879.663a4.707,4.707,0,0,0-1.531,1.43c-.512.706-2.8,4.755-3.421,6.01s-1.831,2.168-3.1,5.12c-.078.18-.152.365-.223.554a30.257,30.257,0,0,0-1.031,4.02,33.9,33.9,0,0,0-.388,5.973c.064,3.215.322,5.385.645,6.02.507.2,1.208.436,1.959.671v2.595A1.688,1.688,0,0,0,13.943,34.7h3.329a1.688,1.688,0,0,0,1.707-1.656V31.375c.218,0,.345,0,.345,0H39.711s.131,0,.352,0v1.671A1.688,1.688,0,0,0,41.77,34.7H45.1a1.688,1.688,0,0,0,1.707-1.656v-2.6c.749-.235,1.446-.473,1.952-.668.322-.635.578-2.8.645-6.02a33.9,33.9,0,0,0-.388-5.973A30.817,30.817,0,0,0,47.982,13.766ZM19.029,5.788c1.347-2.9,2.215-3.377,2.985-3.5.42-.068,2.129-.1,3.849-.124v-.02h7.316v.02c1.721.02,3.43.056,3.849.124.77.124,1.636.6,2.985,3.5S41.244,9,41.244,9.206c0,0-1.375,1.372-11.724,1.372S17.8,9.206,17.8,9.206C17.8,9,17.681,8.689,19.029,5.788Zm-.965,14.925a3.231,3.231,0,0,1-3.279-3.182c0-1.757.6-3.182,2.415-3.182s4.145,1.425,4.145,3.182A3.234,3.234,0,0,1,18.063,20.713ZM36.1,24.64c-.14.017-3.466.39-6.35.39s-6.631-.372-6.79-.388a.835.835,0,0,1-.762-.909.848.848,0,0,1,.937-.739c.038,0,3.825.38,6.615.38S35.864,23,35.9,23a.847.847,0,0,1,.947.726A.833.833,0,0,1,36.1,24.64Zm4.883-3.927A3.231,3.231,0,0,1,37.7,17.531c0-1.757,2.334-3.182,4.145-3.182s2.415,1.425,2.415,3.182A3.234,3.234,0,0,1,40.978,20.713Z" transform="translate(-8.033 0.01)" fill="#4b9fa5"/>
      <path id="Path_1420" data-name="Path 1420" d="M2.04,45.913c1.015-1.755,1.912-2.6,2.435-3.653.132-.268.332-.648.572-1.093a10.793,10.793,0,0,0-2.889.007c-1.145.238-1.813.484-1.974,1.01-.628,2.073.415,2.975,1.767,3.694A.663.663,0,0,0,2.04,45.913Z" transform="translate(0.003 -34.279)" fill="#4b9fa5"/>
      <path id="Path_1421" data-name="Path 1421" d="M234.271,42.173c-.159-.524-.828-.772-1.973-1.012a10.738,10.738,0,0,0-2.9,0c.24.445.44.825.572,1.093.522,1.058,1.42,1.9,2.436,3.656a.571.571,0,0,0,.1-.036C233.854,45.148,234.9,44.246,234.271,42.173Z" transform="translate(-191.483 -34.268)" fill="#4b9fa5"/>
    </g>
  </g>
</svg>
