<svg xmlns="http://www.w3.org/2000/svg" xmlns:xlink="http://www.w3.org/1999/xlink" width="237" height="150" viewBox="0 0 237 150">
  <defs>
    <clipPath id="clip-path">
      <rect id="Rectangle_3705" data-name="Rectangle 3705" width="57.971" height="101.113" rx="1.378" fill="none"/>
    </clipPath>
    <clipPath id="clip-path-2">
      <ellipse id="Ellipse_6" data-name="Ellipse 6" cx="54.5" cy="54" rx="54.5" ry="54" transform="translate(-0.308 0.267)" fill="#fff"/>
    </clipPath>
  </defs>
  <g id="Group_6075" data-name="Group 6075" transform="translate(-20.36 -438.502)">
    <rect id="Rectangle_12" data-name="Rectangle 12" width="237" height="150" transform="translate(20.36 438.502)" fill="#fff"/>
    <text id="タブをタップで開閉" transform="translate(190.36 569.502)" fill="#59a5aa" font-size="11" font-family="HiraKakuProN-W6, Hiragino Kaku Gothic ProN"><tspan x="-49.5" y="0">タブをタップで開閉</tspan></text>
    <g id="グループ_6082" data-name="グループ 6082" transform="translate(35.837 447.514)">
      <g id="グループ_6075" data-name="グループ 6075" transform="translate(0 0)">
        <g id="グループ_6074" data-name="グループ 6074" transform="translate(0 0.229)">
          <rect id="長方形_3696" data-name="長方形 3696" width="68" height="134" rx="6.683" transform="translate(-0.477 -0.241)" fill="#fff"/>
        </g>
        <path id="パス_3772" data-name="パス 3772" d="M2461.14,1700.008h-42.76l33.068,134.817h9.694a4.742,4.742,0,0,0,4.742-4.742h0V1704.748a4.743,4.743,0,0,0-4.744-4.74Z" transform="translate(-2398.693 -1700.008)" fill="#f5f5f5"/>
        <rect id="長方形_3697" data-name="長方形 3697" width="68" height="134" rx="6.683" transform="translate(-0.477 -0.012)" stroke-width="2" stroke="#666" stroke-linecap="round" stroke-linejoin="round" fill="none"/>
        <rect id="長方形_3698" data-name="長方形 3698" width="57.971" height="101.113" rx="1.378" transform="translate(4.499 14.149)" fill="#fff"/>
        <line id="線_2" data-name="線 2" x2="11.736" transform="translate(27.616 7.323)" fill="none" stroke="#666" stroke-linecap="round" stroke-linejoin="round" stroke-width="2"/>
      </g>
      <path id="長方形_3699" data-name="長方形 3699" d="M2397.954,1719.949h56.016a.978.978,0,0,1,.979.978h0v9.889h-57.973v-9.889a.978.978,0,0,1,.978-.978Z" transform="translate(-2392.477 -1705.799)" fill="#666"/>
      <g id="個別見積_お申し込み" data-name="個別見積 お申し込み" transform="translate(14.413 17.659)" style="isolation: isolate">
        <text id="個別見積_お申し込み-2" data-name="個別見積・お申し込み" transform="translate(0 2)" fill="#fff" font-size="2" font-family="HiraKakuProN-W3, Hiragino Kaku Gothic ProN" letter-spacing="-0.05em" style="isolation: isolate"><tspan x="0" y="0">個別見積・お申し込み</tspan></text>
      </g>
      <line id="線_3" data-name="線 3" x1="2.497" y2="2.497" transform="translate(7.158 18.474)" fill="none" stroke="#fff" stroke-linecap="round" stroke-linejoin="round" stroke-width="0.5"/>
      <line id="線_4" data-name="線 4" x1="2.497" y1="2.497" transform="translate(7.158 18.474)" fill="none" stroke="#fff" stroke-linecap="round" stroke-linejoin="round" stroke-width="0.5"/>
      <g id="長方形_3700" data-name="長方形 3700" transform="translate(4.363 14.014)">
        <rect id="Rectangle_3703" data-name="Rectangle 3703" width="57.971" height="101.113" rx="1.378" transform="translate(0.136 0.136)" fill="none"/>
        <rect id="Rectangle_3704" data-name="Rectangle 3704" width="58.243" height="101.384" rx="1.57" fill="none" stroke="#666" stroke-linecap="round" stroke-linejoin="round" stroke-width="0.5"/>
      </g>
      <g id="Group_6084" data-name="Group 6084" transform="translate(4.499 14.149)">
        <g id="Group_6083" data-name="Group 6083" clip-path="url(#clip-path)">
          <g id="マスクグループ_1" data-name="マスクグループ 1" transform="translate(-0.115 64.991)">
            <g id="グループ_6079" data-name="グループ 6079" transform="translate(0 3.878)">
              <rect id="長方形_3701" data-name="長方形 3701" width="59" height="39" transform="translate(0.139 2.97)" fill="#f8f8f8"/>
              <g id="グループ_6078" data-name="グループ 6078">
                <g id="グループ_6047" data-name="グループ 6047" transform="translate(25.198)">
                  <g id="グループ_6049" data-name="グループ 6049">
                    <path id="長方形_3601" data-name="長方形 3601" d="M2440.841,1817.005h0Z" transform="translate(-2432.326 -1817.005)" fill="#408388"/>
                  </g>
                </g>
                <rect id="長方形_3602" data-name="長方形 3602" width="59" height="1" transform="translate(0.139 1.97)" fill="#4b9fa5"/>
              </g>
              <text id="ログイン情報" transform="translate(25.139 10.97)" fill="#f37b7d" font-size="3" font-family="HiraKakuProN-W6, Hiragino Kaku Gothic ProN"><tspan x="-8.91" y="0">ログイン情報</tspan></text>
              <text id="ID_:_XXXXXXXXXXXXX_パスワード_:_XXXXXXX" data-name="ID : XXXXXXXXXXXXX
パスワード : XXXXXXX" transform="translate(5.139 17.97)" fill="#333" font-size="3" font-family="HiraKakuProN-W3, Hiragino Kaku Gothic ProN"><tspan x="0" y="0">ID : XXXXXXXXXXXXX</tspan><tspan x="0" y="4">パスワード : XXXXXXX</tspan></text>
            </g>
            <path id="Rectangle_3708" data-name="Rectangle 3708" d="M1,0H12a1,1,0,0,1,1,1V6a0,0,0,0,1,0,0H0A0,0,0,0,1,0,6V1A1,1,0,0,1,1,0Z" transform="translate(23.139 -0.152)" fill="#4b9fa5"/>
            <g id="Group_6091" data-name="Group 6091" transform="translate(25.908 1.749)">
              <rect id="Rectangle_3709" data-name="Rectangle 3709" width="7.096" height="0.355" fill="#408388"/>
              <rect id="Rectangle_3710" data-name="Rectangle 3710" width="7.096" height="0.355" transform="translate(0 0.355)" fill="#57b5bc"/>
            </g>
            <g id="Group_6092" data-name="Group 6092" transform="translate(25.908 3.878)">
              <rect id="Rectangle_3709-2" data-name="Rectangle 3709" width="7.096" height="0.355" transform="translate(0 0)" fill="#408388"/>
              <rect id="Rectangle_3710-2" data-name="Rectangle 3710" width="7.096" height="0.355" transform="translate(0 0.355)" fill="#57b5bc"/>
            </g>
          </g>
        </g>
      </g>
      <g id="楕円形_4" data-name="楕円形 4" transform="translate(28.577 119.529)">
        <circle id="Ellipse_7" data-name="Ellipse 7" cx="4.89" cy="4.89" r="4.89" fill="#fff"/>
        <circle id="Ellipse_8" data-name="Ellipse 8" cx="4.618" cy="4.618" r="4.618" transform="translate(0.272 0.272)" fill="none" stroke="#707070" stroke-width="1"/>
      </g>
      <text id="ID" transform="translate(9.523 35.988)" fill="#333" font-size="3" font-family="HiraKakuProN-W3, Hiragino Kaku Gothic ProN"><tspan x="0" y="0">ID</tspan></text>
      <text id="パスワード" transform="translate(9.523 52.988)" fill="#333" font-size="3" font-family="HiraKakuProN-W3, Hiragino Kaku Gothic ProN"><tspan x="0" y="0">パスワード</tspan></text>
      <g id="Rectangle_3711" data-name="Rectangle 3711" transform="translate(9.523 37.988)" fill="#fff" stroke="#ccc" stroke-width="0.5">
        <rect width="48" height="9" rx="2" stroke="none"/>
        <rect x="0.25" y="0.25" width="47.5" height="8.5" rx="1.75" fill="none"/>
      </g>
      <g id="Rectangle_3712" data-name="Rectangle 3712" transform="translate(9.523 54.988)" fill="#fff" stroke="#ccc" stroke-width="0.5">
        <rect width="48" height="9" rx="2" stroke="none"/>
        <rect x="0.25" y="0.25" width="47.5" height="8.5" rx="1.75" fill="none"/>
      </g>
    </g>
    <path id="Polygon_1" data-name="Polygon 1" d="M5.39,11.624a1,1,0,0,1,1.993,0l5.3,61.8a1,1,0,0,1-1,1.085H1.089a1,1,0,0,1-1-1.085Z" transform="translate(73.208 534.127) rotate(-107)" fill="#59a5aa"/>
    <g id="Group_6090" data-name="Group 6090" transform="translate(136.668 443.964)">
      <g id="Mask_Group_2" data-name="Mask Group 2" transform="translate(0 0.271)" clip-path="url(#clip-path-2)">
        <g id="Group_6081" data-name="Group 6081" transform="translate(0 28.934)">
          <rect id="Rectangle_3701" data-name="Rectangle 3701" width="112" height="71" transform="translate(-0.308 15.332)" fill="#f8f8f8"/>
          <g id="Group_6078" data-name="Group 6078" transform="translate(0 0)">
            <g id="Group_6047" data-name="Group 6047" transform="translate(42.086 0)">
              <path id="Rectangle_3599" data-name="Rectangle 3599" d="M2,0H26a2,2,0,0,1,2,2V12a0,0,0,0,1,0,0H0a0,0,0,0,1,0,0V2A2,2,0,0,1,2,0Z" transform="translate(-0.394 0.332)" fill="#4b9fa5"/>
              <g id="Group_6049" data-name="Group 6049" transform="translate(21.92 8.768) rotate(180)">
                <rect id="Rectangle_3601" data-name="Rectangle 3601" width="15" transform="translate(0.314 0.435)" fill="#408388"/>
              </g>
              <g id="Group_6050" data-name="Group 6050" transform="translate(21.861 5.363) rotate(180)">
                <rect id="Rectangle_3600" data-name="Rectangle 3600" width="14.796" height="0.592" fill="#57b5bc"/>
                <rect id="Rectangle_3601-2" data-name="Rectangle 3601" width="14.796" height="0.592" transform="translate(0 0.592)" fill="#408388"/>
              </g>
              <g id="Group_6080" data-name="Group 6080" transform="translate(21.861 8.448) rotate(180)">
                <rect id="Rectangle_3600-2" data-name="Rectangle 3600" width="14.796" height="0.592" fill="#57b5bc"/>
                <rect id="Rectangle_3601-3" data-name="Rectangle 3601" width="14.796" height="0.592" transform="translate(0 0.592)" fill="#408388"/>
              </g>
            </g>
            <rect id="Rectangle_3602" data-name="Rectangle 3602" width="112" height="3" transform="translate(-0.308 12.332)" fill="#4b9fa5"/>
          </g>
          <text id="ログイン情報-2" data-name="ログイン情報" transform="translate(50.692 26.332)" fill="#f37b7d" font-size="7" font-family="HiraKakuProN-W6, Hiragino Kaku Gothic ProN"><tspan x="-20.79" y="0">ログイン情報</tspan></text>
          <text id="ID_:_XXXXXXXXXXXXX_パスワード_:_XXXXXXX-2" data-name="ID : XXXXXXXXXXXXX
パスワード : XXXXXXX" transform="translate(14.692 40.332)" fill="#333" font-size="7" font-family="HiraKakuProN-W3, Hiragino Kaku Gothic ProN"><tspan x="0" y="0">ID : XXXXXXXXXXXXX</tspan><tspan x="0" y="10">パスワード : XXXXXXX</tspan></text>
        </g>
      </g>
      <path id="Path_3779" data-name="Path 3779" d="M54.282,0A54.282,54.282,0,1,1,0,54.282,54.282,54.282,0,0,1,54.282,0Z" transform="translate(0.418 0)" fill="none" stroke="#59a5aa" stroke-width="6"/>
    </g>
    <g id="グループ_6089" data-name="グループ 6089" transform="translate(81.03 529.113)">
      <path id="パス_3773" data-name="パス 3773" d="M1087.016,1809.9c-4.116-6.008-9.1-.389-8.066,1.113l-7.2-10.514c-4.117-6.008-11.627-.861-7.511,5.146.909,1.325,4.82,7.033,8.909,13-.214,3.566-.819,14.915.048,16.177l6.176,9.012c2.058,3,17.245,5.841,17.245,5.841l2.058,3,16.522-11.321-2.058-3s-.64-10.6-1.2-14.633-.556-4.032-3.644-8.539l-5.148-7.505c-4.117-6.009-9.1-.39-8.067,1.113-4.115-6.008-9.1-.389-8.066,1.113" transform="translate(-1063.039 -1797.825)" fill="#fff"/>
      <path id="パス_3774" data-name="パス 3774" d="M1109.565,1815.2l-5.146-7.51c-1.248-1.822-3-2.753-3.79-2.693a4.337,4.337,0,0,0-2.887.892c-1.091.9-1.821,2.281-1.389,2.914-1.248-1.822-2.964-2.857-3.791-2.693s-1.755-.111-2.887.892-1.821,2.281-1.389,2.914a6.4,6.4,0,0,0-3.791-2.693c-1.061-.3-1.474.111-2.582.675s-2.164,2.444-1.694,3.129l-7.2-10.514a5.539,5.539,0,0,0-4.164-2.665c-1.566,1.4-2.136,3.976-.242,6.741l8.909,13c-.213,3.566-.819,14.915.049,16.177l6.175,9.012c2.058,3,17.246,5.841,17.246,5.841l1.565,2.285,13.91-9.531-2.058-3s-.64-10.6-1.2-14.632S1112.653,1819.7,1109.565,1815.2Z" transform="translate(-1064.31 -1797.83)" fill="#f5c8a1" opacity="0.5" style="isolation: isolate"/>
      <g id="グループ_6088" data-name="グループ 6088" transform="translate(0 0)">
        <path id="パス_3775" data-name="パス 3775" d="M1076.483,1826.08s-.444,10.168.585,11.67l6.175,9.012c2.058,3,17.245,5.841,17.245,5.841l2.059,3,16.522-11.321-2.059-3s-.64-10.6-1.2-14.633-.556-4.032-3.644-8.539l-5.147-7.507c-4.117-6.009-9.1-.39-8.067,1.113" transform="translate(-1066.916 -1800.748)" fill="none" stroke="#666" stroke-linecap="round" stroke-linejoin="round" stroke-width="2"/>
        <path id="パス_3776" data-name="パス 3776" d="M1096.772,1813.283c-1.029-1.5,3.95-7.121,8.067-1.113l5.146,7.51" transform="translate(-1072.796 -1801.202)" fill="none" stroke="#666" stroke-linecap="round" stroke-linejoin="round" stroke-width="2"/>
        <path id="パス_3777" data-name="パス 3777" d="M1085.4,1814.851c-1.029-1.5,3.95-7.12,8.067-1.113l5.146,7.511" transform="translate(-1069.495 -1801.658)" fill="none" stroke="#666" stroke-linecap="round" stroke-linejoin="round" stroke-width="2"/>
        <path id="パス_3778" data-name="パス 3778" d="M1083.789,1834.188l-19.554-28.538c-4.117-6.009,3.393-11.154,7.511-5.146l13.378,19.524" transform="translate(-1063.039 -1797.825)" fill="none" stroke="#666" stroke-linecap="round" stroke-linejoin="round" stroke-width="2"/>
      </g>
    </g>
  </g>
</svg>
