<svg xmlns="http://www.w3.org/2000/svg" width="27.32" height="27.32" viewBox="0 0 27.32 27.32">
  <path id="ic_loyalty_24px" d="M28.514,15.086,16.22,2.792A2.715,2.715,0,0,0,14.294,2H4.732A2.74,2.74,0,0,0,2,4.732v9.562a2.726,2.726,0,0,0,.806,1.94L15.1,28.528a2.715,2.715,0,0,0,1.926.792,2.671,2.671,0,0,0,1.926-.806l9.562-9.562a2.671,2.671,0,0,0,.806-1.926A2.759,2.759,0,0,0,28.514,15.086ZM6.781,8.83A2.049,2.049,0,1,1,8.83,6.781,2.046,2.046,0,0,1,6.781,8.83Zm16.078,11.3L17.026,25.96l-5.833-5.833a3.419,3.419,0,0,1,2.418-5.833A3.373,3.373,0,0,1,16.029,15.3l1,.984,1-1a3.419,3.419,0,0,1,4.836,4.836Z" transform="translate(-2 -2)" fill="#999"/>
</svg>
