<svg xmlns="http://www.w3.org/2000/svg" width="103.971" height="106.769" viewBox="0 0 103.971 106.769">
  <g id="Group_5507" data-name="Group 5507" transform="translate(-327.818 -406.899)">
    <g id="Group_5491" data-name="Group 5491">
      <g id="Group_5489" data-name="Group 5489">
        <path id="Path_4505" data-name="Path 4505" d="M389.734,445.278l2.568-2.52c5.135-5.04-1.165-11.46-6.3-6.42l-2.568,2.52c5.135-5.04-1.165-11.459-6.3-6.419l-16.4,16.1c5.706-5.6-1.294-12.732-7-7.132l-15.692,15.4c-7.133,7-5.865,22.559-5.865,22.559l-2.853,2.8,16.8,17.119,2.853-2.8a144.568,144.568,0,0,0,15.586-4.094c4.253-1.374,7.106-4.174,11.386-8.374l18.687-18.34c5.136-5.04-1.164-11.46-6.3-6.42l7.7-7.56C401.17,446.657,394.87,440.238,389.734,445.278Z" fill="#fff"/>
      </g>
      <g id="Group_5490" data-name="Group 5490">
        <path id="Path_4506" data-name="Path 4506" d="M383.434,438.859c5.135-5.041-1.165-11.46-6.3-6.42L355.308,453.86" fill="none" stroke="#666" stroke-linecap="round" stroke-linejoin="round" stroke-width="3"/>
        <path id="Path_4507" data-name="Path 4507" d="M366.744,455.239,386,436.338c5.135-5.04,11.435,1.38,6.3,6.42l-19.258,18.9" fill="none" stroke="#666" stroke-linecap="round" stroke-linejoin="round" stroke-width="3"/>
        <path id="Path_4508" data-name="Path 4508" d="M388.188,459.4l7.846-7.7c5.136-5.04-1.164-11.459-6.3-6.419" fill="none" stroke="#666" stroke-linecap="round" stroke-linejoin="round" stroke-width="3"/>
        <path id="Path_4509" data-name="Path 4509" d="M346.6,448.407l-8.559,8.4c-7.133,7-5.865,22.559-5.865,22.559l-2.853,2.8,16.8,17.119,2.853-2.8a144.568,144.568,0,0,0,15.586-4.094c4.253-1.374,7.106-4.174,11.386-8.374l18.687-18.34c5.136-5.04-1.165-11.46-6.3-6.42L376.776,470.6" fill="none" stroke="#666" stroke-linecap="round" stroke-linejoin="round" stroke-width="3"/>
        <path id="Path_4510" data-name="Path 4510" d="M346.6,448.407l7.133-7c5.706-5.6,12.706,1.532,7,7.132l-9.986,9.8s7,7.132-.132,14.132" fill="none" stroke="#666" stroke-linecap="round" stroke-linejoin="round" stroke-width="3"/>
      </g>
    </g>
    <g id="Group_5494" data-name="Group 5494">
      <g id="Group_5492" data-name="Group 5492">
        <path id="Path_4511" data-name="Path 4511" d="M409.166,470.814l3.117-1.8c6.235-3.592,1.744-11.386-4.49-7.793l-3.118,1.8c6.235-3.593,1.745-11.386-4.49-7.794L380.269,466.7c6.927-3.992,1.938-12.651-4.99-8.659l-19.05,10.976c-8.659,4.99-11.331,20.37-11.331,20.37l-3.464,2,11.975,20.782,3.463-2a144.584,144.584,0,0,0,16.115-.058c4.461-.263,7.925-2.259,13.12-5.253L408.8,491.789c6.234-3.592,1.744-11.386-4.491-7.793l9.352-5.389C419.891,475.015,415.4,467.222,409.166,470.814Z" fill="#fff"/>
      </g>
      <g id="Group_5493" data-name="Group 5493">
        <path id="Path_4512" data-name="Path 4512" d="M404.675,463.021c6.235-3.593,1.745-11.386-4.49-7.794l-26.5,15.268" fill="none" stroke="#666" stroke-linecap="round" stroke-linejoin="round" stroke-width="3"/>
        <path id="Path_4513" data-name="Path 4513" d="M384.413,474.7l23.38-13.471c6.234-3.593,10.725,4.2,4.49,7.793L388.9,482.489" fill="none" stroke="#666" stroke-linecap="round" stroke-linejoin="round" stroke-width="3"/>
        <path id="Path_4514" data-name="Path 4514" d="M404.131,484.1l9.525-5.489c6.235-3.592,1.744-11.385-4.49-7.793" fill="none" stroke="#666" stroke-linecap="round" stroke-linejoin="round" stroke-width="3"/>
        <path id="Path_4515" data-name="Path 4515" d="M366.62,463.033l-10.391,5.987c-8.659,4.99-11.331,20.37-11.331,20.37l-3.464,2,11.975,20.782,3.463-2a144.584,144.584,0,0,0,16.115-.058c4.461-.263,7.925-2.259,13.12-5.253L408.8,491.789c6.234-3.592,1.744-11.385-4.491-7.793l-14.028,8.083" fill="none" stroke="#666" stroke-linecap="round" stroke-linejoin="round" stroke-width="3"/>
        <path id="Path_4516" data-name="Path 4516" d="M366.62,463.033l8.659-4.989c6.928-3.992,11.917,4.667,4.99,8.659l-12.123,6.985" fill="none" stroke="#666" stroke-linecap="round" stroke-linejoin="round" stroke-width="3"/>
      </g>
    </g>
    <g id="Group_5496" data-name="Group 5496">
      <line id="Line_172" data-name="Line 172" x1="12.318" y2="11.716" transform="translate(406.374 420.953)" fill="none" stroke="#666" stroke-linecap="round" stroke-linejoin="round" stroke-width="2"/>
      <g id="Group_5495" data-name="Group 5495">
        <line id="Line_173" data-name="Line 173" x1="4.81" y2="16.305" transform="translate(395.793 408.141)" fill="none" stroke="#666" stroke-linecap="round" stroke-linejoin="round" stroke-width="2"/>
        <line id="Line_174" data-name="Line 174" y1="3.987" x2="16.526" transform="translate(414.056 439.661)" fill="none" stroke="#666" stroke-linecap="round" stroke-linejoin="round" stroke-width="2"/>
      </g>
    </g>
  </g>
</svg>
