<svg xmlns="http://www.w3.org/2000/svg" viewBox="0 0 155 77.5">
  <defs>
    <style>
      .cls-1 {
        fill: #ccc;
      }
    </style>
  </defs>
  <path id="Path_791" data-name="Path 791" class="cls-1" d="M31.465,12.09a3.875,3.875,0,1,0-3.875,3.875A3.837,3.837,0,0,0,31.465,12.09Zm-6.2,0a2.325,2.325,0,1,1,2.325,2.325A2.283,2.283,0,0,1,25.265,12.09Zm102.61,42.78H126.79V40.61c0-1.085-.62-2.635-2.17-2.635-.93,0-1.7.465-2.325,2.015L115.94,53.32a3.878,3.878,0,0,0-.465,2.015c0,1.24.62,2.79,2.17,2.79h6.2v4.5c0,1.4.62,1.705,1.55,1.705.62,0,1.4-.31,1.4-1.705v-4.5h1.085c.62,0,1.4-.31,1.4-1.55C129.27,56.11,129.27,54.87,127.875,54.87Zm-4.03,0H118.42a.5.5,0,0,1-.465-.465.569.569,0,0,1,.155-.465l4.96-10.54c.155-.155.31-.31.465-.31.31,0,.465.465.465.62V54.87Zm1.705-40.145a2.325,2.325,0,1,0-2.325-2.325A2.384,2.384,0,0,0,125.55,14.725Zm0-3.1a.775.775,0,1,1-.775.775A.732.732,0,0,1,125.55,11.625ZM147.25,0H7.75A7.675,7.675,0,0,0,0,7.75v62A7.675,7.675,0,0,0,7.75,77.5h139.5A7.675,7.675,0,0,0,155,69.75v-62A7.675,7.675,0,0,0,147.25,0Zm4.65,69.75a4.567,4.567,0,0,1-4.65,4.65H7.75A4.567,4.567,0,0,1,3.1,69.75v-62A4.567,4.567,0,0,1,7.75,3.1h139.5a4.567,4.567,0,0,1,4.65,4.65ZM33.17,50.375a4.926,4.926,0,0,0-2.015.31v-1.55c2.17,0,4.34-.155,6.355-.31.31,0,.93,0,.93-.93s-.62-.93-.775-.93c-.31,0-2.17.155-2.635.155-1.085,0-2.79.155-3.72.155v-1.24c0-.775-.31-.93-.93-.93a1.069,1.069,0,0,0-.775.465,8.346,8.346,0,0,1-.155,1.7H27.28c-.775,0-1.395,0-1.395.93s.62.93.93.93H29.45v2.17a6.809,6.809,0,0,0-3.72,6.045c0,1.86.93,3.565,2.325,3.565a3.4,3.4,0,0,0,2.325-1.24c.155.155.31.465.62.465a1,1,0,0,0,.93-.93c0-.31,0-.31-.31-.93a28.694,28.694,0,0,0,2.79-5.89,3.269,3.269,0,0,1,2.48,3.565,3.457,3.457,0,0,1-3.72,3.72c-.465,0-.93,0-.93.93,0,1.085.62,1.085.93,1.085a6.48,6.48,0,0,0,3.875-1.4,5.173,5.173,0,0,0,1.55-4.03C38.75,52.855,36.89,50.375,33.17,50.375ZM28.365,59.21c-.31,0-1.085-.155-1.085-1.7a5.125,5.125,0,0,1,2.17-4.185,22.528,22.528,0,0,0,.465,4.65C29.605,58.435,28.83,59.21,28.365,59.21Zm2.79-3.255A31.238,31.238,0,0,1,31,52.39a5,5,0,0,1,1.86-.31A12.04,12.04,0,0,1,31.155,55.955ZM66.65,15.19H79.205c.31,0,.775,0,.775-.93s-.62-.93-.775-.93H66.65c-.31,0-.775.155-.775.93C66.03,15.19,66.5,15.19,66.65,15.19ZM51,23.1c0,.62.31,1.085.775,1.085.155,0,.31,0,.465-.31.465-.465.62-.775.93-.93v6.2c0,.31,0,.93.775.93.62,0,.775-.31.775-.93V22.01a10.512,10.512,0,0,0,.93,1.4c.155.155.31.31.465.31.465,0,.62-.62.62-1.085,0-.31-.155-.465-.93-1.395a7.752,7.752,0,0,1-.775-1.085,8.94,8.94,0,0,0,1.24-3.565,1.1,1.1,0,0,0-1.24-1.24H54.56v-1.86c0-.31,0-.93-.775-.93-.62,0-.775.31-.775.93V15.5h-1.4c-.155,0-.775,0-.775.93,0,.775.465.93.775.93H54.25c.155,0,.465,0,.465.31a13.069,13.069,0,0,1-2.48,3.875C51.15,22.475,51,22.63,51,23.1ZM75.64,54.87c3.565-2.945,5.425-4.5,5.425-8.99,0-5.115-2.79-7.75-6.355-7.75-5.425,0-6.665,5.735-6.665,7.595,0,1.705,1.24,1.86,1.55,1.86,1.24,0,1.4-1.085,1.4-1.86.155-1.705.775-4.495,3.72-4.495,2.635,0,3.41,2.325,3.41,4.495,0,3.1-1.085,4.03-5.425,7.75-4.805,4.03-4.96,7.44-4.96,7.9,0,.62.31,2.325,1.86,2.325H79.67c.62,0,1.4-.31,1.4-1.55a1.35,1.35,0,0,0-1.4-1.55h-7.6c-.31,0-.62-.155-.62-.465a2.314,2.314,0,0,1,.465-1.085C72.385,58.125,72.7,57.35,75.64,54.87ZM62.93,15.19H61.38V13.485c0-.62-.155-.93-.775-.93s-.62.62-.62.93V15.19h-1.4c-1.085,0-1.7.465-1.7,2.015V23.87c0,1.7.62,2.015,1.7,2.015h1.4V29.14c0,.31,0,.93.775.93s.775-.62.775-.93V25.885h1.55c1.085,0,1.705-.465,1.705-2.015V17.205C64.635,15.655,64.015,15.19,62.93,15.19Zm-2.945,9.145H58.9c-.465,0-.465-.31-.465-.62v-2.17h1.7v2.79Zm0-4.65H58.28v-2.17c0-.31.155-.62.465-.62H59.83v2.79Zm3.1,3.875c0,.465-.155.62-.465.62H61.38V21.235h1.705Zm0-3.875H61.38V16.9h1.24c.31,0,.465.155.465.62ZM88.97,28.83a3.721,3.721,0,0,0,2.945-1.7c1.085-1.7,1.24-4.805,1.24-6.2,0-2.79-.31-7.905-4.03-7.905s-4.03,4.96-4.03,7.905c0,1.7.155,4.5,1.24,6.2A2.785,2.785,0,0,0,88.97,28.83Zm0-13.8c2.015,0,2.325,3.255,2.325,5.89s-.155,5.89-2.325,5.89c-2.015,0-2.325-3.255-2.325-5.89S86.955,15.035,88.97,15.035ZM68.82,23.87h8.37c1.085,0,1.7-.465,1.7-2.015v-2.79c0-1.7-.62-2.17-1.7-2.17H69.13c-1.24,0-1.705.465-1.705,2.17V23.1a14.737,14.737,0,0,1-.155,2.17,8.18,8.18,0,0,1-.93,2.945,1.4,1.4,0,0,0-.155.775,1.037,1.037,0,0,0,.93,1.085c.31,0,.465-.155.93-.93A27.29,27.29,0,0,0,68.82,23.87Zm.155-4.5c0-.465.155-.775.62-.775h7.13a.709.709,0,0,1,.62.775v1.86c0,.465-.155.775-.62.775h-7.75ZM91.76,52.7H87.11c-.93,0-1.4.62-1.4,1.7,0,.31,0,1.7,1.4,1.7h4.65q1.4,0,1.4-1.86A1.383,1.383,0,0,0,91.76,52.7Zm18.91-39.525c-3.72,0-4.03,4.96-4.03,7.9,0,1.705.155,4.495,1.24,6.2a3.669,3.669,0,0,0,2.945,1.705,3.721,3.721,0,0,0,2.945-1.705c1.085-1.705,1.24-4.8,1.24-6.2C114.7,18.135,114.235,13.175,110.67,13.175Zm0,13.8c-2.015,0-2.325-3.255-2.325-5.89s.31-5.89,2.325-5.89S113,18.445,113,21.08C112.84,23.56,112.685,26.97,110.67,26.97ZM57.2,37.975c-.93,0-1.085.775-1.24,1.395-.465,1.55-1.24,3.1-2.945,3.565-1.705.31-2.17.465-2.17,1.7a1.248,1.248,0,0,0,1.085,1.4H55.49v16.43c0,1.4.62,1.705,1.55,1.705a1.5,1.5,0,0,0,1.55-1.705V39.37C58.435,38.75,57.97,37.975,57.2,37.975Zm50.685,12.09c.62-.465,2.48-1.705,2.48-5.27,0-3.41-1.86-6.82-6.045-6.82-5.27,0-6.2,5.58-6.2,6.82,0,1.085.62,1.7,1.4,1.7,1.24,0,1.24-.93,1.4-1.7.155-1.085.62-3.565,3.255-3.565,2.17,0,3.1,1.86,3.1,3.875,0,2.945-1.4,4.03-3.1,4.03h-.62c-1.085,0-1.24.93-1.24,1.55,0,.465,0,1.4,1.24,1.4h.62c2.635,0,3.72,1.7,3.72,4.495,0,3.875-2.635,4.65-3.72,4.65a3.838,3.838,0,0,1-3.72-3.41c-.155-1.4-.31-2.17-1.55-2.17-.93,0-1.4.62-1.4,1.705a8.683,8.683,0,0,0,1.085,3.875c.62,1.24,2.015,3.255,5.735,3.255,4.65,0,6.665-3.72,6.665-7.75A7.732,7.732,0,0,0,107.88,50.065Zm-5.27-22.94c1.085-1.7,1.24-4.805,1.24-6.2,0-2.79-.31-7.905-4.03-7.905s-4.03,4.96-4.03,7.905c0,1.7.155,4.5,1.24,6.2a3.669,3.669,0,0,0,2.945,1.7A3.228,3.228,0,0,0,102.61,27.125Zm-5.115-6.2c0-2.79.31-5.89,2.325-5.89s2.325,3.255,2.325,5.89-.155,5.89-2.325,5.89C97.805,26.97,97.5,23.715,97.5,20.925Z"/>
</svg>
