<svg xmlns="http://www.w3.org/2000/svg" width="224.578" height="233.328" viewBox="0 0 224.578 233.328">
  <path id="Path_1044" data-name="Path 1044" d="M141.391,22.626a4.263,4.263,0,0,0-1.789.358,4.16,4.16,0,0,0-2.057,2.057,4.971,4.971,0,0,0-.447,1.431,10.913,10.913,0,0,0,1.7.447,6.99,6.99,0,0,0,3.309-.179,4.245,4.245,0,0,0,2.146-1.968,3.831,3.831,0,0,0,.537-1.341A8.806,8.806,0,0,0,143,22.895,3.064,3.064,0,0,0,141.391,22.626Zm11.985,178.685c-.179.089-.447.268-.8.447-.268.179-.626.358-.894.537a14.576,14.576,0,0,0-1.968,1.52,7.513,7.513,0,0,0-1.61,2.146,7.223,7.223,0,0,0-.537,4.65,9.763,9.763,0,0,0,.716,2.236,16,16,0,0,0,2.773-1.163,10.564,10.564,0,0,0,3.935-3.756,6.485,6.485,0,0,0,.179-4.65,7.927,7.927,0,0,0-.984-2.146A1.142,1.142,0,0,0,153.375,201.312Zm26.831-16.366a6.2,6.2,0,0,0-1.52-1.61l-.537.537a3.891,3.891,0,0,0-.537.626,5.786,5.786,0,0,1-.715.8,9.091,9.091,0,0,0-1.342,2.057c-.179.358-.358.8-.537,1.163a5.127,5.127,0,0,0-.358,1.252,6.427,6.427,0,0,0,.984,4.382,9.689,9.689,0,0,0,1.342,1.789,13.521,13.521,0,0,0,2.057-1.967l.447-.447c.089-.179.268-.358.358-.537a5.068,5.068,0,0,0,.715-1.163,7.051,7.051,0,0,0,.894-2.5,2.947,2.947,0,0,0,0-1.252c-.089-.447-.179-.8-.268-1.163A4.541,4.541,0,0,0,180.207,184.946ZM160.8,197.466c-.268.268-.626.537-.894.8l-.894.894a7.1,7.1,0,0,0-1.342,2.236,5.881,5.881,0,0,0-.358,2.415,7.688,7.688,0,0,0,.358,2.146,7.927,7.927,0,0,0,.984,2.146,7.037,7.037,0,0,0,.8-.358,3.625,3.625,0,0,0,.8-.447,9.434,9.434,0,0,1,.984-.626,9.021,9.021,0,0,0,3.4-4.114,6.006,6.006,0,0,0-.358-4.561,8.043,8.043,0,0,0-1.163-1.967A9.073,9.073,0,0,0,160.8,197.466ZM146.668,25.309a3.816,3.816,0,0,0-2.236,1.968,3.926,3.926,0,0,0-.537,1.431,2.883,2.883,0,0,0,.537.179,11.4,11.4,0,0,0,1.252.358,7.25,7.25,0,0,0,3.4.089,4.2,4.2,0,0,0,2.325-1.878,5.862,5.862,0,0,0,.626-1.341,15.041,15.041,0,0,0-1.789-.715A6.959,6.959,0,0,0,146.668,25.309Zm24.6,164.645a.312.312,0,0,1-.179.089c-.089.089-.268.179-.447.358a14.125,14.125,0,0,0-1.431,1.252,10.719,10.719,0,0,0-1.52,1.878,8.1,8.1,0,0,0-1.163,2.325,7.648,7.648,0,0,0,.447,4.561,11.131,11.131,0,0,0,1.163,1.967.277.277,0,0,0,.179-.089,5.291,5.291,0,0,1,.537-.358,13.449,13.449,0,0,0,1.61-1.252,8.432,8.432,0,0,0,.894-.894,11.352,11.352,0,0,0,.894-1.073,9.092,9.092,0,0,0,1.163-2.5,6.175,6.175,0,0,0-.8-4.472A9.689,9.689,0,0,0,171.263,189.954ZM127.438,41.765l-4.293-6.171-5.724,4.829-5.1-5.545-5.1,5.545L101.5,35.594l-4.293,6.171-6.35-4.024L87.37,44.358l-6.8-3.13L77.8,48.293l-7.155-2.236-1.61,7.333-7.423-1.252-.626,7.512-7.513-.268.268,7.512-7.513.626,1.252,7.423-7.334,1.61,2.236,7.155L35.317,86.3l3.13,6.8-5.456,3.577H21.9l7.155,21.464L21.9,139.6H31.919v.089l6.618,3.488-3.13,6.8,7.066,2.594-2.236,7.155,7.334,1.61-1.252,7.423,7.513.626-.268,7.512,7.513-.268.626,7.512,7.423-1.252,1.61,7.333,7.155-2.236,2.594,7.065,6.8-3.13,3.488,6.618,6.35-4.024,4.293,6.171,5.724-4.829,5.1,5.545,5.1-5.545,5.724,4.829,4.293-6.171,6.35,4.024,3.488-6.618,6.8,3.13,2.594-7.065,7.155,2.236,1.61-7.333,7.423,1.252.626-7.512,7.513.268-.268-7.512,7.513-.626-1.252-7.423,7.334-1.61L182,152.571l7.066-2.594-3.13-6.8,6.618-3.488V139.6h10.017l-7.155-21.464,7.155-21.464h-11.9l-4.74-3.577,3.13-6.8L182,83.708l2.236-7.155-7.334-1.61,1.252-7.423-7.513-.626.268-7.512-7.513.268-.626-7.512-7.423,1.252-1.61-7.333-7.155,2.236-2.594-7.065-6.8,3.13L133.7,37.74Zm71.371,57.5-5.992,17.976-.268.8.268.8,5.992,17.976H25.569l5.992-17.976.268-.8-.268-.8L25.569,99.27ZM195.769,65.2a3.47,3.47,0,0,0-1.878-.179,6.937,6.937,0,0,0-1.61.447,12.523,12.523,0,0,0-1.52.894,4.088,4.088,0,0,0,.358.537c.089.179.268.358.358.537.179.179.358.447.537.626a9.827,9.827,0,0,0,1.342,1.431,7.738,7.738,0,0,0,.894.626,4.178,4.178,0,0,0,.894.447,5.115,5.115,0,0,0,3.488-.089,7.343,7.343,0,0,0,1.61-.8,20.448,20.448,0,0,0-1.163-1.967A9.037,9.037,0,0,0,195.769,65.2Zm-1.52-4.74a7.319,7.319,0,0,0-3.4-2.236,4.949,4.949,0,0,0-3.488.537,5.981,5.981,0,0,0-1.431.984,1.985,1.985,0,0,0,.358.447c.268.268.626.715.984,1.073a7.12,7.12,0,0,0,3.309,2.146,4.788,4.788,0,0,0,3.4-.358,12.523,12.523,0,0,0,1.52-.894,4.094,4.094,0,0,0-.358-.537C194.964,61.35,194.606,60.9,194.249,60.456Zm-11-13.057a14.071,14.071,0,0,0-1.7-1.073,4.963,4.963,0,0,0-1.968-.537,4.288,4.288,0,0,0-3.13,1.073,11.6,11.6,0,0,0-1.163,1.163,12.58,12.58,0,0,0,1.52,1.252A6.548,6.548,0,0,0,180.3,50.8a3.954,3.954,0,0,0,1.789-.179,7.131,7.131,0,0,0,1.431-.715,6.334,6.334,0,0,0,1.252-1.073l-.447-.447A6.038,6.038,0,0,0,183.248,47.4Zm5.724,6.26a7.906,7.906,0,0,0-3.488-1.968,4.831,4.831,0,0,0-3.309.8,9.684,9.684,0,0,0-1.342,1.073A7.743,7.743,0,0,0,182.353,55a6.591,6.591,0,0,0,3.4,1.789,4.826,4.826,0,0,0,3.309-.626,4.447,4.447,0,0,0,1.342-.984,2.214,2.214,0,0,1-.358-.537C189.777,54.464,189.419,54.017,188.972,53.659Zm-11.9-11.894a10.2,10.2,0,0,0-1.7-.894,3.171,3.171,0,0,0-.984-.268,3.669,3.669,0,0,0-.984-.089,4.213,4.213,0,0,0-3.041,1.341,5.49,5.49,0,0,0-1.073,1.252,15.5,15.5,0,0,0,1.61,1.163,7.7,7.7,0,0,0,3.488,1.163,4.679,4.679,0,0,0,3.041-1.163,6,6,0,0,0,1.163-1.163A4.606,4.606,0,0,0,177.077,41.765Zm-13.058-9.39a7.293,7.293,0,0,0-3.667-.715,4.157,4.157,0,0,0-2.683,1.7,7.276,7.276,0,0,0-.8,1.341,9.99,9.99,0,0,0,1.7.8,6.583,6.583,0,0,0,3.488.626,3.215,3.215,0,0,0,1.61-.626,6.157,6.157,0,0,0,1.163-.984,4.479,4.479,0,0,0,.894-1.252,1.985,1.985,0,0,1-.447-.358A10.226,10.226,0,0,1,164.019,32.374Zm4.919,3.667a6.808,6.808,0,0,0-1.878-.268,4.28,4.28,0,0,0-2.862,1.52,5.678,5.678,0,0,0-.894,1.341,10.115,10.115,0,0,0,1.7.984,6.545,6.545,0,0,0,3.488.894,5.046,5.046,0,0,0,2.951-1.341,5.488,5.488,0,0,0,1.073-1.252,10.5,10.5,0,0,0-1.7-1.163A16.119,16.119,0,0,0,168.938,36.041Zm-11.806-7.423a6.938,6.938,0,0,0-3.577-.358,4.578,4.578,0,0,0-2.5,1.878,11.037,11.037,0,0,0-.715,1.341l.537.268a6.414,6.414,0,0,0,1.252.447,6.51,6.51,0,0,0,3.488.358,4.911,4.911,0,0,0,2.594-1.7,7.276,7.276,0,0,0,.8-1.341l-.537-.268A4.673,4.673,0,0,0,157.132,28.618ZM77.8,25.4a6.913,6.913,0,0,0-3.578.089,6.811,6.811,0,0,0-1.789.715,5.862,5.862,0,0,0,.626,1.341,4.542,4.542,0,0,0,2.325,1.878,6.221,6.221,0,0,0,3.4-.089,11.4,11.4,0,0,0,1.252-.358,2.883,2.883,0,0,0,.537-.179,12.119,12.119,0,0,0-.537-1.431A3.815,3.815,0,0,0,77.8,25.4Zm4.472,1.431a6.989,6.989,0,0,0,3.309.179,10.913,10.913,0,0,0,1.7-.447,6,6,0,0,0-.447-1.431,4.16,4.16,0,0,0-2.057-2.057,5.783,5.783,0,0,0-1.789-.358,5.228,5.228,0,0,0-1.7.179,6.926,6.926,0,0,0-1.789.537,8.7,8.7,0,0,0,.537,1.341A4.594,4.594,0,0,0,82.272,26.83ZM48.823,187.36a16.263,16.263,0,0,0-1.342-2.057c-.268-.268-.447-.537-.715-.8a3.888,3.888,0,0,0-.537-.626l-.537-.537a8.806,8.806,0,0,0-1.52,1.61,9.251,9.251,0,0,0-.984,1.878c-.089.358-.179.715-.268,1.163a2.955,2.955,0,0,0,0,1.252,6.49,6.49,0,0,0,.894,2.5,8.164,8.164,0,0,0,.716,1.163c.089.179.268.358.358.537.179.179.268.358.447.447a22.728,22.728,0,0,0,2.057,1.967,9.686,9.686,0,0,0,1.342-1.789,6.818,6.818,0,0,0,.984-4.382,6.587,6.587,0,0,0-.358-1.252A5.879,5.879,0,0,0,48.823,187.36ZM60.449,32.553c-.537.268-.984.447-1.252.626a3.227,3.227,0,0,0-.447.358,4.479,4.479,0,0,0,.894,1.252,6.684,6.684,0,0,0,1.163.984,6.716,6.716,0,0,0,1.61.626,6.427,6.427,0,0,0,3.488-.626,9.989,9.989,0,0,0,1.7-.8,7.278,7.278,0,0,0-.8-1.341,4.532,4.532,0,0,0-2.683-1.7A6.157,6.157,0,0,0,60.449,32.553ZM55.441,36.22a7.471,7.471,0,0,0-1.7.715,7.082,7.082,0,0,0-1.7,1.163,5.489,5.489,0,0,0,1.073,1.252,4.8,4.8,0,0,0,2.951,1.341,7.475,7.475,0,0,0,3.488-.894,10.115,10.115,0,0,0,1.7-.984,5.678,5.678,0,0,0-.894-1.341,4.445,4.445,0,0,0-2.862-1.52A5.218,5.218,0,0,0,55.441,36.22Zm11.806-7.512a5.766,5.766,0,0,0-1.252.537l-.537.268a7.277,7.277,0,0,0,.8,1.341,4.3,4.3,0,0,0,2.594,1.7,6.51,6.51,0,0,0,3.488-.358c.537-.179.984-.358,1.252-.447a2.641,2.641,0,0,0,.537-.268,4.6,4.6,0,0,0-.716-1.341,4.349,4.349,0,0,0-2.5-1.878A8.306,8.306,0,0,0,67.247,28.708ZM55.173,191.921a14.125,14.125,0,0,0-1.431-1.252c-.179-.179-.358-.268-.447-.358a.277.277,0,0,0-.179-.089,9.688,9.688,0,0,0-1.342,1.789,6.087,6.087,0,0,0-.8,4.472,7.082,7.082,0,0,0,1.163,2.5,9.477,9.477,0,0,0,.894,1.073,8.43,8.43,0,0,0,.894.894,13.437,13.437,0,0,0,1.61,1.252,1.872,1.872,0,0,0,.537.358.277.277,0,0,0,.179.089,11.129,11.129,0,0,0,1.163-1.967,6.948,6.948,0,0,0,.447-4.561,6.322,6.322,0,0,0-1.163-2.325A10.716,10.716,0,0,0,55.173,191.921Zm29.515,15.651a20.446,20.446,0,0,0-2.147-1.341,8.155,8.155,0,0,0-1.789-.715c-.447-.179-.716-.268-.716-.268a9.762,9.762,0,0,0-.716,2.236,8.985,8.985,0,0,0-.089,2.236,6.419,6.419,0,0,0,.8,2.415,9.045,9.045,0,0,0,4.382,3.4,20.82,20.82,0,0,0,2.862.894,9.319,9.319,0,0,0,.447-2.325,7.709,7.709,0,0,0-1.073-4.65A12.935,12.935,0,0,0,84.687,207.572Zm37.564,2.415-1.073.268a13.576,13.576,0,0,0-2.5.8,7.547,7.547,0,0,0-4.561,5.813,7.4,7.4,0,0,0-.089,2.415,16.136,16.136,0,0,0,3.13-.179,10.513,10.513,0,0,0,5.187-2.325,6.607,6.607,0,0,0,1.789-4.561,8.139,8.139,0,0,0-.179-2.415,5.52,5.52,0,0,0-.8.089C122.967,209.9,122.609,209.987,122.251,209.987Zm9.48-1.252c-.358.179-.8.268-1.163.447s-.8.358-1.163.537a7.834,7.834,0,0,0-2.147,1.7,7.459,7.459,0,0,0-.715,1.073c-.179.358-.358.715-.537,1.163a6.848,6.848,0,0,0-.358,2.236,8.663,8.663,0,0,0,.179,2.415,6.022,6.022,0,0,0,.894-.089,4.617,4.617,0,0,0,.984-.179,8.309,8.309,0,0,0,1.163-.358,9.591,9.591,0,0,0,4.83-2.862,6.717,6.717,0,0,0,1.252-4.65,10.761,10.761,0,0,0-.447-2.415S133.252,208.2,131.731,208.735Zm-25.937,2.415a13.567,13.567,0,0,0-2.5-.8c-.358-.089-.8-.179-1.073-.268-.358-.089-.626-.089-.894-.179a5.522,5.522,0,0,0-.8-.089,8.663,8.663,0,0,0-.179,2.415,7.051,7.051,0,0,0,1.789,4.561,10.513,10.513,0,0,0,5.187,2.325,16,16,0,0,0,3.13.179,8.278,8.278,0,0,0-2.325-6.707A12.511,12.511,0,0,0,105.794,211.149Zm-33-8.675a7.875,7.875,0,0,1-.894-.537c-.268-.179-.537-.268-.8-.447a4.079,4.079,0,0,0-.715-.358,13.309,13.309,0,0,0-.984,2.146,6.485,6.485,0,0,0,.179,4.65,9.912,9.912,0,0,0,3.935,3.756,16,16,0,0,0,2.773,1.163A9.764,9.764,0,0,0,77,210.613a7.223,7.223,0,0,0-.537-4.65,9.629,9.629,0,0,0-1.61-2.146C74.133,203.369,73.418,202.832,72.792,202.474Zm-8.228-4.024c-.268-.268-.626-.537-.894-.8a12.605,12.605,0,0,0-2.236-1.52,11.129,11.129,0,0,0-1.163,1.968,6.5,6.5,0,0,0-.358,4.561,8.586,8.586,0,0,0,3.4,4.114,6.011,6.011,0,0,0,.984.626,8.051,8.051,0,0,0,.8.447,3.3,3.3,0,0,0,.8.358,9.8,9.8,0,0,0,.984-2.146,7.686,7.686,0,0,0,.358-2.146,7.532,7.532,0,0,0-.358-2.415,7.1,7.1,0,0,0-1.342-2.236A2.979,2.979,0,0,1,64.564,198.45Zm79.242,6.886c-.447.179-1.163.447-1.789.715a14.1,14.1,0,0,0-2.147,1.341,7.5,7.5,0,0,0-1.878,1.878,7.576,7.576,0,0,0-1.073,4.65,9.32,9.32,0,0,0,.447,2.325,17.348,17.348,0,0,0,2.862-.894,9.045,9.045,0,0,0,4.382-3.4,5.161,5.161,0,0,0,.8-2.415,8.983,8.983,0,0,0-.089-2.236,9.764,9.764,0,0,0-.715-2.236A6.961,6.961,0,0,0,143.806,205.336Zm-45.882,7.423a7.461,7.461,0,0,0-.715-1.073,7.833,7.833,0,0,0-2.147-1.7,6.744,6.744,0,0,0-1.163-.537A6.208,6.208,0,0,0,92.737,209a16.492,16.492,0,0,0-2.683-.715,9.492,9.492,0,0,0-.447,2.415,6.831,6.831,0,0,0,1.252,4.65,9.589,9.589,0,0,0,4.83,2.862c.447.089.8.268,1.163.358s.716.089.984.179a6.025,6.025,0,0,0,.894.089,8.663,8.663,0,0,0,.179-2.415,10.532,10.532,0,0,0-.358-2.236C98.282,213.564,98.1,213.206,97.924,212.759ZM185.3,175.913a9.865,9.865,0,0,0-1.52,2.146,9.7,9.7,0,0,0-1.7,4.561,6.475,6.475,0,0,0,1.342,4.114,8.8,8.8,0,0,0,1.52,1.61,2.471,2.471,0,0,0,.537-.537,4.133,4.133,0,0,1,.626-.626,1.95,1.95,0,0,0,.358-.447,1.571,1.571,0,0,1,.358-.447,13.248,13.248,0,0,0,1.252-2.236A5.776,5.776,0,0,0,187,177.344,12.5,12.5,0,0,0,185.3,175.913Zm-.537-132.9a11.387,11.387,0,0,0,1.163,1.7c.447.447.8.894,1.073,1.163l.447.447a5.235,5.235,0,0,0,1.163-1.252,5.346,5.346,0,0,0,.715-1.431,3.277,3.277,0,0,0,.089-1.878,8.615,8.615,0,0,0-2.057-3.756,15.131,15.131,0,0,0-1.7-1.61,5.648,5.648,0,0,0-1.073,1.341,4.826,4.826,0,0,0-.626,3.309A7.589,7.589,0,0,0,184.768,43.017Zm-33.36-20.748a12.268,12.268,0,0,0,1.789.8,4.315,4.315,0,0,0,.537-1.431,4.266,4.266,0,0,0-.447-3.041,7.071,7.071,0,0,0-2.951-2.415c-.537-.268-.984-.447-1.342-.626-.358-.089-.626-.179-.626-.179a9,9,0,0,0-.447,1.431,4.385,4.385,0,0,0,.626,3.041A8.118,8.118,0,0,0,151.408,22.269Zm40.515,28.8a8.729,8.729,0,0,0,.984,1.252,5.47,5.47,0,0,0,.447.537,8.22,8.22,0,0,0,1.252-1.163,4.242,4.242,0,0,0,1.073-3.309,9.467,9.467,0,0,0-1.7-4.024,13.368,13.368,0,0,0-1.61-1.789,5.234,5.234,0,0,0-1.163,1.252,4.958,4.958,0,0,0-.894,3.4A8.228,8.228,0,0,0,191.923,51.066ZM171.442,32.374c.447.537.894.984,1.342,1.431a16.673,16.673,0,0,0,1.7,1.341,9.542,9.542,0,0,0,.894-1.341,4.457,4.457,0,0,0,.268-3.309,8.075,8.075,0,0,0-2.5-3.22,11.308,11.308,0,0,0-1.878-1.252,5.778,5.778,0,0,0-.8,1.431,4.614,4.614,0,0,0-.089,3.309A8.4,8.4,0,0,0,171.442,32.374Zm-12.7-6.886c.537.268.894.537,1.252.715l.537.268a5.818,5.818,0,0,0,.626-1.431,3.947,3.947,0,0,0-.268-3.13,7.487,7.487,0,0,0-2.862-2.683,10.326,10.326,0,0,0-1.342-.715l-.537-.268a5.706,5.706,0,0,0-.537,1.431,4.5,4.5,0,0,0,.447,3.13A7.028,7.028,0,0,0,158.742,25.488Zm39.621,33.984a4.086,4.086,0,0,1,.358.537,4.934,4.934,0,0,0,1.342-1.073,4.584,4.584,0,0,0,1.431-3.309,8.747,8.747,0,0,0-1.431-4.2,12.67,12.67,0,0,0-.984-1.431,5.477,5.477,0,0,0-.447-.537,8.221,8.221,0,0,0-1.252,1.163,4.786,4.786,0,0,0-1.163,3.309,8.611,8.611,0,0,0,1.342,4.024A5.816,5.816,0,0,0,198.363,59.472ZM165.807,29.334a7.2,7.2,0,0,0,1.252.8,2.214,2.214,0,0,1,.537.358,4.539,4.539,0,0,0,.716-1.341,6.7,6.7,0,0,0,.358-1.431,3.875,3.875,0,0,0-.358-1.7,8.513,8.513,0,0,0-2.683-2.951A9.693,9.693,0,0,0,163.75,22a5.819,5.819,0,0,0-.626,1.431,4.52,4.52,0,0,0,.179,3.22A10.182,10.182,0,0,0,165.807,29.334Zm11.9,7.155a7.865,7.865,0,0,0,.537.894,10.3,10.3,0,0,0,1.252,1.52,16.817,16.817,0,0,0,1.61,1.431,4.446,4.446,0,0,0,.984-1.341,4.388,4.388,0,0,0,.537-3.309,8.383,8.383,0,0,0-2.236-3.488,16.955,16.955,0,0,0-1.789-1.431,4.911,4.911,0,0,0-.894,1.341,4.545,4.545,0,0,0-.358,3.309C177.434,35.862,177.613,36.131,177.7,36.488Zm38.727,59.92a10.481,10.481,0,0,0-.626,4.65c.089.715.089,1.341.179,1.789a4.051,4.051,0,0,1,.089.715,6.568,6.568,0,0,0,1.878-.358,4.808,4.808,0,0,0,2.951-2.594,10.133,10.133,0,0,0,.626-4.919,16.8,16.8,0,0,0-.537-2.683,5.828,5.828,0,0,0-4.561,3.4Zm3.13,8.228a5.011,5.011,0,0,0-1.431,1.61,7.188,7.188,0,0,0-.8,2.325,23.23,23.23,0,0,0-.268,2.325,13.467,13.467,0,0,0,.089,2.594,6.38,6.38,0,0,0,1.968-.179,4.954,4.954,0,0,0,3.22-2.325c.179-.358.358-.715.537-1.163a6.587,6.587,0,0,0,.358-1.252,12.23,12.23,0,0,0,.179-2.5v-1.073c0-.358-.089-.626-.089-.894a5.9,5.9,0,0,0-.179-.8,6.129,6.129,0,0,0-1.878.358A8.321,8.321,0,0,0,219.559,104.636Zm-.626,11.805a10.291,10.291,0,0,0-1.073,2.236c-.089.179-.089.447-.179.626s-.089.447-.179.626a5.233,5.233,0,0,0-.179,1.163,25.518,25.518,0,0,0-.179,2.683,6.054,6.054,0,0,0,1.968,0,5.373,5.373,0,0,0,3.488-2.057,8.1,8.1,0,0,0,1.163-2.325,12.281,12.281,0,0,0,.447-2.5,17.365,17.365,0,0,0,.089-1.967v-.8a6.38,6.38,0,0,0-1.968.179A5.368,5.368,0,0,0,218.933,116.441Zm-16.457-50.8A14.03,14.03,0,0,0,203.55,67.7a5.434,5.434,0,0,0,1.52-.984,4.369,4.369,0,0,0,1.7-3.22V62.334c-.089-.358-.179-.8-.268-1.163a15.23,15.23,0,0,0-.8-2.146,8.272,8.272,0,0,1-.447-.894,3.785,3.785,0,0,0-.447-.626c-.268-.358-.447-.626-.447-.626a6.177,6.177,0,0,0-1.431,1.073,5.211,5.211,0,0,0-.984,1.341,5.78,5.78,0,0,0-.537,1.878A10.971,10.971,0,0,0,202.477,65.643Zm11.359,21.374a10.232,10.232,0,0,0-.179,4.65,13.341,13.341,0,0,0,.358,1.7,6.563,6.563,0,0,0,.179.715,6.546,6.546,0,0,0,1.789-.537,10.727,10.727,0,0,0,1.52-.984,5.167,5.167,0,0,0,1.163-1.789,7.181,7.181,0,0,0,.358-2.415,10.515,10.515,0,0,0-.268-2.415c-.358-1.431-.715-2.594-.715-2.594a6.366,6.366,0,0,0-1.7.715A4.945,4.945,0,0,0,213.835,87.017Zm-7.513-15.293.268,1.073.268,1.073a17.5,17.5,0,0,0,.984,2.236,7.592,7.592,0,0,0,1.61-.8,5.115,5.115,0,0,0,2.057-3.13,10.108,10.108,0,0,0,0-2.325,16.349,16.349,0,0,0-.715-2.236c-.268-.715-.537-1.252-.715-1.7a2.474,2.474,0,0,1-.358-.626,5.435,5.435,0,0,0-1.52.984,8.961,8.961,0,0,0-1.163,1.341,4.338,4.338,0,0,0-.716,1.878A6.238,6.238,0,0,0,206.323,71.725Zm3.935,8.5a16.7,16.7,0,0,0,.358,2.236,12.955,12.955,0,0,0,.537,1.7c.179.447.268.626.268.626a6.367,6.367,0,0,0,1.7-.715,5.037,5.037,0,0,0,2.325-2.951,7.175,7.175,0,0,0,.179-2.415,17.858,17.858,0,0,0-.447-2.325,14.72,14.72,0,0,0-.984-2.415,6.054,6.054,0,0,0-1.61.894,5.206,5.206,0,0,0-2.146,3.13A4.769,4.769,0,0,0,210.258,80.221Zm1.163,21.643a8.411,8.411,0,0,0-2.236-3.846,5,5,0,0,0-3.667-1.073,8.913,8.913,0,0,0-1.878.358,15.8,15.8,0,0,0,.626,2.236A7.582,7.582,0,0,0,206.5,103.2a5.947,5.947,0,0,0,3.578,1.341,9.587,9.587,0,0,0,1.878-.179,4.051,4.051,0,0,0-.089-.715C211.689,103.115,211.6,102.489,211.421,101.863Zm.447,7.244a7.386,7.386,0,0,0-1.252-1.967,4.172,4.172,0,0,0-1.789-1.073,15.793,15.793,0,0,0-1.789-.358,11.214,11.214,0,0,0-1.968.179,2.859,2.859,0,0,0,.089.626c0,.179.089.447.089.715a3.935,3.935,0,0,0,.179.894,11.326,11.326,0,0,0,.716,2.057,9.742,9.742,0,0,0,.537.984,3.5,3.5,0,0,0,.716.894,6.524,6.524,0,0,0,5.456,1.7,15.065,15.065,0,0,0-.268-2.5A12.064,12.064,0,0,0,211.868,109.107ZM142.553,18.781a14.472,14.472,0,0,0,1.61.894c.984.447,1.789.715,1.789.715a5.6,5.6,0,0,0,.358-1.431,4.36,4.36,0,0,0-.716-2.951,7.284,7.284,0,0,0-3.041-2.146,11.639,11.639,0,0,0-1.968-.626,4.01,4.01,0,0,0-.268,1.431,4.044,4.044,0,0,0,.8,2.862A6.262,6.262,0,0,0,142.553,18.781ZM212.136,130.75v-1.163a5.234,5.234,0,0,0-.179-1.163,6.182,6.182,0,0,0-.894-2.236,5.352,5.352,0,0,0-3.309-2.146,6.462,6.462,0,0,0-1.968-.179,4.051,4.051,0,0,1-.089.715,10.631,10.631,0,0,0,0,1.7,6.012,6.012,0,0,0,.358,2.146,5.04,5.04,0,0,0,.358,1.073,6.012,6.012,0,0,0,.537,1.073,5.663,5.663,0,0,0,3.22,2.325,6.906,6.906,0,0,0,1.968.358Zm.716-7.244a19.1,19.1,0,0,0,0-2.5,4.49,4.49,0,0,0-.179-1.073c0-.179-.089-.358-.089-.537-.089-.179-.089-.358-.179-.537a5.154,5.154,0,0,0-1.163-2.057,5.517,5.517,0,0,0-3.488-1.789,5.848,5.848,0,0,0-1.968,0v.715a6.424,6.424,0,0,0,.179,1.7,10.755,10.755,0,0,0,.537,2.146,8.707,8.707,0,0,0,.984,2.057,5.87,5.87,0,0,0,3.4,1.967C211.957,123.506,212.852,123.506,212.852,123.506ZM206.68,83.977a7.672,7.672,0,0,0-1.163-1.789,6.574,6.574,0,0,0-1.7-1.431,4.872,4.872,0,0,0-3.667-.358,10.209,10.209,0,0,0-1.7.626,10.134,10.134,0,0,0,.894,1.967,9.589,9.589,0,0,0,1.163,1.7,5.352,5.352,0,0,0,5.277,2.057,6.926,6.926,0,0,0,1.789-.537s-.089-.268-.179-.626A14.181,14.181,0,0,1,206.68,83.977Zm2.773,8.764a7.889,7.889,0,0,0-2.594-3.577,5.146,5.146,0,0,0-3.667-.715,6.926,6.926,0,0,0-1.789.537,15.375,15.375,0,0,0,.8,2.146c.268.537.626,1.163.984,1.789a6.512,6.512,0,0,0,1.52,1.61,5.682,5.682,0,0,0,1.878.8,4.1,4.1,0,0,0,1.789.089,8.913,8.913,0,0,0,1.878-.358,2.149,2.149,0,0,0-.179-.715C209.9,93.9,209.721,93.367,209.453,92.741Zm-6.887-17.976a5.786,5.786,0,0,0-.716-.8,4.883,4.883,0,0,0-3.667-1.61,5.23,5.23,0,0,0-1.7.358,7.343,7.343,0,0,0-1.61.8l.268.537a13.121,13.121,0,0,0,.8,1.341,10.3,10.3,0,0,0,1.252,1.52,11.9,11.9,0,0,0,1.7,1.252,5.062,5.062,0,0,0,3.578.268,10.208,10.208,0,0,0,1.7-.626,10.81,10.81,0,0,0-1.073-2.057A9.756,9.756,0,0,0,202.566,74.765Zm7.871,65.822c0-.358.089-.715.089-1.163a5.9,5.9,0,0,0-.089-1.252,7.03,7.03,0,0,0-.716-2.325,4.223,4.223,0,0,0-1.431-1.61,7.786,7.786,0,0,0-1.7-.894,10.115,10.115,0,0,0-1.968-.447v.179a1.574,1.574,0,0,1-.089.537,8.234,8.234,0,0,0-.179,1.7,9.8,9.8,0,0,0,.715,4.472,5.783,5.783,0,0,0,3.041,2.683,11.636,11.636,0,0,0,1.968.626S210.258,142.018,210.437,140.587ZM49.985,40.781c-.358.089-.626.179-.984.268a10.2,10.2,0,0,0-1.7.894,8.187,8.187,0,0,0-1.61,1.341,6,6,0,0,0,1.163,1.163A4.679,4.679,0,0,0,49.9,45.61a9.368,9.368,0,0,0,5.1-2.325,5.489,5.489,0,0,0-1.073-1.252,5.061,5.061,0,0,0-3.041-1.341A3.355,3.355,0,0,0,49.985,40.781ZM207.038,152.839a19.557,19.557,0,0,0,.8-2.5,4.531,4.531,0,0,0,.179-1.163,5.859,5.859,0,0,0,0-1.252,7.227,7.227,0,0,0-.447-2.415,5.53,5.53,0,0,0-1.342-1.789,8.921,8.921,0,0,0-1.7-1.073,11.64,11.64,0,0,0-1.968-.626.277.277,0,0,1-.089.179,3.161,3.161,0,0,0-.089.537c-.089.447-.268.984-.358,1.7a9.181,9.181,0,0,0-.089,2.236,46322.168,46322.168,0,0,1,.179,1.252c.089.358.179.8.268,1.163a5.837,5.837,0,0,0,2.773,3.041A7.416,7.416,0,0,0,207.038,152.839ZM98.818,9.748c.268,0,.447-.089.626-.089,1.61,3.667,4.2,10.374,4.651,15.025h18.066c.358-4.65,3.041-11.358,4.651-15.025a1.522,1.522,0,0,0,.626.089,1.789,1.789,0,1,0-1.789-1.789,1.867,1.867,0,0,0,.716,1.431c-2.325,3.22-6.44,8.5-7.692,7.333-1.073-.894-.447-8.854,0-13.147h0a1.789,1.789,0,1,0-1.789-1.789,1.744,1.744,0,0,0,1.252,1.7c-1.252,3.935-3.309,10.464-4.919,10.464S109.551,7.512,108.3,3.488a1.828,1.828,0,0,0,1.252-1.7,1.789,1.789,0,1,0-1.789,1.789h0c.447,4.293,1.073,12.252,0,13.147C106.421,17.8,102.4,12.61,100.07,9.39a1.738,1.738,0,0,0,.716-1.431,1.789,1.789,0,0,0-3.578,0A1.553,1.553,0,0,0,98.818,9.748Zm93.194,170.458a4.62,4.62,0,0,1,.537-.626,7,7,0,0,0,1.073-1.7,18.144,18.144,0,0,0,.984-2.325,6.274,6.274,0,0,0,.268-2.594,5.949,5.949,0,0,0-2.057-3.756,9.058,9.058,0,0,0-1.789-1.252,12.166,12.166,0,0,0-1.342,2.236c-.179.358-.268.715-.447,1.073s-.268.715-.447,1.163a5.856,5.856,0,0,0-.268,2.5,7.022,7.022,0,0,0,1.789,3.935A8.612,8.612,0,0,0,192.013,180.206Zm4.293-9.927a9.057,9.057,0,0,0,1.789,1.252.277.277,0,0,1,.089-.179,1.457,1.457,0,0,0,.268-.537c.268-.447.537-1.073.894-1.789a17.751,17.751,0,0,0,.8-2.325,6.33,6.33,0,0,0,0-2.594,5.75,5.75,0,0,0-2.415-3.488,9.7,9.7,0,0,0-1.878-1.073,11.668,11.668,0,0,0-1.073,2.325c-.089.358-.268.715-.358,1.073s-.179.8-.268,1.163a7.31,7.31,0,0,0-.089,2.415A6.55,6.55,0,0,0,196.306,170.279Zm6.708-7.959a18.65,18.65,0,0,0,.984-2.5,8.337,8.337,0,0,0,.268-4.919,5.786,5.786,0,0,0-2.683-3.22,7.111,7.111,0,0,0-1.968-.8,5.323,5.323,0,0,1-.268.626,12.975,12.975,0,0,0-.537,1.7,8.993,8.993,0,0,0-.358,2.236,7.352,7.352,0,0,0,.179,2.415,6.681,6.681,0,0,0,2.5,3.4A7.425,7.425,0,0,0,203.013,162.319Zm21.465-37.561a6.518,6.518,0,0,0-2.057,0,6,6,0,0,0-3.667,1.968,6.867,6.867,0,0,0-1.252,2.236,5.782,5.782,0,0,0-.358,1.163c-.089.358-.268.8-.358,1.163a19.57,19.57,0,0,0-.447,2.683,5.9,5.9,0,0,0,1.968.179,5.51,5.51,0,0,0,3.756-1.7l.8-1.073a5.462,5.462,0,0,0,.626-1.252,13.173,13.173,0,0,0,.716-2.5c.179-.8.179-1.52.268-2.057Zm-180.4,75.123A18.094,18.094,0,0,0,41.757,198c-.358-.268-.715-.447-1.073-.715s-.8-.447-1.252-.715a7.911,7.911,0,0,0-2.683-.894,6.766,6.766,0,0,0-1.342-.089,4.535,4.535,0,0,0-1.163.179,6.614,6.614,0,0,0-1.968.894,9.323,9.323,0,0,0-1.7,1.431s.268.268.626.715l.715.715a9.5,9.5,0,0,0,.984.8,13.422,13.422,0,0,0,2.5,1.61,9.031,9.031,0,0,0,1.342.626,4.052,4.052,0,0,0,1.431.268,6,6,0,0,0,4.382-1.342A6.158,6.158,0,0,0,44.082,199.881Zm-10.017-6.439a9.323,9.323,0,0,0,1.7-1.431,4.62,4.62,0,0,0-.537-.626l-.626-.626a1.952,1.952,0,0,0-.447-.358l-.447-.447a22.5,22.5,0,0,0-2.147-1.7,9.622,9.622,0,0,0-2.594-1.163,6.04,6.04,0,0,0-4.472.537,7.1,7.1,0,0,0-1.878,1.252,19.655,19.655,0,0,0,2.057,2.415,11.183,11.183,0,0,0,4.919,3.041A6.331,6.331,0,0,0,34.065,193.442Zm19.229,13.5-.179-.179a1.375,1.375,0,0,0-.537-.358,14.3,14.3,0,0,0-1.878-1.163c-.358-.179-.8-.447-1.252-.626l-1.342-.537a7.779,7.779,0,0,0-2.773-.626,6.9,6.9,0,0,0-4.472,1.52,9.558,9.558,0,0,0-1.61,1.7l.179.179a3.406,3.406,0,0,0,.537.447,21.2,21.2,0,0,0,1.878,1.341,12.54,12.54,0,0,0,2.683,1.341,8.734,8.734,0,0,0,2.951.626,6,6,0,0,0,4.293-1.789A7.3,7.3,0,0,0,53.294,206.946ZM26.642,184.588a5.747,5.747,0,0,0,1.789-1.252s-.179-.268-.537-.715a15.8,15.8,0,0,0-1.342-1.61,13.309,13.309,0,0,0-1.968-1.878,12.511,12.511,0,0,0-2.325-1.431,6.314,6.314,0,0,0-4.472.089,8.5,8.5,0,0,0-1.968,1.073,18.527,18.527,0,0,0,1.789,2.594,9.474,9.474,0,0,0,.894,1.073c.358.358.715.626,1.073.984a7.873,7.873,0,0,0,2.5,1.431A5.868,5.868,0,0,0,26.642,184.588Zm35.6,30.407a9.616,9.616,0,0,0,1.163-1.968,8.273,8.273,0,0,0-.8-.447,8.278,8.278,0,0,1-.894-.447l-1.073-.537a13.018,13.018,0,0,0-5.635-1.252A6.329,6.329,0,0,0,50.7,212.4a6.457,6.457,0,0,0-1.431,1.878,17.353,17.353,0,0,0,2.862,1.7c.447.179.894.447,1.342.626a7.554,7.554,0,0,0,1.52.447,8.782,8.782,0,0,0,3.041.268,5.591,5.591,0,0,0,2.5-.894A5.366,5.366,0,0,0,62.238,214.995ZM20.292,175.2a8.49,8.49,0,0,0,1.878-.984s-.179-.268-.447-.715-.626-1.073-1.073-1.7a16.648,16.648,0,0,0-1.7-1.967,7.513,7.513,0,0,0-2.147-1.61,6.467,6.467,0,0,0-4.382-.447,6.547,6.547,0,0,0-1.968.8,17.382,17.382,0,0,0,1.52,2.683l.8,1.073a10.716,10.716,0,0,0,.984,1.073,6.807,6.807,0,0,0,2.325,1.61A4.68,4.68,0,0,0,20.292,175.2ZM85.85,221.7a28.916,28.916,0,0,0-3.13-.8,13.176,13.176,0,0,0-5.9.089,5.907,5.907,0,0,0-2.325,1.342,13.008,13.008,0,0,0-1.52,1.7,9.166,9.166,0,0,0-.984,2.146,7.52,7.52,0,0,0,.894.358c.626.179,1.431.447,2.325.715.984.179,2.057.358,3.13.447a9.154,9.154,0,0,0,3.13-.447,6.26,6.26,0,0,0,3.578-3.309A8.055,8.055,0,0,0,85.85,221.7Zm-12.521-1.61a9.167,9.167,0,0,0,.984-2.146,16.952,16.952,0,0,0-2.951-1.073,12.581,12.581,0,0,0-5.813-.626,7.063,7.063,0,0,0-4.114,2.5,6.084,6.084,0,0,0-1.163,2.057l.894.447a10.493,10.493,0,0,0,.984.447c.358.179.8.358,1.252.537a15.148,15.148,0,0,0,3.041.715,7.354,7.354,0,0,0,3.13-.089A5.876,5.876,0,0,0,73.329,220.092ZM1.51,131.465a8.39,8.39,0,0,0,.8,1.073,5.51,5.51,0,0,0,3.756,1.7,5.474,5.474,0,0,0,1.968-.179,19.564,19.564,0,0,0-.447-2.683,8.308,8.308,0,0,0-.358-1.163c-.089-.358-.268-.8-.358-1.163a7.93,7.93,0,0,0-1.252-2.236,6,6,0,0,0-3.667-1.968,6.517,6.517,0,0,0-2.057,0v.8a9.971,9.971,0,0,0,.268,2.057,13.175,13.175,0,0,0,.716,2.5C1.063,130.66,1.331,131.107,1.51,131.465ZM15.1,165.36a6.547,6.547,0,0,0,1.968-.8,18,18,0,0,0-1.252-2.5,13.034,13.034,0,0,0-3.4-3.935,5.985,5.985,0,0,0-4.293-.8,7.732,7.732,0,0,0-2.057.626,6.959,6.959,0,0,0,.268.8c.179.537.537,1.163.894,1.968a16.328,16.328,0,0,0,1.431,2.325,10.046,10.046,0,0,0,2.057,1.878A6.467,6.467,0,0,0,15.1,165.36ZM.616,119.392a7.1,7.1,0,0,0,1.163,2.325,5.374,5.374,0,0,0,3.488,2.057,6.055,6.055,0,0,0,1.968,0,11.862,11.862,0,0,0-.179-2.683c-.089-.358-.089-.8-.179-1.163A2.275,2.275,0,0,0,6.7,119.3c-.089-.179-.089-.447-.179-.626a6.48,6.48,0,0,0-1.073-2.236,5.961,5.961,0,0,0-3.4-2.236,6.38,6.38,0,0,0-1.968-.179v.8A15.857,15.857,0,0,0,.168,116.8,12.091,12.091,0,0,0,.616,119.392ZM44.8,45.968a4.963,4.963,0,0,0-1.968.537,10.937,10.937,0,0,0-1.7,1.073c-.447.358-.894.715-1.163.984l-.447.447a6.334,6.334,0,0,0,1.252,1.073A5.346,5.346,0,0,0,42.2,50.8a3.954,3.954,0,0,0,1.789.179,6.865,6.865,0,0,0,3.488-1.52A7.37,7.37,0,0,0,49,48.2a6,6,0,0,0-1.163-1.163A3.933,3.933,0,0,0,44.8,45.968ZM1.6,110c.179.447.358.8.537,1.163a5.169,5.169,0,0,0,3.22,2.325,6.38,6.38,0,0,0,1.968.179,13.469,13.469,0,0,0,.089-2.594,23.227,23.227,0,0,0-.268-2.325,10.215,10.215,0,0,0-.8-2.325,5.109,5.109,0,0,0-1.431-1.61,4.851,4.851,0,0,0-1.61-.894,6.568,6.568,0,0,0-1.878-.358,5.9,5.9,0,0,0-.179.8c0,.268-.089.537-.089.894v1.073c0,.8.089,1.61.179,2.5A2.754,2.754,0,0,0,1.6,110Zm5.187,44.179a5.334,5.334,0,0,0,4.114.984,8.513,8.513,0,0,0,1.968-.537,12.985,12.985,0,0,0-.984-2.594l-.537-1.073c-.179-.358-.447-.8-.626-1.163a8.977,8.977,0,0,0-1.7-1.967,6.045,6.045,0,0,0-2.147-1.073,5.061,5.061,0,0,0-1.968-.179,10.837,10.837,0,0,0-2.057.358v.268a2.275,2.275,0,0,0,.179.626,13.585,13.585,0,0,0,.716,1.967,14.878,14.878,0,0,0,1.163,2.415c.089.179.268.358.358.537.179.179.268.358.447.537A11.358,11.358,0,0,1,6.787,154.181ZM4.014,143.36A5.272,5.272,0,0,0,7.949,144.7a10.836,10.836,0,0,0,2.057-.358,16.491,16.491,0,0,0-.716-2.683,10.033,10.033,0,0,0-.447-1.163c-.179-.358-.358-.8-.537-1.163a5.881,5.881,0,0,0-1.52-2.057,5.241,5.241,0,0,0-1.968-1.252,5.3,5.3,0,0,0-1.878-.358,6.23,6.23,0,0,0-2.057.179v.268a1.746,1.746,0,0,0,.089.626c.089.537.268,1.252.447,2.057A10.632,10.632,0,0,0,4.014,143.36ZM96.94,223.938c-.268,0-.626-.089-.984-.089a5.5,5.5,0,0,0-1.252-.089,14.09,14.09,0,0,0-5.992.8,6.6,6.6,0,0,0-3.488,3.488,7.081,7.081,0,0,0-.715,2.325,26.375,26.375,0,0,0,3.488.715,8.186,8.186,0,0,0,1.52.089,9.725,9.725,0,0,0,1.61-.089,9.515,9.515,0,0,0,3.13-.8,3.752,3.752,0,0,0,1.252-.8,4.688,4.688,0,0,0,.894-.984,6.517,6.517,0,0,0,1.073-2.057,8.457,8.457,0,0,0,.447-2.415A7.741,7.741,0,0,1,96.94,223.938ZM217.5,146.579a6.045,6.045,0,0,0-2.147,1.073,7.1,7.1,0,0,0-1.7,1.967,4.818,4.818,0,0,0-.626,1.163l-.537,1.073a27.118,27.118,0,0,0-.984,2.594,5.252,5.252,0,0,0,1.968.537,5.334,5.334,0,0,0,4.114-.984,4.688,4.688,0,0,0,.984-.894c.179-.179.268-.358.447-.537a1.87,1.87,0,0,0,.358-.537,9.938,9.938,0,0,0,1.163-2.415c.268-.8.537-1.52.716-1.967a5.685,5.685,0,0,1,.179-.626v-.268a6.113,6.113,0,0,0-2.057-.358A4.761,4.761,0,0,0,217.5,146.579Zm-25.222,49.9a8.086,8.086,0,0,0-1.968-.894,5.234,5.234,0,0,0-1.163-.179,6.771,6.771,0,0,0-1.342.089,7.322,7.322,0,0,0-2.683.894,8.937,8.937,0,0,0-1.252.715,7.461,7.461,0,0,1-1.073.715,18.1,18.1,0,0,0-2.325,1.878,8.265,8.265,0,0,0,1.52,1.61,6,6,0,0,0,4.382,1.341c.447-.089.984-.179,1.431-.268a9.02,9.02,0,0,0,1.342-.626,23.924,23.924,0,0,0,2.5-1.61,9.505,9.505,0,0,0,.984-.8l.716-.715a5.4,5.4,0,0,0,.626-.715A9.321,9.321,0,0,0,192.281,196.482Zm9.838-18.781a10.141,10.141,0,0,0-2.325,1.431,13.132,13.132,0,0,0-1.968,1.878q-.8.939-1.342,1.61c-.358.447-.537.715-.537.715a7.582,7.582,0,0,0,1.789,1.252,5.736,5.736,0,0,0,4.472.358,7.873,7.873,0,0,0,2.5-1.431,10.71,10.71,0,0,0,1.073-.984,9.474,9.474,0,0,0,.894-1.073,22.663,22.663,0,0,0,1.789-2.594,6.584,6.584,0,0,0-1.968-1.073A6.092,6.092,0,0,0,202.119,177.7Zm-6.708,9.212a9.623,9.623,0,0,0-2.594,1.163,13.821,13.821,0,0,0-2.147,1.7l-.447.447c-.179.089-.268.268-.447.358l-.626.626a4.622,4.622,0,0,0-.537.626,9.324,9.324,0,0,0,1.7,1.431,5.907,5.907,0,0,0,4.472.894,12.293,12.293,0,0,0,4.919-3.041,19.652,19.652,0,0,0,2.057-2.415,7.1,7.1,0,0,0-1.878-1.252A6.508,6.508,0,0,0,195.411,186.913Zm12.253-18.96a7.513,7.513,0,0,0-2.146,1.61,16.653,16.653,0,0,0-1.7,1.968,10.151,10.151,0,0,0-1.073,1.7c-.268.447-.447.715-.447.715a5.587,5.587,0,0,0,1.878.984,5.731,5.731,0,0,0,4.382-.089,9.867,9.867,0,0,0,2.325-1.61c.358-.358.626-.715.984-1.073l.8-1.073a17.381,17.381,0,0,0,1.52-2.683,6.546,6.546,0,0,0-1.968-.8A6.268,6.268,0,0,0,207.664,167.954Zm4.383-10.016a10.961,10.961,0,0,0-3.4,3.935,18.006,18.006,0,0,0-1.252,2.5,6.547,6.547,0,0,0,1.968.8,5.794,5.794,0,0,0,4.293-.537,5.894,5.894,0,0,0,2.057-1.878,16.331,16.331,0,0,0,1.431-2.325,17.429,17.429,0,0,0,.894-1.968l.268-.8a6.506,6.506,0,0,0-2.057-.626A6.015,6.015,0,0,0,212.047,157.937Zm9.48-22.447a6.967,6.967,0,0,0-1.878.358,5.241,5.241,0,0,0-1.968,1.252,11.108,11.108,0,0,0-1.52,2.057c-.179.358-.358.8-.537,1.163a6.211,6.211,0,0,0-.447,1.163,14.3,14.3,0,0,0-.715,2.683,6.325,6.325,0,0,0,5.992-.984,9.491,9.491,0,0,0,2.5-4.65,12.414,12.414,0,0,0,.447-2.057,1.746,1.746,0,0,0,.089-.626v-.268S222.69,135.49,221.527,135.49ZM6.966,92.652a4.04,4.04,0,0,0,1.52.984,6.547,6.547,0,0,0,1.789.537,6.57,6.57,0,0,0,.179-.715c.089-.447.268-1.073.358-1.7a10.276,10.276,0,0,0-.179-4.65,5.573,5.573,0,0,0-2.5-2.951,6.367,6.367,0,0,0-1.7-.715,13.562,13.562,0,0,0-.716,2.594,10.515,10.515,0,0,0-.268,2.415A7.182,7.182,0,0,0,5.8,90.863,5.167,5.167,0,0,0,6.966,92.652Zm162.419,117.6a13.316,13.316,0,0,0-5.635,1.252,11.97,11.97,0,0,0-1.073.537,22.11,22.11,0,0,0-1.7.894,7.556,7.556,0,0,0,1.163,1.968,8.731,8.731,0,0,0,1.61,1.52,5.591,5.591,0,0,0,2.5.894,8.782,8.782,0,0,0,3.041-.268,9.771,9.771,0,0,0,1.52-.447,9.024,9.024,0,0,0,1.342-.626,17.353,17.353,0,0,0,2.862-1.7,8.113,8.113,0,0,0-1.431-1.878A5.507,5.507,0,0,0,169.385,210.255Zm-46.061,16.187a12.882,12.882,0,0,0-5.9-1.52,16.761,16.761,0,0,0-3.309,0,9.593,9.593,0,0,0,.179,2.415,6.724,6.724,0,0,0,2.773,4.2A8.949,8.949,0,0,0,120.1,232.7a20.847,20.847,0,0,0,3.22.358,7.227,7.227,0,0,0,1.431-.089c.447,0,.8-.089,1.163-.089.626-.089.984-.179.984-.179a8.457,8.457,0,0,0-.447-2.415A6.942,6.942,0,0,0,123.324,226.442Zm12.432-2.057a15.422,15.422,0,0,0-5.992-.8c-.447,0-.894.089-1.252.089s-.715.089-.984.089c-.537.089-.894.179-.894.179a8.457,8.457,0,0,0,.447,2.415,9.13,9.13,0,0,0,1.073,2.057,8.915,8.915,0,0,0,.894.984c.358.268.8.537,1.252.8a8.49,8.49,0,0,0,3.13.8,9.717,9.717,0,0,0,1.61.089c.537,0,1.073-.089,1.52-.089a26.364,26.364,0,0,0,3.488-.715,7.082,7.082,0,0,0-.716-2.325A6.963,6.963,0,0,0,135.756,224.385Zm47.76-19.586a6.548,6.548,0,0,0-4.472-1.52,7.374,7.374,0,0,0-2.773.626l-1.342.537c-.447.179-.8.447-1.252.626-.715.447-1.431.8-1.878,1.163a5.466,5.466,0,0,1-.537.358l-.179.179a6.862,6.862,0,0,0,1.431,1.789,6,6,0,0,0,4.293,1.789,8.735,8.735,0,0,0,2.951-.626,18.759,18.759,0,0,0,2.683-1.342q1.207-.8,1.878-1.341a3.4,3.4,0,0,0,.537-.447l.179-.179A12.928,12.928,0,0,0,183.516,204.8Zm-30.409,10.2,4.293-1.968,4.114-2.146c1.342-.715,2.683-1.52,4.025-2.325a101.227,101.227,0,0,0,15.026-11,103.465,103.465,0,0,0,34.612-64.212,104.462,104.462,0,0,0-1.7-37.025A103.7,103.7,0,0,0,198.9,62.245a104.145,104.145,0,0,0-58.224-42.659l-7.781-1.878s1.073,2.772,3.4,3.577a5.9,5.9,0,0,0,4.2-.537,102.849,102.849,0,0,1,57.24,42.3,101.727,101.727,0,0,1,14.221,33.626,101.067,101.067,0,0,1,1.52,36.4,103.021,103.021,0,0,1-11.359,34.61,103.649,103.649,0,0,1-37.564,39.082c-1.342.715-2.594,1.52-3.935,2.236l-4.114,2.057-4.2,1.878c-1.431.626-2.862,1.163-4.2,1.7a106.264,106.264,0,0,1-35.775,6.439h0a103.139,103.139,0,0,1-35.686-6.35c-1.431-.537-2.862-1.073-4.2-1.7l-4.2-1.878-4.025-2.057c-1.342-.715-2.683-1.52-3.935-2.236a101.882,101.882,0,0,1-14.757-10.732,101.834,101.834,0,0,1-35.06-81.115A102.227,102.227,0,0,1,52.042,36.846a101.063,101.063,0,0,1,32.2-15.829,5.722,5.722,0,0,0,3.935.447c2.236-.715,3.4-3.577,3.4-3.577s-2.594-1.61-4.83-.894A5.757,5.757,0,0,0,83.7,19.943,103.423,103.423,0,0,0,11.169,96.5a104.089,104.089,0,0,0-1.7,36.935,104.37,104.37,0,0,0,11.359,35.236A106.437,106.437,0,0,0,43.9,197.645a101.231,101.231,0,0,0,15.026,11c1.342.8,2.683,1.61,4.025,2.325l4.114,2.146,4.2,1.967c1.431.626,2.862,1.163,4.293,1.7a105.879,105.879,0,0,0,36.491,6.707h0a106.766,106.766,0,0,0,36.58-6.707C150.245,216.157,151.676,215.621,153.107,214.995Zm-3.13,7.244a8.353,8.353,0,0,0-2.325-1.341,13.176,13.176,0,0,0-5.9-.089,15.54,15.54,0,0,0-3.13.8,9.828,9.828,0,0,0,.715,2.236,6.553,6.553,0,0,0,3.578,3.309,9.156,9.156,0,0,0,3.13.447c1.073-.089,2.146-.268,3.13-.447a9,9,0,0,0,2.325-.715,4.876,4.876,0,0,1,.894-.358,9.166,9.166,0,0,0-.984-2.146A3.674,3.674,0,0,0,149.977,222.239Zm-43.02,2.862a12.881,12.881,0,0,0-5.9,1.52,6.819,6.819,0,0,0-3.13,3.935,8.457,8.457,0,0,0-.447,2.415s.358.089.984.179c.358,0,.715.089,1.163.089s.894.089,1.431.089a13.66,13.66,0,0,0,3.22-.358,8.949,8.949,0,0,0,3.041-1.163,6.376,6.376,0,0,0,2.773-4.2,9.593,9.593,0,0,0,.179-2.415A21.394,21.394,0,0,0,106.957,225.1Zm51.963-8.943a12.582,12.582,0,0,0-5.813.626,16.953,16.953,0,0,0-2.951,1.073,9.165,9.165,0,0,0,.984,2.146,6.2,6.2,0,0,0,3.935,2.862,9.141,9.141,0,0,0,3.13.089,30.256,30.256,0,0,0,3.041-.715c.447-.179.894-.358,1.252-.537a8.714,8.714,0,0,1,.984-.447l.894-.447a8.9,8.9,0,0,0-1.163-2.057A7.783,7.783,0,0,0,158.921,216.157ZM6.429,103.384a6.567,6.567,0,0,0,1.878.358,2.475,2.475,0,0,0,.089-.715c.089-.447.089-1.073.179-1.789a10.481,10.481,0,0,0-.626-4.65,5.925,5.925,0,0,0-2.773-2.772,6.546,6.546,0,0,0-1.789-.537,16.8,16.8,0,0,0-.537,2.683,10.411,10.411,0,0,0,.626,4.919A5.178,5.178,0,0,0,6.429,103.384Zm8.049,39.887a6.277,6.277,0,0,0,1.968-.626,6.191,6.191,0,0,0,3.041-2.683,8.891,8.891,0,0,0,.716-4.472,8.231,8.231,0,0,0-.179-1.7c0-.179-.089-.358-.089-.537v-.179a5.659,5.659,0,0,0-1.968.447,5.209,5.209,0,0,0-1.7.894,4.223,4.223,0,0,0-1.431,1.61,7.031,7.031,0,0,0-.716,2.325,5.9,5.9,0,0,0-.089,1.252,5.1,5.1,0,0,0,.089,1.163A8.734,8.734,0,0,0,14.478,143.27Zm-2.594-31.838a14.291,14.291,0,0,0-.268,2.5,5.848,5.848,0,0,0,1.968,0,5.583,5.583,0,0,0,3.488-1.7,7.821,7.821,0,0,0,.716-.894c.179-.358.358-.626.537-.984a9.386,9.386,0,0,0,.716-2.057c.089-.358.089-.626.179-.894a2.222,2.222,0,0,0,.089-.715,3.741,3.741,0,0,0,.089-.626,10,10,0,0,0-1.968-.179,4.548,4.548,0,0,0-1.789.358,4.172,4.172,0,0,0-1.789,1.073,5.684,5.684,0,0,0-1.252,1.968A7.56,7.56,0,0,0,11.885,111.432Zm-.268,12.252a6.379,6.379,0,0,0,1.968-.179,6.4,6.4,0,0,0,3.4-1.967,6.227,6.227,0,0,0,.984-2.057,9.433,9.433,0,0,0,.537-2.146c.089-.626.089-1.252.179-1.7v-.715a6.055,6.055,0,0,0-1.968,0,5.516,5.516,0,0,0-3.488,1.789,6.754,6.754,0,0,0-1.163,2.057c-.089.179-.089.358-.179.537,0,.179-.089.358-.089.537-.089.358-.089.715-.179,1.073A23.238,23.238,0,0,0,11.616,123.685Zm2.951,9.39a6.107,6.107,0,0,0,3.22-2.325l.537-1.073c.089-.358.268-.715.358-1.073a21.456,21.456,0,0,0,.358-2.146v-1.7a2.475,2.475,0,0,0-.089-.715,6.38,6.38,0,0,0-1.968.179,5.131,5.131,0,0,0-3.309,2.146,6.182,6.182,0,0,0-.894,2.236,5.234,5.234,0,0,0-.179,1.163v1.163a12.849,12.849,0,0,0,.268,2.594A10.874,10.874,0,0,0,14.568,133.075Zm10.554,36.131a11.043,11.043,0,0,0,.894,1.789c.089.179.268.358.268.537a.277.277,0,0,1,.089.179,5.966,5.966,0,0,0,1.789-1.252,6.505,6.505,0,0,0,2.147-3.667,5.511,5.511,0,0,0-.089-2.415c-.089-.358-.179-.8-.268-1.163a5.042,5.042,0,0,0-.358-1.073,11.669,11.669,0,0,0-1.073-2.325,9.693,9.693,0,0,0-1.878,1.073,6.027,6.027,0,0,0-2.415,3.488,6.33,6.33,0,0,0,0,2.594A16.645,16.645,0,0,0,25.121,169.206Zm-8.5-18.781a19.553,19.553,0,0,0,.8,2.5,7.112,7.112,0,0,0,1.968-.8,6.178,6.178,0,0,0,2.773-3.041,2.476,2.476,0,0,0,.268-1.163c0-.179.089-.358.089-.626a1.746,1.746,0,0,1,.089-.626,17.25,17.25,0,0,0-.089-2.236c-.089-.715-.268-1.252-.358-1.7a1.134,1.134,0,0,1-.089-.537.312.312,0,0,0-.089-.179,6.276,6.276,0,0,0-1.968.626,8.92,8.92,0,0,0-1.7,1.073,5.141,5.141,0,0,0-1.789,4.2v1.252C16.535,149.709,16.625,150.067,16.625,150.425Zm4.74,12.073a6.968,6.968,0,0,0,1.878-.984,6.322,6.322,0,0,0,2.5-3.4,7.353,7.353,0,0,0,.179-2.415,8.359,8.359,0,0,0-.358-2.236,12.961,12.961,0,0,0-.537-1.7c-.179-.447-.268-.626-.268-.626a7.112,7.112,0,0,0-1.968.8,5.46,5.46,0,0,0-2.683,3.22,8.336,8.336,0,0,0,.268,4.919A20.591,20.591,0,0,0,21.365,162.5Zm9.48,15.561a9.357,9.357,0,0,0,1.073,1.7,6.512,6.512,0,0,0,.537.626,12.5,12.5,0,0,0,1.7-1.431,6.477,6.477,0,0,0,1.789-3.935,7.974,7.974,0,0,0-.268-2.5,6.21,6.21,0,0,0-.447-1.163c-.179-.358-.268-.715-.447-1.073a12.166,12.166,0,0,0-1.342-2.236,9.058,9.058,0,0,0-1.789,1.252,5.949,5.949,0,0,0-2.057,3.756,6.275,6.275,0,0,0,.268,2.594A10.37,10.37,0,0,0,30.846,178.059ZM25.479,67.879a9.616,9.616,0,0,0-1.163,1.968,7.343,7.343,0,0,0,1.61.8,5.14,5.14,0,0,0,3.488.089,2.8,2.8,0,0,0,.894-.447,5.43,5.43,0,0,0,.894-.626,6.724,6.724,0,0,0,1.342-1.431,3.891,3.891,0,0,1,.537-.626,1.871,1.871,0,0,0,.358-.537,2.214,2.214,0,0,1,.358-.537,6.014,6.014,0,0,0-1.52-.894,6.936,6.936,0,0,0-1.61-.447,3.4,3.4,0,0,0-1.878.179A7.775,7.775,0,0,0,25.479,67.879Zm4.74-7.333a9.841,9.841,0,0,0-.984,1.252,4.09,4.09,0,0,0-.358.537,4.455,4.455,0,0,0,1.52.894,4.788,4.788,0,0,0,3.4.358,7.12,7.12,0,0,0,3.309-2.146,8.964,8.964,0,0,0,.984-1.073,1.985,1.985,0,0,0,.358-.447,5.981,5.981,0,0,0-1.431-.984,4.864,4.864,0,0,0-3.488-.537A7.338,7.338,0,0,0,30.219,60.546Zm8.765-8.675A6.5,6.5,0,0,0,35.5,53.838,11.713,11.713,0,0,0,34.423,55a1.535,1.535,0,0,0-.358.537,6.669,6.669,0,0,0,1.342.984,5.047,5.047,0,0,0,3.309.626,8.243,8.243,0,0,0,3.4-1.789,13.17,13.17,0,0,0,1.52-1.431,5.649,5.649,0,0,0-1.342-1.073A4.111,4.111,0,0,0,38.984,51.871ZM18.95,82.278a20.237,20.237,0,0,0-1.163,1.789c-.268.626-.537,1.163-.716,1.52a1.545,1.545,0,0,0-.179.626,6.926,6.926,0,0,0,1.789.537,5.555,5.555,0,0,0,3.667-.626,6.171,6.171,0,0,0,1.61-1.431,9.587,9.587,0,0,0,1.163-1.7,10.131,10.131,0,0,0,.894-1.967,5.336,5.336,0,0,0-1.7-.626,4.931,4.931,0,0,0-3.667.358A9.351,9.351,0,0,0,18.95,82.278ZM15.015,92.92a8.421,8.421,0,0,0-.537,1.61,6.573,6.573,0,0,1-.179.715,8.915,8.915,0,0,0,1.878.358,12.6,12.6,0,0,0,1.789-.089,5.681,5.681,0,0,0,1.878-.8,6.511,6.511,0,0,0,1.52-1.61,12.2,12.2,0,0,0,.984-1.789,15.372,15.372,0,0,0,.8-2.146,6.926,6.926,0,0,0-1.789-.537,5.146,5.146,0,0,0-3.667.715A7.475,7.475,0,0,0,15.015,92.92ZM21.9,74.944a2.976,2.976,0,0,0-.537.894A10.812,10.812,0,0,0,20.292,77.9a5.335,5.335,0,0,0,1.7.626,5.062,5.062,0,0,0,3.578-.268A5.565,5.565,0,0,0,27.268,77a6.668,6.668,0,0,0,1.252-1.52,13.125,13.125,0,0,0,.8-1.341l.268-.537a7.342,7.342,0,0,0-1.61-.8,8.069,8.069,0,0,0-1.7-.358,4.671,4.671,0,0,0-1.878.358,5.909,5.909,0,0,0-1.789,1.252C22.349,74.408,22.081,74.676,21.9,74.944Zm-9.212,28.8a4.052,4.052,0,0,0-.089.715,9.587,9.587,0,0,0,1.878.179,5.6,5.6,0,0,0,3.578-1.341,8.327,8.327,0,0,0,2.236-3.667,15.8,15.8,0,0,0,.626-2.236,8.914,8.914,0,0,0-1.878-.358,5.005,5.005,0,0,0-3.667,1.073,7.7,7.7,0,0,0-2.236,3.846A3.993,3.993,0,0,0,12.69,103.741Zm37.3-68.416a16.676,16.676,0,0,0,1.7-1.341,10.48,10.48,0,0,0,1.342-1.431,5.563,5.563,0,0,0,.984-1.7,4.614,4.614,0,0,0-.089-3.309,5.779,5.779,0,0,0-.8-1.431,11.309,11.309,0,0,0-1.878,1.252,8.074,8.074,0,0,0-2.5,3.22A4.558,4.558,0,0,0,49,33.895,5.98,5.98,0,0,0,49.985,35.326ZM31.114,53.033a5.476,5.476,0,0,0,.447-.537c.268-.358.626-.8.984-1.252a8.633,8.633,0,0,0,1.61-3.846A4.958,4.958,0,0,0,33.26,44,5.234,5.234,0,0,0,32.1,42.749a13.366,13.366,0,0,0-1.61,1.789,8.118,8.118,0,0,0-1.7,4.024,5.044,5.044,0,0,0,1.073,3.309A4.826,4.826,0,0,0,31.114,53.033Zm4.74-7.781A5.234,5.234,0,0,0,37.017,46.5l.447-.447c.268-.268.626-.715,1.073-1.163A13.968,13.968,0,0,0,39.7,43.2a5.835,5.835,0,0,0,.716-1.968,4.826,4.826,0,0,0-.626-3.309,5.437,5.437,0,0,0-1.073-1.341,15.13,15.13,0,0,0-1.7,1.61,8.615,8.615,0,0,0-2.057,3.756,4.3,4.3,0,0,0,.089,1.878A10.211,10.211,0,0,0,35.854,45.253Zm7.423-4.65s.716-.626,1.61-1.431a10.3,10.3,0,0,0,1.252-1.52c.179-.268.358-.626.537-.894a3.2,3.2,0,0,0,.358-.984,4.485,4.485,0,0,0-.358-3.309,5.534,5.534,0,0,0-.894-1.341,16.955,16.955,0,0,0-1.789,1.431,7.59,7.59,0,0,0-2.236,3.488,4.388,4.388,0,0,0,.537,3.309A7.912,7.912,0,0,0,43.277,40.6ZM19.308,66.985a10.209,10.209,0,0,0,1.52.984s.537-.894,1.073-2.057a8.676,8.676,0,0,0,.984-4.293,5.78,5.78,0,0,0-.537-1.878,5.21,5.21,0,0,0-.984-1.341,6.176,6.176,0,0,0-1.431-1.073,3.539,3.539,0,0,0-.447.626,2.718,2.718,0,0,1-.447.626,8.309,8.309,0,0,0-.447.894,11.956,11.956,0,0,0-.8,2.146c-.089.358-.179.8-.268,1.163a2.552,2.552,0,0,0,0,1.163A6.009,6.009,0,0,0,19.308,66.985Zm-4.293,8.407a4.516,4.516,0,0,0,1.61.8,12.383,12.383,0,0,0,.984-2.236c.089-.358.179-.626.268-1.073l.268-1.073a6.275,6.275,0,0,0,.089-2.236,4.338,4.338,0,0,0-.716-1.878,5.715,5.715,0,0,0-1.163-1.341,5.434,5.434,0,0,0-1.52-.984,6.469,6.469,0,0,0-.358.626,10.792,10.792,0,0,0-.716,1.7c-.179.715-.537,1.431-.716,2.236a5.1,5.1,0,0,0,0,2.325A4.393,4.393,0,0,0,15.015,75.391Zm10.733-15.2a2.213,2.213,0,0,0,.358-.537A14.1,14.1,0,0,0,27,58.22,8.964,8.964,0,0,0,28.341,54.2a4.63,4.63,0,0,0-1.163-3.309,4.826,4.826,0,0,0-1.252-1.163,5.476,5.476,0,0,0-.447.537,12.676,12.676,0,0,0-.984,1.431,8.747,8.747,0,0,0-1.431,4.2A4.584,4.584,0,0,0,24.5,59.2,4.536,4.536,0,0,0,25.748,60.188Zm-14.4,24.057a6.367,6.367,0,0,0,1.7.715,5.317,5.317,0,0,1,.268-.626,12.964,12.964,0,0,0,.537-1.7A16.69,16.69,0,0,0,14.21,80.4a6.693,6.693,0,0,0-.089-2.325,5.607,5.607,0,0,0-2.147-3.13,8.085,8.085,0,0,0-1.61-.894,14.725,14.725,0,0,0-.984,2.415,9.74,9.74,0,0,0-.447,2.325A7.353,7.353,0,0,0,9.112,81.2,4.118,4.118,0,0,0,11.348,84.245ZM78.516,20.48a7.6,7.6,0,0,0,1.789-.715,14.469,14.469,0,0,0,1.61-.894,4.487,4.487,0,0,0,1.342-1.252,4.155,4.155,0,0,0,.8-2.862,3.255,3.255,0,0,0-.268-1.341,11.639,11.639,0,0,0-1.968.626,6.567,6.567,0,0,0-3.041,2.146,4.163,4.163,0,0,0-.716,2.951A6.392,6.392,0,0,0,78.516,20.48Zm-40.873,165.9a1.951,1.951,0,0,0,.358.447c.089.179.268.268.358.447a4.131,4.131,0,0,0,.626.626l.537.537a8.805,8.805,0,0,0,1.52-1.61,6.663,6.663,0,0,0,1.342-4.114,8.554,8.554,0,0,0-1.7-4.561A13.763,13.763,0,0,0,39.163,176a12.5,12.5,0,0,0-1.7,1.431,6.244,6.244,0,0,0-1.7,4.114,6.5,6.5,0,0,0,.626,2.594A6.868,6.868,0,0,0,37.643,186.377ZM71.182,23.252a12.266,12.266,0,0,0,1.789-.8,7.844,7.844,0,0,0,2.862-2.325,4.385,4.385,0,0,0,.626-3.041,3.379,3.379,0,0,0-.447-1.431,2.8,2.8,0,0,1-.626.179,8.345,8.345,0,0,0-1.342.626,7.071,7.071,0,0,0-2.951,2.415,4.266,4.266,0,0,0-.447,3.041A4.339,4.339,0,0,0,71.182,23.252Zm-7.244,3.4.537-.268c.358-.179.8-.447,1.252-.715a7.46,7.46,0,0,0,2.683-2.594,4.445,4.445,0,0,0,.447-3.13,4.316,4.316,0,0,0-.537-1.431l-.537.268a6.637,6.637,0,0,0-1.342.715,7.487,7.487,0,0,0-2.862,2.683,4.368,4.368,0,0,0-.268,3.13A10.475,10.475,0,0,0,63.938,26.651Zm-7.871,2.594a9.929,9.929,0,0,0,.716,1.341,4.09,4.09,0,0,0,.537-.358c.268-.179.716-.447,1.252-.8a8.9,8.9,0,0,0,2.594-2.862,4.52,4.52,0,0,0,.179-3.22,5.819,5.819,0,0,0-.626-1.431,9.694,9.694,0,0,0-1.878,1.073,8.513,8.513,0,0,0-2.683,2.951,4.148,4.148,0,0,0-.358,1.7A4.021,4.021,0,0,0,56.067,29.244Zm66.005-2.415a.83.83,0,0,0,0-1.61H104.1a.83.83,0,0,0,0,1.61Zm70.656,75.123H31.74v.894H192.728ZM31.74,134.148H192.728v-.894H31.74Z" transform="translate(0.1)" fill="#fff"/>
</svg>
