<svg xmlns="http://www.w3.org/2000/svg" width="24" height="24" viewBox="0 0 24 24">
  <g id="Group_2651" data-name="Group 2651" transform="translate(-0.5)">
    <circle id="Ellipse_334" data-name="Ellipse 334" cx="12" cy="12" r="12" transform="translate(0.5 0)" fill="#eda070"/>
    <path id="Path_1972" data-name="Path 1972" d="M12.5,0A12,12,0,0,0,.5,12a12.581,12.581,0,0,0,.8,4.421L16.864.8A12.033,12.033,0,0,0,12.5,0Z" fill="#fff" opacity="0.1"/>
    <path id="Path_1973" data-name="Path 1973" d="M13.479,2.2A10.679,10.679,0,1,0,24.159,12.937,10.7,10.7,0,0,0,13.479,2.2Zm0,20.612a9.876,9.876,0,1,1,9.876-9.876A9.875,9.875,0,0,1,13.479,22.812Z" transform="translate(-0.979 -0.937)" fill="#c1754c"/>
    <path id="Path_1974" data-name="Path 1974" d="M14.033,23.466a9.933,9.933,0,1,1,9.933-9.933A9.936,9.936,0,0,1,14.033,23.466Zm0-19.636a9.7,9.7,0,1,0,9.7,9.7A9.728,9.728,0,0,0,14.033,3.83Z" transform="translate(-1.533 -1.533)" fill="#f3bd9a"/>
    <g id="Group_2643" data-name="Group 2643" transform="translate(7.39 5.914)">
      <path id="Path_1975" data-name="Path 1975" d="M22.916,14.573a3.137,3.137,0,0,0-3.5-3.273H13.5v1.665h5.971a1.811,1.811,0,0,1,1.78,1.665,1.639,1.639,0,0,1-1.78,1.493H15.222c-1.206,0-1.722.4-1.722,1.665v4.364h1.722V18.018a.271.271,0,0,1,.287-.287h3.1l2.584,4.364h1.895L20.5,17.731A2.97,2.97,0,0,0,22.916,14.573Z" transform="translate(-12.926 -10.726)" fill="#c1754c"/>
      <path id="Path_1976" data-name="Path 1976" d="M21.916,13.573a3.137,3.137,0,0,0-3.5-3.273H12.5v1.665h5.971a1.811,1.811,0,0,1,1.78,1.665,1.639,1.639,0,0,1-1.78,1.493H14.222c-1.206,0-1.722.4-1.722,1.665v4.364h1.722V17.018a.271.271,0,0,1,.287-.287h3.1l2.584,4.364h1.895L19.5,16.731A2.97,2.97,0,0,0,21.916,13.573Z" transform="translate(-12.5 -10.3)" fill="#f3bd9a"/>
    </g>
  </g>
</svg>
