<svg xmlns="http://www.w3.org/2000/svg" width="24" height="24" viewBox="0 0 24 24">
  <g id="Group_2650" data-name="Group 2650" transform="translate(0 -53)">
    <g id="Group_2641" data-name="Group 2641" transform="translate(0 53)">
      <circle id="Ellipse_333" data-name="Ellipse 333" cx="12" cy="12" r="12" transform="translate(0)" fill="#ddaa1b"/>
      <path id="Path_1967" data-name="Path 1967" d="M12.979,55.3A10.679,10.679,0,1,0,23.659,65.979,10.7,10.7,0,0,0,12.979,55.3Zm0,20.555a9.876,9.876,0,1,1,9.876-9.876A9.875,9.875,0,0,1,12.979,75.855Z" transform="translate(-0.979 -53.979)" fill="#b2830b"/>
      <path id="Path_1968" data-name="Path 1968" d="M13.533,76.466a9.933,9.933,0,1,1,9.933-9.933A9.936,9.936,0,0,1,13.533,76.466Zm0-19.636a9.7,9.7,0,1,0,9.7,9.7A9.728,9.728,0,0,0,13.533,56.83Z" transform="translate(-1.533 -54.533)" fill="#f4c245"/>
      <path id="Path_1969" data-name="Path 1969" d="M12,53A12,12,0,0,0,0,65a12.581,12.581,0,0,0,.8,4.421l15.56-15.56A10.96,10.96,0,0,0,12,53Z" transform="translate(0 -53)" fill="#fff" opacity="0.15"/>
    </g>
    <path id="Path_1970" data-name="Path 1970" d="M18.894,69.193H16.2v1.722h2.526a1.369,1.369,0,0,1,1.435,1.493,1.836,1.836,0,0,1-1.837,1.78H16.827a3.787,3.787,0,0,1-3.847-3.732v-.4a3.787,3.787,0,0,1,3.847-3.732H21.19V64.6H16.827A5.565,5.565,0,0,0,11.2,70.055v.4a5.565,5.565,0,0,0,5.627,5.455h.8s.23,0,.976-.057a3.529,3.529,0,0,0,3.273-3.445C21.879,70.629,21.076,69.193,18.894,69.193Z" transform="translate(-4.769 -4.94)" fill="#b2830b"/>
    <path id="Path_1971" data-name="Path 1971" d="M18.051,68.293H15.3v1.722h2.526a1.369,1.369,0,0,1,1.435,1.493,1.836,1.836,0,0,1-1.837,1.78H15.927a3.787,3.787,0,0,1-3.847-3.732v-.4a3.787,3.787,0,0,1,3.847-3.732H20.29V63.7H15.927A5.565,5.565,0,0,0,10.3,69.155v.4a5.565,5.565,0,0,0,5.627,5.455h.8s.23,0,.976-.057a3.529,3.529,0,0,0,3.273-3.445C21.037,69.729,20.233,68.293,18.051,68.293Z" transform="translate(-4.386 -4.556)" fill="#e8c25a"/>
  </g>
</svg>
