<svg id="Group_2653" data-name="Group 2653" xmlns="http://www.w3.org/2000/svg" xmlns:xlink="http://www.w3.org/1999/xlink" width="24" height="24" viewBox="0 0 24 24">
  <defs>
    <linearGradient id="linear-gradient" y1="0.5" x2="1" y2="0.5" gradientUnits="objectBoundingBox">
      <stop offset="0" stop-color="#32bdd3"/>
      <stop offset="1" stop-color="#065764"/>
    </linearGradient>
  </defs>
  <circle id="Ellipse_336" data-name="Ellipse 336" cx="12" cy="12" r="12" transform="translate(0 0)" fill="url(#linear-gradient)"/>
  <path id="Path_1986" data-name="Path 1986" d="M12,0A12.048,12.048,0,0,0,.808,16.385L16.385.808A12.091,12.091,0,0,0,12,0Z" fill="#fff" opacity="0.1"/>
  <path id="Path_1987" data-name="Path 1987" d="M12.931,2.2A10.731,10.731,0,1,0,23.662,12.931,10.747,10.747,0,0,0,12.931,2.2Zm0,20.654a9.923,9.923,0,1,1,9.923-9.923A9.923,9.923,0,0,1,12.931,22.854Z" transform="translate(-0.931 -0.931)" fill="#065764"/>
  <path id="Path_1988" data-name="Path 1988" d="M13.481,23.462a9.981,9.981,0,1,1,9.981-9.981A9.984,9.984,0,0,1,13.481,23.462Zm0-19.731a9.75,9.75,0,1,0,9.75,9.75A9.775,9.775,0,0,0,13.481,3.731Z" transform="translate(-1.481 -1.481)" fill="#4fa1a9"/>
  <path id="Path_1989" data-name="Path 1989" d="M17.877,11.3h-4.1c-.635,0-.981.288-.981.923v9.75c0,.635.288.923.981.923h4.1c3.4,0,5.25-1.9,5.25-5.827C23.185,13.2,21.338,11.3,17.877,11.3Zm0,9.923h-3c-.173,0-.231-.058-.231-.231V13.319c0-.173.058-.231.231-.231h3c2.25,0,3.462,1.385,3.462,4.038C21.338,19.838,20.185,21.223,17.877,21.223Z" transform="translate(-5.415 -4.781)" fill="#01626e"/>
  <path id="Path_1990" data-name="Path 1990" d="M16.877,10.3h-4.1c-.635,0-.981.288-.981.923v9.75c0,.635.288.923.981.923h4.1c3.4,0,5.25-1.9,5.25-5.827C22.185,12.2,20.338,10.3,16.877,10.3Zm0,9.923h-3c-.173,0-.231-.058-.231-.231V12.319c0-.173.058-.231.231-.231h3c2.25,0,3.462,1.385,3.462,4.038C20.338,18.838,19.185,20.223,16.877,20.223Z" transform="translate(-4.992 -4.358)" fill="#1aadc1"/>
</svg>
