<svg xmlns="http://www.w3.org/2000/svg" width="260" height="70.557" viewBox="0 0 260 70.557">
  <g id="Group_4413" data-name="Group 4413" transform="translate(-179.732 -219.275)">
    <path id="Path_3745" data-name="Path 3745" d="M254.843,252.566H230.891v6.848h23.952a4.839,4.839,0,0,1,4.917,4.746v1.819H238.405a9.036,9.036,0,0,0-9.171,8.871v3.555a9.035,9.035,0,0,0,9.171,8.871h22.074a6.26,6.26,0,0,0,6.353-6.148V264.16A11.812,11.812,0,0,0,254.843,252.566Zm4.917,26.073c0,1.26-.53,1.79-1.924,1.79H238.405a2.066,2.066,0,0,1-2.1-2.024V274.85a2.065,2.065,0,0,1,2.1-2.024H259.76Zm16.9-16.294v25.037h7.072V262.345a2.991,2.991,0,0,1,3.039-2.931h15.972v-6.848H286.768A9.961,9.961,0,0,0,276.656,262.345Zm-96.924,1.873V265.8c0,11.9,10.014,21.579,22.322,21.579h17.338v-6.848H202.054A15.013,15.013,0,0,1,186.805,265.8v-1.585a15.014,15.014,0,0,1,15.249-14.732h17.338v-6.848H202.054C189.746,242.638,179.732,252.318,179.732,264.218Zm194.841-12.291H373.8c-10.113,0-17.43,7.953-17.43,17.727s7.317,17.728,17.43,17.728h.772c10.11,0,18.335-7.953,18.335-17.728S384.684,251.926,374.573,251.926Zm0,28.608H373.8a10.887,10.887,0,1,1,0-21.761h.772a10.887,10.887,0,1,1,0,21.761Zm-37.3-37.9H311.492v6.847h25.787a6.69,6.69,0,0,1,6.8,6.562v.909a6.69,6.69,0,0,1-6.8,6.563H317.847a6.26,6.26,0,0,0-6.355,6.145v17.718h7.072V271.491a.988.988,0,0,1,1.127-1.127h17.588a13.66,13.66,0,0,0,13.868-13.408v-.909A13.663,13.663,0,0,0,337.278,242.638Zm85.77,9.928H407.926a7.186,7.186,0,0,0-7.294,7.056v27.76H407.7V260.407c0-.662.264-.993.861-.993h14.485a9.465,9.465,0,0,1,9.613,9.286v18.682h7.071V268.7C439.732,259.8,432.248,252.566,423.048,252.566Z" transform="translate(0 2.45)" fill="#fff"/>
    <g id="Group_4413-2" data-name="Group 4413" transform="translate(184.218 219.275)">
      <path id="Path_3746" data-name="Path 3746" d="M192.405,220.75c-.212,2.4-.888,9.2-7.46,10.8l-.557-1.378c5.3-1.258,6.228-5.963,6.506-8.03h-3.511a11.944,11.944,0,0,1-2.77,3.67l-.822-1.152a9.34,9.34,0,0,0,2.717-3.91Z" transform="translate(-183.792 -219.12)" fill="#fff"/>
      <path id="Path_3747" data-name="Path 3747" d="M203.748,224.1c0,4.956-1.339,6.652-1.974,7.46l-.941-1.219c.715-.9,1.643-2.24,1.643-6v-3.67h1.273Zm6.9,1.007c-.8,4.532-2.465,5.765-5.314,6.268V220.295h1.3l-.013,9.169c1.1-.5,2.372-1.272,2.836-4.955Z" transform="translate(-182.005 -219.168)" fill="#fff"/>
      <path id="Path_3748" data-name="Path 3748" d="M224.184,231.194a24.856,24.856,0,0,0-4.345-5.459l.967-.94c.993.927,1.418,1.338,1.988,1.961a10.289,10.289,0,0,0,3.087-4.161h-7.3V221.11h9.143a12.176,12.176,0,0,1-4.027,6.692,23.14,23.14,0,0,1,1.709,2.372Z" transform="translate(-180.145 -219.083)" fill="#fff"/>
      <path id="Path_3749" data-name="Path 3749" d="M240.342,230.046c1.127-.146,3.526-.635,3.526-4.227,0-1.272-.319-3.657-2.7-3.975-.252,5.857-1.789,8.521-3.313,8.521-1.378,0-2.027-2.014-2.027-3.962,0-4.042,2.6-5.963,5-5.963,2.782,0,4.4,2.226,4.4,5.393,0,2.624-1.021,5.049-4.413,5.645Zm-3.3-3.524c0,.649.172,2.225.887,2.225.477,0,.823-.781.955-1.1a18.581,18.581,0,0,0,1.047-5.737C237.732,222.44,237.043,224.732,237.043,226.521Z" transform="translate(-178.337 -219.153)" fill="#fff"/>
      <path id="Path_3750" data-name="Path 3750" d="M257.036,221.642c-.411.822-1.273,2.452-2.067,3.751.635-.041.847-.067,1.086-.093-.093-.319-.146-.464-.253-.756l.823-.4a16.186,16.186,0,0,1,.755,2.346l-.888.411-.133-.557c-.516.08-.569.093-.675.106v5.7h-1.074v-5.578c-.742.066-1.232.093-1.59.093l-.093-1.233c.4,0,.53,0,.809-.013.119-.171.224-.357.623-1.046a18.274,18.274,0,0,0-1.471-1.749l.542-1.047c.158.146.2.186.331.3a15.809,15.809,0,0,0,.94-2.133l1.061.384a25.8,25.8,0,0,1-1.233,2.584l.439.557c.1-.2.622-1.193,1.033-2.12Zm-4.148,9.276a23.993,23.993,0,0,0,.423-3.539l1.008.146a35.563,35.563,0,0,1-.4,3.723Zm3.352-.438a21.744,21.744,0,0,0-.253-2.955l.849-.278a19.141,19.141,0,0,1,.411,2.955Zm5.048-5.618h1.471v1.152h-1.471v1.643h1.471v1.153h-1.471v1.815h1.656v1.258h-5.234v-7.062l-.265.358-.583-1.233a10.088,10.088,0,0,0,1.7-4.24l1.192.252c-.265.927-.411,1.379-.663,2.08h1.074a20.964,20.964,0,0,0,.622-2.173l1.153.225a16.381,16.381,0,0,1-.61,1.948h1.616v1.207h-1.656Zm-2.491-1.616v1.616h1.458v-1.616Zm1.458,4.412v-1.643H258.8v1.643Zm-1.458,1.153v1.815h1.458v-1.815Z" transform="translate(-176.547 -219.23)" fill="#fff"/>
      <path id="Path_3751" data-name="Path 3751" d="M271.638,219.707h1.192v2.332h1.114v1.272H272.83v2.372c.293-.133.358-.159.9-.424l.106,1.3c-.424.225-.6.318-1.008.516v3.817c0,.609,0,1.272-1.126,1.272h-1.1l-.118-1.378h.768c.225,0,.385,0,.385-.464v-2.7c-.385.146-.6.225-1.152.411l-.2-1.4c.5-.159.81-.265,1.352-.451v-2.863h-1.245v-1.272h1.245Zm4.849,0h1.22v1.179h2.346v1.3h-2.346v1.537h2.664v1.326H279.31v1.311h.981v1.3h-.981v3.313c0,.463,0,1.192-1.126,1.192h-1.551l-.211-1.378h1.258c.37,0,.411-.133.411-.477v-2.651h-4.055v-1.3h4.055v-1.311h-4.148v-1.326h2.543v-1.537h-2.2v-1.3h2.2Zm-.755,10.826a8.74,8.74,0,0,0-1.325-1.974l1.113-.729a9.939,9.939,0,0,1,1.285,1.908Z" transform="translate(-174.723 -219.23)" fill="#fff"/>
      <path id="Path_3752" data-name="Path 3752" d="M289.069,230.028v-3.763a8.308,8.308,0,0,1-.9.438l-.517-1.18a6.123,6.123,0,0,0,2.385-1.4h-1.961c.119-.728.2-1.3.278-2.24h2.57c.013-.252.013-.318.013-.662h-2.915V220.3h2.915v-.583h1.114v.583H293.4v-.583h1.14v.583h2.649v2.346h-2.649v.675h3.286c-.106,2.7-.278,2.783-.928,2.783h-.344v3.922H294.7a7.611,7.611,0,0,0,3.062.888l-.7,1.285a9.287,9.287,0,0,1-3.206-1.192l.662-.981h-3.776l.689.888a6.724,6.724,0,0,1-3.113,1.219l-.53-1.219a6.786,6.786,0,0,0,2.7-.888Zm.371-7.38c-.014.146-.053.464-.081.675h1.207a2.881,2.881,0,0,0,.224-.675Zm.808,3.71h5.129v-.636h-5.129Zm0,.7v.662h5.129v-.662Zm0,1.378v.716h5.129v-.716Zm3.153-3.564v-.756h-2.054a5.28,5.28,0,0,1-.557.756Zm0-1.551v-.675H291.93a4.488,4.488,0,0,1-.2.675Zm0-1.444v-.662H292.05c0,.224,0,.423-.013.662Zm2.664,0v-.662h-1.524v.662Zm-1.524,2.24v.756h2.014v.146a.3.3,0,0,0,.066-.2c.012-.106.027-.557.027-.7Z" transform="translate(-172.903 -219.228)" fill="#fff"/>
      <path id="Path_3753" data-name="Path 3753" d="M307.82,230.9a22.711,22.711,0,0,0-2.147-2.928l1.139-.8a22.737,22.737,0,0,1,2.32,2.836Z" transform="translate(-171.013 -218.446)" fill="#fff"/>
      <path id="Path_3754" data-name="Path 3754" d="M324.334,228.145v1.961c0,.477.131.477.345.477h1.285c.636,0,.65,0,.662-1.935l1.207.424c-.027,2.649-.424,2.822-1.352,2.822H324.2c-.451,0-1.074,0-1.074-1.232v-2.518H322a5.059,5.059,0,0,1-3.7,4l-.583-1.484a3.389,3.389,0,0,0,3.047-2.518H319.1v-8.03h7.379v8.03Zm.941-6.811h-4.983v1.114h4.983Zm0,2.226h-4.983v1.114h4.983Zm-4.983,2.226v1.167h4.983v-1.167Z" transform="translate(-169.75 -219.187)" fill="#fff"/>
      <path id="Path_3755" data-name="Path 3755" d="M339.58,219.707h1.192v.915h4.387v1.205h-4.387v.809h3.5v7.182h-6.505v-7.182h1.814v-.809h-4.4v-1.205h4.4Zm5.525,10.906v1.192h-9.527v-9.169h1.232v7.977Zm-2.041-6.864h-4.148v.928h4.148Zm0,2.916V225.7h-4.148v.968Zm-4.148.98v1.047h4.148v-1.047Z" transform="translate(-167.919 -219.23)" fill="#fff"/>
      <path id="Path_3756" data-name="Path 3756" d="M361.861,226.279c-.609,4.572-2.849,5.207-4.518,5.207-3.367,0-3.419-2.464-3.419-5.273,0-.955.066-5.129.08-5.989l1.484.013c-.132,3.127-.159,6.453-.159,6.613,0,1.59.013,3.18,1.988,3.18,2.571,0,3.035-2.412,3.287-4.36Z" transform="translate(-165.954 -219.176)" fill="#fff"/>
      <path id="Path_3757" data-name="Path 3757" d="M375.276,225.194a4.6,4.6,0,0,0,2.6-3.166H370.4v-1.444h9.023c-.3,3.206-1.59,4.691-3.324,5.817Zm-4.77,5.076c3.326-1.709,3.3-5.036,3.3-7.01h1.338c-.052,3.1-.291,6.044-3.789,8.257Z" transform="translate(-164.226 -219.138)" fill="#fff"/>
      <path id="Path_3758" data-name="Path 3758" d="M394.177,221.342l1.457,1.8c-.371,2.372-.741,4.784-3.06,6.772a8.354,8.354,0,0,1-3.312,1.656l-.6-1.4c4.612-1.046,5.366-4.612,5.645-7.354h-6.426v-1.472Zm3.5-.37a1.491,1.491,0,1,1-1.471-1.7A1.6,1.6,0,0,1,397.675,220.972Zm-2.238,0a.825.825,0,0,0,.768.887.9.9,0,1,0-.768-.887Z" transform="translate(-162.393 -219.275)" fill="#fff"/>
      <path id="Path_3759" data-name="Path 3759" d="M407.512,227.7h-1.366v-7.168h1.366Zm5.512-1.709c0,3.776-2.173,5.155-5.976,5.512l-.438-1.431c3.154-.225,5.022-.848,5.022-3.962v-5.791h1.392Z" transform="translate(-160.478 -219.166)" fill="#fff"/>
    </g>
  </g>
</svg>
