<svg xmlns="http://www.w3.org/2000/svg" width="38" height="38" viewBox="0 0 38 38">
  <g id="Group_5633" data-name="Group 5633" transform="translate(-596.5 -319.5)">
    <g id="Ellipse_386" data-name="Ellipse 386" transform="translate(598 321)" fill="#9fced0" stroke="#6c6c6d" stroke-linecap="round" stroke-linejoin="round" stroke-width="1.5">
      <circle cx="17.5" cy="17.5" r="17.5" stroke="none"/>
      <circle cx="17.5" cy="17.5" r="18.25" fill="none"/>
    </g>
    <g id="Path_4553" data-name="Path 4553" fill="#fff" stroke-linecap="round" stroke-linejoin="round">
      <path d="M 615.6370239257812 353.2179870605469 C 613.5086059570312 353.2179870605469 611.4537353515625 352.7770690917969 609.5294189453125 351.9074401855469 C 607.670654296875 351.0674438476562 606.0293579101562 349.8733215332031 604.6510620117188 348.3582153320312 L 604.5855712890625 348.2862548828125 L 604.5859985351562 348.18896484375 C 604.594970703125 346.0262756347656 604.8123168945312 344.559814453125 607.6397094726562 343.9064025878906 L 607.8302001953125 343.8624572753906 C 609.7964477539062 343.408935546875 611.82958984375 342.9400024414062 612.295654296875 341.90625 C 612.4905395507812 341.4739685058594 612.4129028320312 340.9460144042969 612.0582885742188 340.2922058105469 C 609.8192138671875 336.1620483398438 609.3779296875 332.5574951171875 610.8157348632812 330.142578125 C 611.7736206054688 328.5337219238281 613.5308837890625 327.6109924316406 615.6370239257812 327.6109924316406 C 617.7268676757812 327.6109924316406 619.4724731445312 328.5196838378906 620.4263305664062 330.1040649414062 C 621.8623046875 332.4893493652344 621.43310546875 336.1067810058594 619.2179565429688 340.2899780273438 C 618.868896484375 340.9488830566406 618.795166015625 341.4793395996094 618.99267578125 341.9117736816406 C 619.4638671875 342.9436645507812 621.4319458007812 343.3979797363281 623.5155639648438 343.8789978027344 L 623.63427734375 343.9064025878906 C 626.4622802734375 344.5599670410156 626.6790161132812 346.0260314941406 626.68701171875 348.1880798339844 L 626.6873779296875 348.2852783203125 L 626.6219482421875 348.3572082519531 C 625.2437744140625 349.8726806640625 623.6025390625 351.0671081542969 621.7437133789062 351.9072875976562 C 619.8196411132812 352.7770080566406 617.7650756835938 353.2179870605469 615.6370239257812 353.2179870605469 Z" stroke="none"/>
      <path d="M 615.6370239257812 352.9679870605469 C 619.9169921875 352.9679870605469 623.7670288085938 351.125 626.43701171875 348.1889953613281 C 626.4290161132812 346.0180053710938 626.1959838867188 344.7550048828125 623.5780029296875 344.1499938964844 C 620.4829711914062 343.4349975585938 617.6010131835938 342.8080139160156 618.9970092773438 340.1730041503906 C 623.2449951171875 332.1510009765625 620.1229858398438 327.8609924316406 615.6370239257812 327.8609924316406 C 611.06298828125 327.8609924316406 608.0180053710938 332.3150024414062 612.2780151367188 340.1730041503906 C 613.7160034179688 342.8240051269531 610.7249755859375 343.4500122070312 607.6959838867188 344.1499938964844 C 605.0780029296875 344.7550048828125 604.844970703125 346.0190124511719 604.8359985351562 348.1900024414062 C 607.5059814453125 351.125 611.3560180664062 352.9679870605469 615.6370239257812 352.9679870605469 M 615.6370239257812 353.4679870605469 C 613.472900390625 353.4679870605469 611.3833618164062 353.0195922851562 609.4264526367188 352.13525390625 C 607.5364379882812 351.2811279296875 605.8675537109375 350.0669555664062 604.4661254882812 348.5264587402344 C 604.3818969726562 348.4338684082031 604.3355102539062 348.3130798339844 604.3359985351562 348.1879272460938 C 604.3451538085938 345.9756469726562 604.5834350585938 344.3561096191406 607.5834350585938 343.662841796875 L 607.7739868164062 343.6188354492188 C 609.6808471679688 343.1790466308594 611.6526489257812 342.7242736816406 612.0677490234375 341.8034973144531 C 612.2283935546875 341.4472351074219 612.1533813476562 340.9918823242188 611.8385009765625 340.4114074707031 C 609.5557250976562 336.2006225585938 609.1162719726562 332.5083618164062 610.6009521484375 330.0146789550781 C 611.60498046875 328.3282165527344 613.4406127929688 327.3609924316406 615.6370239257812 327.3609924316406 C 617.816650390625 327.3609924316406 619.640380859375 328.3138122558594 620.6405029296875 329.9751281738281 C 622.1234741210938 332.4384765625 621.6967163085938 336.1432495117188 619.4389038085938 340.406982421875 C 619.1286010742188 340.9926452636719 619.0570068359375 341.4508666992188 619.2200927734375 341.8079223632812 C 619.64013671875 342.7277526855469 621.6388549804688 343.1891784667969 623.5718383789062 343.6354064941406 L 623.6905517578125 343.6628112792969 C 626.6912231445312 344.3562927246094 626.9288940429688 345.9754333496094 626.93701171875 348.1871643066406 C 626.9375 348.3121948242188 626.8910522460938 348.4328918457031 626.8069458007812 348.525390625 C 625.4056396484375 350.0662841796875 623.7367553710938 351.28076171875 621.8466796875 352.1351013183594 C 619.8900146484375 353.0195617675781 617.80078125 353.4679870605469 615.6370239257812 353.4679870605469 Z" stroke="none" fill="#6c6c6d"/>
    </g>
  </g>
</svg>
