<svg xmlns="http://www.w3.org/2000/svg" width="42.632" height="34.667" viewBox="0 0 42.632 34.667">
  <g id="Path_4555" data-name="Path 4555" transform="translate(-519.872 -289.944)" fill="#9fced0" stroke-linecap="round" stroke-linejoin="round">
    <path d="M 547.0596923828125 323.861328125 C 541.6866455078125 323.861328125 537.315185546875 319.4917297363281 537.3135986328125 314.1195373535156 L 537.2061767578125 302.0294799804688 L 537.2061767578125 302.0261535644531 L 537.2061767578125 302.0228271484375 C 537.2061767578125 299.7852172851562 535.3921508789062 297.9647827148438 533.1624145507812 297.9647827148438 C 530.93212890625 297.9647827148438 529.11767578125 299.7788696289062 529.11767578125 302.0086975097656 L 529.11767578125 313.597900390625 C 530.7199096679688 314.60888671875 531.697265625 316.3619995117188 531.697265625 318.2767028808594 C 531.697265625 321.3299255371094 529.212890625 323.8139038085938 526.1591796875 323.8139038085938 C 523.10595703125 323.8139038085938 520.6220092773438 321.3299255371094 520.6220092773438 318.2767028808594 C 520.6220092773438 316.2861633300781 521.7042236328125 314.4493103027344 523.416259765625 313.4703369140625 L 523.416259765625 302.0086975097656 C 523.416259765625 296.6351318359375 527.7883911132812 292.2633972167969 533.1624145507812 292.2633972167969 C 538.5349731445312 292.2633972167969 542.9060668945312 296.633056640625 542.9076538085938 302.0052795410156 L 543.014892578125 314.0953063964844 L 543.0149536132812 314.0986328125 L 543.0149536132812 314.1019592285156 C 543.0149536132812 316.3395385742188 544.8294067382812 318.1599426269531 547.0596923828125 318.1599426269531 C 549.2894897460938 318.1599426269531 551.103515625 316.3458862304688 551.103515625 314.1160888671875 L 551.103515625 300.0767211914062 L 547.11962890625 300.0767211914062 L 545.459716796875 300.0767211914062 L 546.5567626953125 298.8310241699219 L 553.4991455078125 290.9483032226562 L 554.06201171875 290.3092346191406 L 554.6248779296875 290.9483032226562 L 561.5672607421875 298.8310241699219 L 562.664306640625 300.0767211914062 L 561.00439453125 300.0767211914062 L 556.804931640625 300.0767211914062 L 556.804931640625 314.1160888671875 C 556.804931640625 319.4896240234375 552.4332275390625 323.861328125 547.0596923828125 323.861328125 Z" stroke="none"/>
    <path d="M 554.06201171875 291.4440002441406 L 547.11962890625 299.3267211914062 L 551.853515625 299.3267211914062 L 551.853515625 314.1160888671875 C 551.853515625 316.7589111328125 549.7025146484375 318.9099426269531 547.0596923828125 318.9099426269531 C 544.416015625 318.9099426269531 542.2649536132812 316.7589111328125 542.2649536132812 314.1019592285156 L 542.1576538085938 302.0086975097656 C 542.1576538085938 297.0491943359375 538.1226806640625 293.0133972167969 533.1624145507812 293.0133972167969 C 528.2020874023438 293.0133972167969 524.166259765625 297.0491943359375 524.166259765625 302.0086975097656 L 524.166259765625 313.9272155761719 C 522.5186767578125 314.68359375 521.3720092773438 316.3445129394531 521.3720092773438 318.2767028808594 C 521.3720092773438 320.9203796386719 523.5155029296875 323.0639038085938 526.1591796875 323.0639038085938 C 528.8037109375 323.0639038085938 530.947265625 320.9203796386719 530.947265625 318.2767028808594 C 530.947265625 316.4293823242188 529.899658203125 314.8292236328125 528.36767578125 314.0312194824219 L 528.36767578125 302.0086975097656 C 528.36767578125 299.3658447265625 530.5187377929688 297.2147827148438 533.1624145507812 297.2147827148438 C 535.80517578125 297.2147827148438 537.9561767578125 299.3658447265625 537.9561767578125 302.0228271484375 L 538.0635986328125 314.1160888671875 C 538.0635986328125 319.0763854980469 542.099365234375 323.111328125 547.0596923828125 323.111328125 C 552.0199584960938 323.111328125 556.054931640625 319.0763854980469 556.054931640625 314.1160888671875 L 556.054931640625 299.3267211914062 L 561.00439453125 299.3267211914062 L 554.06201171875 291.4440002441406 M 554.06201171875 289.9440002441406 C 554.4928588867188 289.9440002441406 554.9028930664062 290.1292724609375 555.1876831054688 290.4526062011719 L 562.1300659179688 298.3353271484375 C 562.5196533203125 298.7776794433594 562.614013671875 299.4071960449219 562.371337890625 299.9443359375 C 562.128662109375 300.4815063476562 561.5938110351562 300.8267211914062 561.00439453125 300.8267211914062 L 557.554931640625 300.8267211914062 L 557.554931640625 314.1160888671875 C 557.554931640625 319.9031677246094 552.8468017578125 324.611328125 547.0596923828125 324.611328125 C 541.2742309570312 324.611328125 536.5670776367188 319.9071350097656 536.5635986328125 314.1229553222656 L 536.4562377929688 302.0361633300781 C 536.4561767578125 302.0317077636719 536.4561767578125 302.0272827148438 536.4561767578125 302.0228271484375 C 536.4561767578125 300.1987609863281 534.9785766601562 298.7147827148438 533.1624145507812 298.7147827148438 C 531.345703125 298.7147827148438 529.86767578125 300.1924438476562 529.86767578125 302.0086975097656 L 529.86767578125 313.2008666992188 C 531.478515625 314.3740539550781 532.447265625 316.2452392578125 532.447265625 318.2767028808594 C 532.447265625 321.7434692382812 529.62646484375 324.5639038085938 526.1591796875 324.5639038085938 C 522.6924438476562 324.5639038085938 519.8720092773438 321.7434692382812 519.8720092773438 318.2767028808594 C 519.8720092773438 316.1664123535156 520.9425048828125 314.2085876464844 522.666259765625 313.0534362792969 L 522.666259765625 302.0086975097656 C 522.666259765625 296.2215576171875 527.3748168945312 291.5133972167969 533.1624145507812 291.5133972167969 C 538.9473876953125 291.5133972167969 543.6541748046875 296.2176208496094 543.6576538085938 302.0018310546875 L 543.764892578125 314.0886535644531 C 543.7649536132812 314.0930786132812 543.7649536132812 314.0975341796875 543.7649536132812 314.1019592285156 C 543.7649536132812 315.9259948730469 545.2429809570312 317.4099426269531 547.0596923828125 317.4099426269531 C 548.8759155273438 317.4099426269531 550.353515625 315.9323425292969 550.353515625 314.1160888671875 L 550.353515625 300.8267211914062 L 547.11962890625 300.8267211914062 C 546.5302124023438 300.8267211914062 545.995361328125 300.4815063476562 545.752685546875 299.9443359375 C 545.510009765625 299.4071960449219 545.6043701171875 298.7776794433594 545.9939575195312 298.3353271484375 L 552.9363403320312 290.4526062011719 C 553.2211303710938 290.1292724609375 553.6311645507812 289.9440002441406 554.06201171875 289.9440002441406 Z" stroke="none" fill="#6c6c6d"/>
  </g>
</svg>
