<svg xmlns="http://www.w3.org/2000/svg" width="28.541" height="38.25" viewBox="0 0 28.541 38.25">
  <g id="Group_5636" data-name="Group 5636" transform="translate(-813.25 -294.5)">
    <g id="Path_4556" data-name="Path 4556" fill="#9fced0" stroke-linecap="round" stroke-linejoin="round">
      <path d="M 841.041015625 332 L 840.291015625 332 L 839.541015625 332 L 815.5 332 L 814.75 332 L 814 332 L 814 331.25 L 814 330.5 L 814 301.510009765625 L 814 300.760009765625 L 814 300.010009765625 L 814.75 300.010009765625 L 815.5 300.010009765625 L 833.8839721679688 300.010009765625 L 834.3469848632812 300.010009765625 L 834.8095092773438 300.010009765625 L 835.0171508789062 300.4233093261719 L 835.2251586914062 300.8372802734375 L 840.8815307617188 312.125 L 840.9600830078125 312.2800903320312 L 841.041015625 312.4398803710938 L 841.041015625 312.6189880371094 L 841.041015625 312.7969970703125 L 841.041015625 330.5 L 841.041015625 331.25 L 841.041015625 332 Z" stroke="none"/>
      <path d="M 840.291015625 331.25 L 840.291015625 330.5 L 840.291015625 312.7969970703125 L 840.291015625 312.6189880371094 L 840.2109985351562 312.4609985351562 L 834.5549926757812 301.1740112304688 L 834.3469848632812 300.760009765625 L 833.8839721679688 300.760009765625 L 815.5 300.760009765625 L 814.75 300.760009765625 L 814.75 301.510009765625 L 814.75 330.5 L 814.75 331.25 L 815.5 331.25 L 839.541015625 331.25 L 840.291015625 331.25 M 840.291015625 332.75 L 839.541015625 332.75 L 815.5 332.75 L 814.75 332.75 C 813.9215698242188 332.75 813.25 332.0784301757812 813.25 331.25 L 813.25 330.5 L 813.25 301.510009765625 L 813.25 300.760009765625 C 813.25 299.9315795898438 813.9215698242188 299.260009765625 814.75 299.260009765625 L 815.5 299.260009765625 L 833.8839721679688 299.260009765625 L 834.3469848632812 299.260009765625 C 834.9140625 299.260009765625 835.4326782226562 299.579833984375 835.6873168945312 300.0865783691406 L 835.8953247070312 300.5005798339844 L 841.5509033203125 311.7867126464844 L 841.629150390625 311.9412231445312 C 841.735595703125 312.1513061523438 841.791015625 312.3834838867188 841.791015625 312.6189880371094 L 841.791015625 312.7969970703125 L 841.791015625 330.5 L 841.791015625 331.25 C 841.791015625 332.0784301757812 841.1194458007812 332.75 840.291015625 332.75 Z" stroke="none" fill="#6c6c6d"/>
    </g>
    <path id="Path_4557" data-name="Path 4557" d="M827.167,321.985a3.964,3.964,0,0,1-3.977-3.942c0-2.043,1.4-4.117,3.53-7.257l.179-.265.268-.395.267.395.18.266c2.125,3.139,3.529,5.213,3.529,7.256A3.964,3.964,0,0,1,827.167,321.985Z" fill="#fff" stroke="#6c6c6d" stroke-linecap="round" stroke-linejoin="round" stroke-width="0.5"/>
    <g id="Path_4558" data-name="Path 4558" fill="#6c6c6d" stroke-linecap="round" stroke-linejoin="round">
      <path d="M 824.375 300.25 L 824.125 300.25 L 816 300.25 L 815.75 300.25 L 815.75 300 L 815.75 298.125 L 815.75 297.875 L 816 297.875 L 816.375 297.875 L 816.375 295 L 816.375 294.75 L 816.625 294.75 L 823.5 294.75 L 823.75 294.75 L 823.75 295 L 823.75 297.875 L 824.125 297.875 L 824.375 297.875 L 824.375 298.125 L 824.375 300 L 824.375 300.25 Z" stroke="none"/>
      <path d="M 824.125 300 L 824.125 298.125 L 823.5 298.125 L 823.5 295 L 816.625 295 L 816.625 298.125 L 816 298.125 L 816 300 L 824.125 300 M 824.125 300.5 L 816 300.5 C 815.723876953125 300.5 815.5 300.2761535644531 815.5 300 L 815.5 298.125 C 815.5 297.8488464355469 815.723876953125 297.625 816 297.625 L 816.125 297.625 L 816.125 295 C 816.125 294.7238464355469 816.348876953125 294.5 816.625 294.5 L 823.5 294.5 C 823.776123046875 294.5 824 294.7238464355469 824 295 L 824 297.625 L 824.125 297.625 C 824.401123046875 297.625 824.625 297.8488464355469 824.625 298.125 L 824.625 300 C 824.625 300.2761535644531 824.401123046875 300.5 824.125 300.5 Z" stroke="none" fill="#6c6c6d"/>
    </g>
  </g>
</svg>
