<svg xmlns="http://www.w3.org/2000/svg" width="34.554" height="40.896" viewBox="0 0 34.554 40.896">
  <g id="Group_5638" data-name="Group 5638" transform="translate(-450.997 -244.042)">
    <g id="Path_4559" data-name="Path 4559" transform="translate(-5.137 0)" fill="#9fced0" stroke-linecap="round" stroke-linejoin="round">
      <path d="M 473.424072265625 261.0915832519531 L 472.8011169433594 260.1138305664062 C 472.7575073242188 260.04541015625 471.72119140625 258.4149780273438 470.6699523925781 256.4227905273438 C 469.2194519042969 253.6739044189453 468.4883728027344 251.6482238769531 468.4970092773438 250.4020385742188 C 468.5072631835938 248.9198455810547 469.0208435058594 247.5235748291016 469.9431457519531 246.4703979492188 C 470.8910827636719 245.3879852294922 472.1563110351562 244.7918701171875 473.5057678222656 244.7918701171875 L 473.5364685058594 244.7919769287109 C 474.8924865722656 244.8011932373047 476.156982421875 245.4107818603516 477.0970458984375 246.5084533691406 C 478.0111083984375 247.5758056640625 478.5088195800781 248.9832000732422 478.4985046386719 250.4713592529297 C 478.4898681640625 251.7175445556641 477.7308349609375 253.7328796386719 476.2424621582031 256.4613952636719 C 475.1637878417969 258.4388427734375 474.1050415039062 260.0547180175781 474.0605163574219 260.1225280761719 L 473.424072265625 261.0915832519531 Z" stroke="none"/>
      <path d="M 473.5057373046875 245.5418701171875 C 471.1697692871094 245.5418701171875 469.265625 247.7138061523438 469.2469787597656 250.4072418212891 C 469.2282409667969 253.1105499267578 473.4336242675781 259.7108154296875 473.4336242675781 259.7108154296875 C 473.4336242675781 259.7108154296875 477.7297973632812 253.1694641113281 477.74853515625 250.4661560058594 C 477.7672729492188 247.7628479003906 475.8790893554688 245.5579223632812 473.5313720703125 245.5419616699219 C 473.5227661132812 245.5419006347656 473.5143127441406 245.5418701171875 473.5057373046875 245.5418701171875 M 473.5057373046875 244.0418701171875 L 473.5418395996094 244.0419921875 C 475.1181640625 244.0527038574219 476.5831604003906 244.7554016113281 477.6666870117188 246.0205993652344 C 478.6983032226562 247.2252197265625 479.2600708007812 248.8077087402344 479.2485046386719 250.4765625 C 479.2341918945312 252.5430908203125 477.4779968261719 255.7625885009766 476.90087890625 256.820556640625 C 475.8076782226562 258.8246154785156 474.7326354980469 260.4653930664062 474.6873779296875 260.5342407226562 C 474.4099426269531 260.9566955566406 473.9385681152344 261.2108154296875 473.4336547851562 261.2108154296875 C 473.43017578125 261.2108154296875 473.4267272949219 261.2108154296875 473.4232482910156 261.2107849121094 C 472.9143981933594 261.207275390625 472.4420166015625 260.9459838867188 472.1685791015625 260.516845703125 C 472.1242980957031 260.4473571777344 471.072021484375 258.7918090820312 470.0066528320312 256.7727966308594 C 467.7326965332031 252.4634094238281 467.7434692382812 250.9079742431641 467.7470092773438 250.3968353271484 C 467.7585144042969 248.7347412109375 468.3380737304688 247.164794921875 469.37890625 245.9762878417969 C 470.4713439941406 244.7288513183594 471.9369506835938 244.0418701171875 473.5057373046875 244.0418701171875 Z" stroke="none" fill="#6c6c6d"/>
    </g>
    <g id="Path_4560" data-name="Path 4560" transform="translate(-1.123 -2.654)" fill="#9fced0" stroke-linecap="round" stroke-linejoin="round">
      <path d="M 470.8050537109375 263.1256713867188 L 469.4147644042969 263.114990234375 C 469.3389282226562 263.1144104003906 461.8025512695312 263.0566711425781 459.42333984375 263.0464172363281 C 458.1468505859375 263.0411682128906 457.0300903320312 262.3955383300781 456.2789916992188 261.2284851074219 C 455.3407592773438 259.7707214355469 455.150146484375 257.7203369140625 455.8154602050781 256.2423095703125 C 456.5926818847656 254.5150604248047 458.3730773925781 253.4420318603516 460.4617919921875 253.4420318603516 C 461.3356628417969 253.4420318603516 462.1949462890625 253.6293640136719 463.0158386230469 253.9988403320312 C 464.1520385742188 254.5100708007812 465.6887512207031 256.0186462402344 467.5831604003906 258.4826354980469 C 468.9560852050781 260.2683715820312 470.0064086914062 261.8898010253906 470.0504455566406 261.9579772949219 L 470.8050537109375 263.1256713867188 Z" stroke="none"/>
      <path d="M 460.4618225097656 254.1920166015625 C 458.7383728027344 254.1920166015625 457.1737670898438 255.0514221191406 456.4993591308594 256.5501403808594 C 455.535888671875 258.6906127929688 456.7232971191406 262.2853088378906 459.4265747070312 262.2964172363281 C 461.8345947265625 262.3067932128906 469.4205322265625 262.3650207519531 469.4205322265625 262.3650207519531 C 469.4205322265625 262.3650207519531 465.1728515625 255.7918090820312 462.7080078125 254.6827392578125 C 461.9682312011719 254.3497619628906 461.2005920410156 254.1920166015625 460.4618225097656 254.1920166015625 M 460.4618225097656 252.6920166015625 C 461.4425354003906 252.6920166015625 462.4053955078125 252.9015808105469 463.3236694335938 253.3149108886719 C 465.2078857421875 254.1627197265625 467.4432067871094 257.0700988769531 468.1777648925781 258.0255126953125 C 469.5691528320312 259.8352661132812 470.6356506347656 261.481689453125 470.6803588867188 261.5509033203125 C 470.9796447753906 262.0140380859375 471.0007019042969 262.60400390625 470.7351989746094 263.0872802734375 C 470.4715270996094 263.5671997070312 469.9674987792969 263.8650512695312 469.4205932617188 263.8650512695312 C 469.4167175292969 263.8650512695312 469.4129028320312 263.8650207519531 469.4090270996094 263.864990234375 C 469.3331909179688 263.8643798828125 461.7980651855469 263.806640625 459.4201049804688 263.79638671875 C 457.9034729003906 263.7901611328125 456.5285949707031 263.0021362304688 455.6483154296875 261.6343994140625 C 454.5633850097656 259.9486694335938 454.355712890625 257.6580505371094 455.1315307617188 255.9344787597656 C 456.031494140625 253.9345092773438 458.0739440917969 252.6920166015625 460.4618225097656 252.6920166015625 Z" stroke="none" fill="#6c6c6d"/>
    </g>
    <g id="Path_4561" data-name="Path 4561" transform="translate(-6.99 -2.709)" fill="#9fced0" stroke-linecap="round" stroke-linejoin="round">
      <path d="M 485.3116760253906 263.2384033203125 C 485.3114624023438 263.2384033203125 485.3113098144531 263.2384033203125 485.3110961914062 263.2384033203125 L 485.2742919921875 263.2382202148438 C 482.895263671875 263.215576171875 475.3582763671875 263.1700744628906 475.2824401855469 263.1696166992188 L 473.8920593261719 263.1612243652344 L 474.6626892089844 262.0039367675781 C 474.7076721191406 261.9364013671875 475.7802124023438 260.3294982910156 477.1776428222656 258.5628051757812 C 479.1058349609375 256.1250305175781 480.6632385253906 254.6376953125 481.8065795898438 254.1420745849609 C 482.6053161621094 253.7956085205078 483.4395141601562 253.6199035644531 484.2858581542969 253.6199035644531 C 485.293701171875 253.6199035644531 486.2584838867188 253.8748321533203 487.0758666992188 254.3571319580078 C 487.9346008300781 254.8638153076172 488.5913696289062 255.5994262695312 488.9752197265625 256.4844360351562 C 489.6163024902344 257.9631652832031 489.4026794433594 260.0032348632812 488.4557495117188 261.4456176757812 C 487.69677734375 262.6016845703125 486.5801696777344 263.2384033203125 485.3116760253906 263.2384033203125 Z" stroke="none"/>
      <path d="M 484.2858581542969 254.3699035644531 C 483.5691833496094 254.3699035644531 482.824951171875 254.5178527832031 482.1048583984375 254.8302001953125 C 479.624755859375 255.9052734375 475.2869567871094 262.4196166992188 475.2869567871094 262.4196166992188 C 475.2869567871094 262.4196166992188 482.8735656738281 262.46533203125 485.2815856933594 262.4882507324219 C 485.2913208007812 262.4883422851562 485.301513671875 262.4884033203125 485.3111877441406 262.4884033203125 C 487.9942321777344 262.4884033203125 489.2174682617188 258.9287414550781 488.2871398925781 256.7828674316406 C 487.6240539550781 255.2540283203125 486.0375366210938 254.3699340820312 484.2858581542969 254.3699035644531 M 484.2857055664062 252.8699035644531 C 484.2857055664062 252.8699035644531 484.285888671875 252.8699035644531 484.285888671875 252.8699035644531 C 485.4276733398438 252.8699340820312 486.5242309570312 253.1608276367188 487.4570007324219 253.7112121582031 C 488.4530639648438 254.2989196777344 489.2159729003906 255.1547241210938 489.6632690429688 256.1860046386719 C 490.4108276367188 257.9102478027344 490.1775817871094 260.1890258789062 489.0829772949219 261.8566284179688 C 488.1806335449219 263.2313232421875 486.8411254882812 263.9884033203125 485.3112182617188 263.9884033203125 L 485.2677307128906 263.9881896972656 C 482.889404296875 263.9655456542969 475.353759765625 263.9200439453125 475.2779235839844 263.9195861816406 C 474.7265014648438 263.916259765625 474.2213745117188 263.6106567382812 473.9624938964844 263.123779296875 C 473.7036437988281 262.6369018554688 473.7328186035156 262.0472412109375 474.0384216308594 261.5882568359375 C 474.0841064453125 261.5196533203125 475.1731567382812 259.8880004882812 476.5894165039062 258.0975036621094 C 479.6122436523438 254.2758178710938 481.0393371582031 253.6572265625 481.5082702636719 253.4539489746094 C 482.401611328125 253.0664367675781 483.336181640625 252.8699035644531 484.2857055664062 252.8699035644531 Z" stroke="none" fill="#6c6c6d"/>
    </g>
    <g id="Rectangle_2299" data-name="Rectangle 2299" transform="translate(453.557 266.432) rotate(0.394)" fill="#fff" stroke="#6c6c6d" stroke-linecap="round" stroke-linejoin="round" stroke-width="1.5">
      <rect width="29.388" height="16.793" stroke="none"/>
      <rect x="-0.75" y="-0.75" width="30.888" height="18.293" fill="none"/>
    </g>
    <g id="Rectangle_2300" data-name="Rectangle 2300" transform="translate(452.554 259.603) rotate(0.394)" fill="#fff" stroke="#6c6c6d" stroke-linecap="round" stroke-linejoin="round" stroke-width="1.5">
      <rect width="31.488" height="6.822" stroke="none"/>
      <rect x="-0.75" y="-0.75" width="32.988" height="8.322" fill="none"/>
    </g>
    <g id="Rectangle_2301" data-name="Rectangle 2301" transform="translate(464.886 259.688) rotate(0.394)" fill="#9fced0" stroke="#6c6c6d" stroke-linecap="round" stroke-linejoin="round" stroke-width="1.5">
      <rect width="6.822" height="23.616" stroke="none"/>
      <rect x="-0.75" y="-0.75" width="8.322" height="25.116" fill="none"/>
    </g>
  </g>
</svg>
