<svg xmlns="http://www.w3.org/2000/svg" width="37.279" height="35.781" viewBox="0 0 37.279 35.781">
  <g id="Group_5620" data-name="Group 5620" transform="translate(-208.488 -285.517)">
    <g id="Group_5619" data-name="Group 5619">
      <path id="Path_4535" data-name="Path 4535" d="M232.828,286.267H211.859a2.62,2.62,0,0,0-2.608,2.621l-.013,23.59,5.242-5.242h18.348a2.628,2.628,0,0,0,2.621-2.621V288.888A2.628,2.628,0,0,0,232.828,286.267Z" fill="#9fced0" stroke="#6b6d6d" stroke-linecap="round" stroke-linejoin="round" stroke-width="1.5"/>
      <rect id="Rectangle_2280" data-name="Rectangle 2280" width="15.727" height="2.621" transform="translate(214.48 299.373)" stroke-width="0.374" stroke="#6b6d6d" stroke-linecap="round" stroke-linejoin="round" fill="#fff"/>
      <rect id="Rectangle_2281" data-name="Rectangle 2281" width="15.727" height="2.621" transform="translate(214.48 295.441)" stroke-width="0.374" stroke="#6b6d6d" stroke-linecap="round" stroke-linejoin="round" fill="#fff"/>
      <rect id="Rectangle_2282" data-name="Rectangle 2282" width="15.727" height="2.621" transform="translate(214.48 291.509)" stroke-width="0.374" stroke="#6b6d6d" stroke-linecap="round" stroke-linejoin="round" fill="#fff"/>
    </g>
    <path id="ic_create_24px" data-name="ic create 24px" d="M228.238,317.646V321.3h3.652l10.77-10.77-3.652-3.652Zm17.245-9.942a.971.971,0,0,0,0-1.372h0l-2.278-2.279a.97.97,0,0,0-1.372,0h0l-1.782,1.782,3.652,3.652,1.782-1.782Z" fill="#6c6c6d"/>
  </g>
</svg>
