<svg xmlns="http://www.w3.org/2000/svg" width="156.493" height="152.028" viewBox="0 0 156.493 152.028">
  <g id="Group_6474" data-name="Group 6474" transform="translate(-259.199 -374.624)">
    <g id="Group_6468" data-name="Group 6468" transform="translate(260.699 376.267)">
      <path id="Path_5293" data-name="Path 5293" d="M415.172,1948.5a74.406,74.406,0,1,1-15.2,112.427l-23.618.558,10.509-21.1A74.412,74.412,0,0,1,415.172,1948.5Z" transform="translate(-376.352 -1936.757)" fill="#fff"/>
      <path id="Path_5294" data-name="Path 5294" d="M515.558,1969.9a74.259,74.259,0,0,0-18.2-19.553A74.408,74.408,0,0,0,392.7,2044.557l-7.726,15.513,12.605-.3a73.834,73.834,0,0,0,5.393,5.4l2.837-.067a73.92,73.92,0,0,0,10.821,9.863A74.4,74.4,0,0,0,515.558,1969.9Z" transform="translate(-373.957 -1935.597)" fill="#e4f2f3"/>
      <path id="Path_5295" data-name="Path 5295" d="M415.172,1948.5a74.406,74.406,0,1,1-15.2,112.427l-23.618.558,10.509-21.1A74.412,74.412,0,0,1,415.172,1948.5Z" transform="translate(-376.352 -1936.757)" fill="none" stroke="#666" stroke-linecap="round" stroke-linejoin="round" stroke-width="3"/>
    </g>
    <g id="Group_6470" data-name="Group 6470" transform="translate(304.417 460.74)">
      <g id="Group_6469" data-name="Group 6469">
        <path id="Path_5296" data-name="Path 5296" d="M410.562,2003.258h4.088a13.427,13.427,0,0,1,4.783.613,4.847,4.847,0,0,1,2.312,1.982,6.123,6.123,0,0,1,.847,3.282,5.5,5.5,0,0,1-1.109,3.523,5.755,5.755,0,0,1-3.007,1.955,17.3,17.3,0,0,1-4.06.316v8.575h-3.854Zm3.854,7.914h1.225a6.632,6.632,0,0,0,2.009-.207,1.792,1.792,0,0,0,.888-.684,2.009,2.009,0,0,0,.323-1.152,1.844,1.844,0,0,0-.909-1.713,5.183,5.183,0,0,0-2.45-.4h-1.087Z" transform="translate(-410.562 -2002.749)" fill="#666"/>
        <path id="Path_5297" data-name="Path 5297" d="M422.819,2003.258h3.867v13.092a6.763,6.763,0,0,0,.3,2.392,2.375,2.375,0,0,0,.976,1.121,3.077,3.077,0,0,0,1.645.421,3.212,3.212,0,0,0,1.755-.468,2.462,2.462,0,0,0,1.019-1.19,8.842,8.842,0,0,0,.282-2.758v-12.61h3.867v12.071a17.493,17.493,0,0,1-.344,4.239,6,6,0,0,1-1.314,2.284,6.09,6.09,0,0,1-2.236,1.63,7.576,7.576,0,0,1-2.946.53,7.13,7.13,0,0,1-3.834-1.011,5.885,5.885,0,0,1-2.332-2.533,13.368,13.368,0,0,1-.7-5.14Z" transform="translate(-407.156 -2002.749)" fill="#666"/>
        <path id="Path_5298" data-name="Path 5298" d="M448.051,2006.121l-2.855,2.519q-1.5-2.091-3.061-2.092a1.857,1.857,0,0,0-1.241.407,1.181,1.181,0,0,0-.482.915,1.573,1.573,0,0,0,.344.964,26.213,26.213,0,0,0,2.827,2.6q2.207,1.846,2.675,2.328a8.08,8.08,0,0,1,1.661,2.264,5.654,5.654,0,0,1,.49,2.36,5.413,5.413,0,0,1-1.723,4.115,6.275,6.275,0,0,1-4.492,1.624,6.678,6.678,0,0,1-3.767-1.059,8.363,8.363,0,0,1-2.749-3.331l3.238-1.954q1.463,2.683,3.363,2.683a2.479,2.479,0,0,0,1.668-.577,1.719,1.719,0,0,0,.676-1.335,2.3,2.3,0,0,0-.51-1.375,14.673,14.673,0,0,0-2.247-2.106,22.7,22.7,0,0,1-4.275-4.163,5.285,5.285,0,0,1-.965-2.925,4.784,4.784,0,0,1,1.6-3.613,5.571,5.571,0,0,1,3.962-1.507,6.25,6.25,0,0,1,2.887.7A10.517,10.517,0,0,1,448.051,2006.121Z" transform="translate(-403.582 -2002.86)" fill="#666"/>
        <path id="Path_5299" data-name="Path 5299" d="M448.5,2003.258h3.909v7.638h6.758v-7.638h3.9V2023.5h-3.9v-8.877h-6.758v8.877H448.5Z" transform="translate(-400.017 -2002.749)" fill="#666"/>
        <path id="Path_5300" data-name="Path 5300" d="M465.3,2019.293a2.293,2.293,0,0,1,1.673.688,2.369,2.369,0,1,1-1.673-.687Zm-1.9-16.433h3.8v14.8h-3.8Z" transform="translate(-396.004 -2002.86)" fill="#666"/>
      </g>
    </g>
    <g id="Group_6473" data-name="Group 6473" transform="translate(320.922 408.318)">
      <path id="Path_5301" data-name="Path 5301" d="M459.826,1967.562a2.644,2.644,0,0,0,.266-.218,2.677,2.677,0,1,0-4-3.517c-8.246-5.757-16.659,2.528-21.87,6a43.23,43.23,0,0,1-10.742,4.834l10.429,10.54-.008-.008a3.7,3.7,0,1,0,4.558,4.558l10.533,10.421a43.236,43.236,0,0,1,4.834-10.742C457.3,1984.221,465.583,1975.808,459.826,1967.562Z" transform="translate(-423.478 -1961.836)" fill="#fff"/>
      <g id="Group_6471" data-name="Group 6471" transform="translate(3.817 2.926)">
        <path id="Path_5302" data-name="Path 5302" d="M437.284,1973.894a29.087,29.087,0,0,1-10.819,3.964l12.158,11.7,9.664,9.56a42.581,42.581,0,0,1,4.708-10.317c3.692-5.539,12.821-14.7,4.74-23.425C449.751,1960.677,442.324,1970.534,437.284,1973.894Z" transform="translate(-426.465 -1964.128)" fill="#fff3be"/>
        <path id="Path_5303" data-name="Path 5303" d="M432.222,1980.117a3.7,3.7,0,1,0,4.558,4.558Z" transform="translate(-425.618 -1959.684)" fill="#fff3be"/>
      </g>
      <g id="Group_6472" data-name="Group 6472">
        <path id="Path_5304" data-name="Path 5304" d="M436.166,1987.488l12.824,12.688a43.233,43.233,0,0,1,4.834-10.742c3.76-5.639,13.168-15.029,4.3-23.9s-18.261.537-23.9,4.3a43.231,43.231,0,0,1-10.742,4.834Z" transform="translate(-423.478 -1961.839)" fill="none" stroke="#666" stroke-linecap="round" stroke-linejoin="round" stroke-width="2"/>
        <path id="Path_5305" data-name="Path 5305" d="M427.05,1977.666a23.4,23.4,0,0,0,10.071-4.7c3.089-2.282,6.58-5.505,6.58-5.505" transform="translate(-422.485 -1960.276)" fill="none" stroke="#666" stroke-linecap="round" stroke-linejoin="round" stroke-width="2"/>
        <path id="Path_5306" data-name="Path 5306" d="M452.952,1967.141a2.675,2.675,0,1,0-3.784-3.783" transform="translate(-416.339 -1961.634)" fill="none" stroke="#666" stroke-linecap="round" stroke-linejoin="round" stroke-width="2"/>
        <path id="Path_5307" data-name="Path 5307" d="M432.222,1980.117a3.7,3.7,0,1,0,4.558,4.558" transform="translate(-421.801 -1956.758)" fill="none" stroke="#666" stroke-linecap="round" stroke-linejoin="round" stroke-width="2"/>
      </g>
    </g>
  </g>
</svg>
