<svg xmlns="http://www.w3.org/2000/svg" width="25.667" height="28" viewBox="0 0 25.667 28">
  <path id="ic_local_gas_station_24px" d="M28.531,9.58l.016-.016L22.76,3.778,21.111,5.427l3.282,3.282a3.883,3.883,0,0,0,1.384,7.513,3.976,3.976,0,0,0,1.556-.327V27.111a1.556,1.556,0,1,1-3.111,0v-7A3.12,3.12,0,0,0,21.111,17H19.556V6.111A3.12,3.12,0,0,0,16.444,3H7.111A3.12,3.12,0,0,0,4,6.111V31H19.556V19.333h2.333v7.778a3.889,3.889,0,1,0,7.778,0V12.333A3.892,3.892,0,0,0,28.531,9.58ZM16.444,13.889H7.111V6.111h9.333Zm9.333,0a1.556,1.556,0,1,1,1.556-1.556A1.56,1.56,0,0,1,25.778,13.889Z" transform="translate(-4 -3)" fill="#999"/>
</svg>
