<svg id="無料で使えるタイヤアイコン" xmlns="http://www.w3.org/2000/svg" width="28" height="28" viewBox="0 0 28 28">
  <path id="Path_3356" data-name="Path 3356" d="M27.28,14c0-.06,0-.119,0-.179q.362-.1.724-.2a14.133,14.133,0,0,0-.193-1.969c-.249-.024-.5-.044-.75-.061A13.2,13.2,0,0,0,26.2,8.751c.2-.151.393-.308.589-.466a14.113,14.113,0,0,0-.935-1.744c-.239.073-.477.151-.716.231a13.322,13.322,0,0,0-1.885-2.294c.124-.217.254-.43.373-.651A14.371,14.371,0,0,0,22.1,2.573c-.194.16-.377.328-.565.492a13.175,13.175,0,0,0-2.619-1.4q.049-.373.087-.748A14,14,0,0,0,17.108.341c-.118.223-.231.445-.341.668A13.351,13.351,0,0,0,14,.719c-.063,0-.125,0-.189.005-.065-.242-.124-.484-.2-.724a14.132,14.132,0,0,0-1.968.192c-.024.25-.044.5-.062.75A13.228,13.228,0,0,0,8.751,1.8q-.229-.3-.466-.588a14.036,14.036,0,0,0-1.744.935c.073.239.151.477.231.716A13.3,13.3,0,0,0,4.479,4.746c-.217-.125-.43-.254-.651-.373A14.278,14.278,0,0,0,2.573,5.9c.16.194.328.377.492.566a13.182,13.182,0,0,0-1.4,2.618Q1.291,9.036.917,9a13.962,13.962,0,0,0-.575,1.894c.223.118.445.231.669.342A13.322,13.322,0,0,0,.719,14c0,.06,0,.12,0,.179-.241.065-.483.133-.723.205a14.131,14.131,0,0,0,.192,1.967q.374.036.75.062A13.251,13.251,0,0,0,1.8,19.249c-.2.152-.392.308-.588.466a13.835,13.835,0,0,0,.935,1.744q.358-.11.715-.231a13.343,13.343,0,0,0,1.886,2.294c-.125.217-.254.429-.373.65A14.076,14.076,0,0,0,5.9,25.427c.194-.161.377-.329.565-.493a13.191,13.191,0,0,0,2.618,1.4c-.032.249-.062.5-.087.748a13.989,13.989,0,0,0,1.895.574q.175-.335.341-.669A13.322,13.322,0,0,0,14,27.28c.063,0,.125,0,.188,0,.066.241.124.483.2.724a14.116,14.116,0,0,0,1.968-.192q.037-.374.062-.75a13.146,13.146,0,0,0,2.835-.857c.151.2.307.393.466.589a13.95,13.95,0,0,0,1.744-.935q-.11-.358-.231-.716a13.3,13.3,0,0,0,2.294-1.885c.217.125.429.254.65.373A14.164,14.164,0,0,0,25.427,22.1c-.161-.194-.328-.377-.492-.565a13.262,13.262,0,0,0,1.4-2.619q.374.049.747.086a14.068,14.068,0,0,0,.574-1.894q-.335-.175-.669-.341A13.318,13.318,0,0,0,27.28,14ZM14,22.465A8.465,8.465,0,1,1,22.466,14,8.465,8.465,0,0,1,14,22.465Z" fill="#999"/>
  <path id="Path_3357" data-name="Path 3357" d="M241.841,242.667a.818.818,0,1,0-.819-.818A.818.818,0,0,0,241.841,242.667Z" transform="translate(-227.841 -227.849)" fill="#999"/>
  <path id="Path_3358" data-name="Path 3358" d="M155.553,144.734a.537.537,0,0,0,.336.323l2.919.948a.892.892,0,0,0,1.167-.849v-3.066a.536.536,0,0,0-.658-.521s.044-.033-.251.059A6.5,6.5,0,0,0,155.7,144.1c-.166.238-.1.17-.1.17A.532.532,0,0,0,155.553,144.734Z" transform="translate(-147.015 -133.814)" fill="#999"/>
  <path id="Path_3359" data-name="Path 3359" d="M141.639,242.791a.89.89,0,0,0-.572-.573l-2.916-.947a.535.535,0,0,0-.7.465s-.019-.052-.021.258a6.5,6.5,0,0,0,1.31,3.966c.175.232.13.15.13.15a.535.535,0,0,0,.838-.036l1.8-2.483A.889.889,0,0,0,141.639,242.791Z" transform="translate(-129.915 -228.051)" fill="#999"/>
  <path id="Path_3360" data-name="Path 3360" d="M211.326,300.121a.893.893,0,0,0-1.444,0l-1.8,2.48a.535.535,0,0,0,.227.809s-.055,0,.238.1a6.5,6.5,0,0,0,4.177-.022c.275-.094.182-.077.182-.077a.536.536,0,0,0,.225-.808Z" transform="translate(-196.604 -283.361)" fill="#999"/>
  <path id="Path_3361" data-name="Path 3361" d="M300.34,241.254l-2.919.948a.892.892,0,0,0-.446,1.372l1.8,2.48a.534.534,0,0,0,.839.035s-.015.053.169-.2a6.5,6.5,0,0,0,1.27-3.979c0-.29-.017-.2-.017-.2a.534.534,0,0,0-.7-.464Z" transform="translate(-280.573 -228.035)" fill="#999"/>
  <path id="Path_3362" data-name="Path 3362" d="M275.359,145.834a.9.9,0,0,0,.8.127l2.916-.948a.535.535,0,0,0,.292-.787s.046.031-.134-.22a6.5,6.5,0,0,0-3.392-2.439c-.277-.084-.193-.044-.193-.044a.535.535,0,0,0-.656.521v3.069A.893.893,0,0,0,275.359,145.834Z" transform="translate(-259.953 -133.769)" fill="#999"/>
</svg>
