<svg xmlns="http://www.w3.org/2000/svg" width="28" height="27.097" viewBox="0 0 28 27.097">
  <g id="Group_1974" data-name="Group 1974" transform="translate(-214 -363)">
    <path id="ic_create_24px" d="M3,13.742v2.827H5.827l8.338-8.338L11.338,5.4Zm13.351-7.7a.751.751,0,0,0,0-1.063L14.587,3.218a.751.751,0,0,0-1.063,0L12.145,4.6l2.827,2.827,1.38-1.38Z" transform="translate(225.428 373.527)" fill="#999"/>
    <path id="ic_message_24px" d="M19.654,2H3.962A1.959,1.959,0,0,0,2.01,3.962L2,21.615l3.923-3.923H19.654a1.967,1.967,0,0,0,1.962-1.962V3.962A1.967,1.967,0,0,0,19.654,2ZM17.692,13.769H5.923V11.808H17.692Zm0-2.942H5.923V8.865H17.692Zm0-2.942H5.923V5.923H17.692Z" transform="translate(212 361)" fill="#999"/>
  </g>
</svg>
