<svg xmlns="http://www.w3.org/2000/svg" width="28" height="28" viewBox="0 0 28 28">
  <path id="ic_loyalty_24px" d="M29.174,15.412l-12.6-12.6A2.782,2.782,0,0,0,14.6,2H4.8A2.808,2.808,0,0,0,2,4.8v9.8a2.794,2.794,0,0,0,.826,1.988l12.6,12.6A2.783,2.783,0,0,0,17.4,30a2.737,2.737,0,0,0,1.974-.826l9.8-9.8A2.737,2.737,0,0,0,30,17.4,2.828,2.828,0,0,0,29.174,15.412ZM6.9,9A2.1,2.1,0,1,1,9,6.9,2.1,2.1,0,0,1,6.9,9ZM23.378,20.578,17.4,26.556l-5.978-5.978A3.5,3.5,0,0,1,13.9,14.6a3.457,3.457,0,0,1,2.478,1.036L17.4,16.644l1.022-1.022a3.5,3.5,0,0,1,4.956,4.956Z" transform="translate(-2 -2)" fill="#999"/>
</svg>
