<svg xmlns="http://www.w3.org/2000/svg" width="27.236" height="28" viewBox="0 0 27.236 28">
  <path id="ic_settings_24px" d="M26.294,17.372a10.91,10.91,0,0,0,.1-1.372,10.91,10.91,0,0,0-.1-1.372l2.954-2.31a.706.706,0,0,0,.168-.9l-2.8-4.844a.7.7,0,0,0-.854-.308l-3.486,1.4A10.228,10.228,0,0,0,19.91,6.3l-.532-3.71A.683.683,0,0,0,18.692,2h-5.6a.683.683,0,0,0-.686.588L11.874,6.3A10.756,10.756,0,0,0,9.508,7.67L6.022,6.27a.683.683,0,0,0-.854.308l-2.8,4.844a.69.69,0,0,0,.168.9l2.954,2.31A11.1,11.1,0,0,0,5.392,16a11.1,11.1,0,0,0,.1,1.372l-2.954,2.31a.706.706,0,0,0-.168.9l2.8,4.844a.7.7,0,0,0,.854.308l3.486-1.4A10.228,10.228,0,0,0,11.874,25.7l.532,3.71a.683.683,0,0,0,.686.588h5.6a.683.683,0,0,0,.686-.588l.532-3.71a10.756,10.756,0,0,0,2.366-1.372l3.486,1.4a.683.683,0,0,0,.854-.308l2.8-4.844a.706.706,0,0,0-.168-.9ZM15.892,20.9a4.9,4.9,0,1,1,4.9-4.9A4.905,4.905,0,0,1,15.892,20.9Z" transform="translate(-2.271 -2)" fill="#999"/>
</svg>
