<svg xmlns="http://www.w3.org/2000/svg" width="28" height="26.6" viewBox="0 0 28 26.6">
  <path id="ic_card_giftcard_24px" d="M27.2,7.6H24.148A4.19,4.19,0,0,0,16.7,3.89l-.7.938-.7-.952A4.191,4.191,0,0,0,7.852,7.6H4.8a2.778,2.778,0,0,0-2.786,2.8L2,25.8a2.79,2.79,0,0,0,2.8,2.8H27.2A2.79,2.79,0,0,0,30,25.8V10.4A2.79,2.79,0,0,0,27.2,7.6Zm-7-2.8a1.4,1.4,0,1,1-1.4,1.4A1.4,1.4,0,0,1,20.2,4.8Zm-8.4,0a1.4,1.4,0,1,1-1.4,1.4A1.4,1.4,0,0,1,11.8,4.8Zm15.4,21H4.8V23H27.2Zm0-7H4.8V10.4h7.112L9,14.362,11.268,16,14.6,11.464,16,9.56l1.4,1.9L20.732,16,23,14.362,20.088,10.4H27.2Z" transform="translate(-2 -2)" fill="#999"/>
</svg>
