<svg xmlns="http://www.w3.org/2000/svg" width="150" height="75" viewBox="0 0 150 75">
  <g id="img_Numberplate" opacity="0.5">
    <g id="Group_4417" data-name="Group 4417" opacity="0.8">
      <path id="Path_3762" data-name="Path 3762" d="M142.5,0H7.5A7.5,7.5,0,0,0,0,7.5v60A7.5,7.5,0,0,0,7.5,75h135a7.5,7.5,0,0,0,7.5-7.5V7.5A7.5,7.5,0,0,0,142.5,0ZM147,67.5a4.505,4.505,0,0,1-4.5,4.5H7.5A4.505,4.505,0,0,1,3,67.5V7.5A4.505,4.505,0,0,1,7.5,3h135A4.505,4.505,0,0,1,147,7.5Z" fill="#4b9fa5"/>
      <ellipse id="Ellipse_300" data-name="Ellipse 300" cx="3.75" cy="3.75" rx="3.75" ry="3.75" transform="translate(22.664 8)" fill="#4b9fa5"/>
      <circle id="Ellipse_301" data-name="Ellipse 301" cx="2.25" cy="2.25" r="2.25" transform="translate(118.915 9.75)" fill="#4b9fa5"/>
      <path id="Path_3763" data-name="Path 3763" d="M85.493,26.26c1.035-1.71,1.136-4.625,1.136-5.974-.014-2.752-.373-7.61-3.915-7.61s-3.916,4.84-3.916,7.61c0,1.62.144,4.282,1.137,5.974a3.2,3.2,0,0,0,5.558,0Z" transform="translate(0 0)" fill="#4b9fa5"/>
      <path id="Path_3764" data-name="Path 3764" d="M103.737,12.676c-3.542,0-3.915,4.84-3.915,7.61,0,1.62.143,4.282,1.136,5.974a3.2,3.2,0,0,0,5.558,0c1.036-1.71,1.137-4.625,1.137-5.974C107.638,17.534,107.279,12.676,103.737,12.676Z" transform="translate(0 0)" fill="#4b9fa5"/>
      <path id="Path_3765" data-name="Path 3765" d="M96,26.26c1.036-1.71,1.137-4.625,1.137-5.974-.015-2.752-.374-7.61-3.916-7.61s-3.915,4.84-3.915,7.61c0,1.62.143,4.282,1.137,5.974a3.195,3.195,0,0,0,5.557,0Z" transform="translate(0 0)" fill="#4b9fa5"/>
      <rect id="Rectangle_2232" data-name="Rectangle 2232" width="12" height="15" transform="translate(59.678 13)" fill="#4b9fa5"/>
      <rect id="Rectangle_2233" data-name="Rectangle 2233" width="12" height="15" transform="translate(41.678 13)" fill="#4b9fa5"/>
      <g id="Group_4416" data-name="Group 4416" transform="translate(24.83 38.659)">
        <path id="Path_3766" data-name="Path 3766" d="M88.263,48.956H83.7c-.887,0-1.344.6-1.344,1.711,0,.329,0,1.71,1.344,1.71h4.562c.889,0,1.345-.6,1.345-1.74C89.608,50.1,89.512,48.956,88.263,48.956Z" transform="translate(-24.83 -38.659)" fill="#4b9fa5"/>
        <rect id="Rectangle_2234" data-name="Rectangle 2234" width="12" height="16.5" transform="translate(0 4.341)" fill="#4b9fa5"/>
        <g id="Group_4415" data-name="Group 4415" transform="translate(21.965)">
          <path id="Path_3767" data-name="Path 3767" d="M57.37,60.117c1.636-2.7,1.8-7.305,1.8-9.437-.024-4.348-.591-12.021-6.186-12.021S46.8,46.3,46.8,50.68c0,2.56.226,6.764,1.8,9.437a5.047,5.047,0,0,0,8.78,0Z" transform="translate(-46.795 -38.659)" fill="#4b9fa5"/>
          <path id="Path_3768" data-name="Path 3768" d="M75.374,60.117c1.636-2.7,1.8-7.305,1.8-9.437-.023-4.348-.59-12.021-6.186-12.021S64.8,46.3,64.8,50.68c0,2.56.226,6.764,1.8,9.437a5.047,5.047,0,0,0,8.78,0Z" transform="translate(-46.795 -38.659)" fill="#4b9fa5"/>
          <path id="Path_3769" data-name="Path 3769" d="M105.37,60.117c1.636-2.7,1.8-7.305,1.8-9.437-.024-4.348-.591-12.021-6.186-12.021S94.8,46.3,94.8,50.68c0,2.56.226,6.764,1.8,9.437a5.047,5.047,0,0,0,8.78,0Z" transform="translate(-46.795 -38.659)" fill="#4b9fa5"/>
          <path id="Path_3770" data-name="Path 3770" d="M123.374,60.117c1.636-2.7,1.8-7.305,1.8-9.437-.023-4.348-.59-12.021-6.186-12.021S112.8,46.3,112.8,50.68c0,2.56.226,6.764,1.795,9.437a5.047,5.047,0,0,0,8.78,0Z" transform="translate(-46.795 -38.659)" fill="#4b9fa5"/>
        </g>
      </g>
    </g>
  </g>
</svg>
