<svg xmlns="http://www.w3.org/2000/svg" width="240.8" height="45.5" viewBox="0 0 240.8 45.5">
  <g id="Group_2685" data-name="Group 2685" transform="translate(-65 -181)">
    <g id="Group_2647" data-name="Group 2647" transform="translate(64.5 181)">
      <circle id="Ellipse_334" data-name="Ellipse 334" cx="22.5" cy="22.5" r="22.5" transform="translate(0.5 0)" fill="#eda070"/>
      <path id="Path_1972" data-name="Path 1972" d="M23,0A22.49,22.49,0,0,0,.5,22.5a23.59,23.59,0,0,0,1.507,8.289L31.182,1.507A22.562,22.562,0,0,0,23,0Z" fill="#fff" opacity="0.1"/>
      <path id="Path_1973" data-name="Path 1973" d="M22.824,2.2A20.024,20.024,0,1,0,42.848,22.332,20.055,20.055,0,0,0,22.824,2.2Zm0,38.648A18.517,18.517,0,1,1,41.341,22.332,18.516,18.516,0,0,1,22.824,40.848Z" transform="translate(0.176 0.168)" fill="#c1754c"/>
      <path id="Path_1974" data-name="Path 1974" d="M22.724,40.849A18.624,18.624,0,1,1,41.349,22.224,18.631,18.631,0,0,1,22.724,40.849Zm0-36.818A18.194,18.194,0,1,0,40.918,22.224,18.24,18.24,0,0,0,22.724,4.031Z" transform="translate(0.276 0.276)" fill="#f3bd9a"/>
      <g id="Group_2643" data-name="Group 2643" transform="translate(13.419 11.089)">
        <path id="Path_1975" data-name="Path 1975" d="M31.156,17.436c0-3.23-1.938-6.136-6.567-6.136H13.5v3.122H24.7a3.4,3.4,0,0,1,3.337,3.122,3.072,3.072,0,0,1-3.337,2.8H16.73c-2.261,0-3.23.754-3.23,3.122v8.182h3.23V23.9a.509.509,0,0,1,.538-.538h5.813l4.844,8.182h3.553l-4.844-8.182C29.864,22.819,31.156,20.02,31.156,17.436Z" transform="translate(-12.423 -10.223)" fill="#c1754c"/>
        <path id="Path_1976" data-name="Path 1976" d="M30.156,16.436c0-3.23-1.938-6.136-6.567-6.136H12.5v3.122H23.7a3.4,3.4,0,0,1,3.337,3.122,3.072,3.072,0,0,1-3.337,2.8H15.73c-2.261,0-3.23.754-3.23,3.122v8.182h3.23V22.9a.509.509,0,0,1,.538-.538h5.813l4.844,8.182h3.553l-4.844-8.182C28.864,21.819,30.156,19.02,30.156,16.436Z" transform="translate(-12.5 -10.3)" fill="#f3bd9a"/>
      </g>
    </g>
    <path id="Path_2321" data-name="Path 2321" d="M26.8,13.1c0-5-3-9.3-10-9.3H0V8.5H17a5.042,5.042,0,0,1,5,4.8c0,2.2-1.9,4.3-5,4.3H4.9C1.5,17.6,0,18.8,0,22.3V34.8H4.9V23.1c0-.6.3-.8.8-.8h8.9L22,34.8h5.4L20,22.3C24.8,21.2,26.8,16.9,26.8,13.1ZM48.4,25c6,0,8.2-2.5,8.2-7,0-4.7-2.4-7.4-8.2-7.4H40.5c-6.1,0-8.5,3.4-8.5,8v8.3c0,4.6,2.4,8,8.5,8H55.3V30.2H40.6c-2.7,0-3.7-1.4-3.7-3.4V25ZM36.9,18.6c0-1.9,1.1-3.4,3.7-3.4h7.8c2.4,0,3.4,1.2,3.4,3s-1,2.9-3.6,2.9H36.9Zm41.8-8.1H72c-6.5,0-10.5,3.8-10.5,11.6,0,7.9,4,11.7,10.5,11.7H82.7v1.1c0,3.5-1.2,4.9-4.8,4.9H64v4.7H78.4c6.8,0,9.2-2.7,9.2-9.6v-14C87.6,13.9,84.5,10.5,78.7,10.5Zm4,18.9H72.4c-4.2,0-6.1-2.1-6.1-7.1s1.9-7.1,6.1-7.1h4.8c3.9,0,5.4,1.7,5.4,5.7v8.5ZM115,25c0,2.8-2.1,5-5.9,5h-4c-3.9,0-6-2.2-6-5V10.5H94.2V25.2c0,5.6,3.6,9.6,10.5,9.6h4.5c6.9,0,10.5-4,10.5-9.6V10.5H115Zm11.6,9.8h4.9V0h-4.9ZM154,10.5H139.4v4.7H154c2.7,0,3.7,1.5,3.7,3.4v1.8H146.2c-6,0-8.2,2.6-8.2,7,0,4.6,2.4,7.4,8.1,7.4h11.4c4.1,0,5-1.4,5-4.9V18.5C162.5,13.9,160.1,10.5,154,10.5Zm3.7,18.3c0,.9-.4,1.2-1.3,1.2H146.2c-2.4,0-3.4-1.1-3.4-2.9s.9-2.8,3.5-2.8h11.4Zm18.2-18.3c-4.8,0-6.6,2.2-6.6,7.1V34.8h4.9V18.3c0-2.1,1-3.1,3.1-3.1h8.5V10.5h-9.9Z" transform="translate(120 182)"/>
  </g>
</svg>
