<svg xmlns="http://www.w3.org/2000/svg" width="103.971" height="106.769" viewBox="0 0 103.971 106.769">
  <g id="Group_5506" data-name="Group 5506" transform="translate(-547.111 -406.899)">
    <g id="Group_5482" data-name="Group 5482">
      <g id="Group_5480" data-name="Group 5480">
        <path id="Path_4493" data-name="Path 4493" d="M589.167,445.278l-2.568-2.52c-5.135-5.04,1.165-11.46,6.3-6.42l2.568,2.52c-5.135-5.04,1.165-11.459,6.3-6.419l16.4,16.1c-5.706-5.6,1.294-12.732,7-7.132l15.692,15.4c7.133,7,5.865,22.559,5.865,22.559l2.853,2.8-16.8,17.119-2.853-2.8a144.567,144.567,0,0,1-15.586-4.094c-4.253-1.374-7.106-4.174-11.386-8.374l-18.687-18.34c-5.136-5.04,1.165-11.46,6.3-6.42l-7.7-7.56C577.731,446.657,584.031,440.238,589.167,445.278Z" fill="#fff"/>
      </g>
      <g id="Group_5481" data-name="Group 5481">
        <path id="Path_4494" data-name="Path 4494" d="M595.467,438.859c-5.135-5.041,1.165-11.46,6.3-6.42l21.826,21.421" fill="none" stroke="#666" stroke-linecap="round" stroke-linejoin="round" stroke-width="3"/>
        <path id="Path_4495" data-name="Path 4495" d="M612.157,455.239l-19.258-18.9c-5.135-5.04-11.435,1.38-6.3,6.42l19.258,18.9" fill="none" stroke="#666" stroke-linecap="round" stroke-linejoin="round" stroke-width="3"/>
        <path id="Path_4496" data-name="Path 4496" d="M590.713,459.4l-7.846-7.7c-5.136-5.04,1.164-11.459,6.3-6.419" fill="none" stroke="#666" stroke-linecap="round" stroke-linejoin="round" stroke-width="3"/>
        <path id="Path_4497" data-name="Path 4497" d="M632.3,448.407l8.559,8.4c7.133,7,5.865,22.559,5.865,22.559l2.853,2.8-16.8,17.119-2.853-2.8a144.567,144.567,0,0,1-15.586-4.094c-4.253-1.374-7.106-4.174-11.386-8.374l-18.687-18.34c-5.136-5.04,1.165-11.46,6.3-6.42L602.125,470.6" fill="none" stroke="#666" stroke-linecap="round" stroke-linejoin="round" stroke-width="3"/>
        <path id="Path_4498" data-name="Path 4498" d="M632.3,448.407l-7.133-7c-5.706-5.6-12.706,1.532-7,7.132l9.986,9.8s-7,7.132.132,14.132" fill="none" stroke="#666" stroke-linecap="round" stroke-linejoin="round" stroke-width="3"/>
      </g>
    </g>
    <g id="Group_5485" data-name="Group 5485">
      <g id="Group_5483" data-name="Group 5483">
        <path id="Path_4499" data-name="Path 4499" d="M569.735,470.814l-3.117-1.8c-6.235-3.592-1.744-11.386,4.49-7.793l3.118,1.8c-6.235-3.593-1.745-11.386,4.49-7.794L598.632,466.7c-6.927-3.992-1.938-12.651,4.99-8.659l19.05,10.976C631.331,474.01,634,489.39,634,489.39l3.464,2-11.975,20.782-3.463-2a144.584,144.584,0,0,1-16.115-.058c-4.461-.263-7.925-2.259-13.12-5.253l-22.688-13.072C563.872,488.2,568.362,480.4,574.6,484l-9.352-5.389C559.01,475.015,563.5,467.222,569.735,470.814Z" fill="#fff"/>
      </g>
      <g id="Group_5484" data-name="Group 5484">
        <path id="Path_4500" data-name="Path 4500" d="M574.226,463.021c-6.235-3.593-1.745-11.386,4.49-7.794l26.5,15.268" fill="none" stroke="#666" stroke-linecap="round" stroke-linejoin="round" stroke-width="3"/>
        <path id="Path_4501" data-name="Path 4501" d="M594.488,474.7l-23.38-13.471c-6.234-3.593-10.725,4.2-4.49,7.793L590,482.489" fill="none" stroke="#666" stroke-linecap="round" stroke-linejoin="round" stroke-width="3"/>
        <path id="Path_4502" data-name="Path 4502" d="M574.77,484.1l-9.525-5.489c-6.235-3.592-1.744-11.385,4.49-7.793" fill="none" stroke="#666" stroke-linecap="round" stroke-linejoin="round" stroke-width="3"/>
        <path id="Path_4503" data-name="Path 4503" d="M612.281,463.033l10.391,5.987C631.331,474.01,634,489.39,634,489.39l3.464,2-11.975,20.782-3.463-2a144.579,144.579,0,0,1-16.115-.058c-4.461-.263-7.925-2.259-13.12-5.253l-22.688-13.072C563.872,488.2,568.362,480.4,574.6,484l14.028,8.083" fill="none" stroke="#666" stroke-linecap="round" stroke-linejoin="round" stroke-width="3"/>
        <path id="Path_4504" data-name="Path 4504" d="M612.281,463.033l-8.659-4.989c-6.928-3.992-11.917,4.667-4.99,8.659l12.123,6.985" fill="none" stroke="#666" stroke-linecap="round" stroke-linejoin="round" stroke-width="3"/>
      </g>
    </g>
    <g id="Group_5487" data-name="Group 5487">
      <line id="Line_169" data-name="Line 169" x2="12.318" y2="11.716" transform="translate(560.209 420.953)" fill="none" stroke="#666" stroke-linecap="round" stroke-linejoin="round" stroke-width="2"/>
      <g id="Group_5486" data-name="Group 5486">
        <line id="Line_170" data-name="Line 170" x2="4.81" y2="16.305" transform="translate(578.298 408.141)" fill="none" stroke="#666" stroke-linecap="round" stroke-linejoin="round" stroke-width="2"/>
        <line id="Line_171" data-name="Line 171" x1="16.526" y1="3.987" transform="translate(548.319 439.661)" fill="none" stroke="#666" stroke-linecap="round" stroke-linejoin="round" stroke-width="2"/>
      </g>
    </g>
  </g>
</svg>
