<svg id="Group_359" data-name="Group 359" xmlns="http://www.w3.org/2000/svg" width="162" height="120" viewBox="0 0 162 120">
  <path id="Path_811" data-name="Path 811" d="M156,120H98a6.018,6.018,0,0,1-6-6V6a6.018,6.018,0,0,1,6-6h58a6.018,6.018,0,0,1,6,6V114A6.018,6.018,0,0,1,156,120Z" fill="#fff"/>
  <g id="Group_355" data-name="Group 355">
    <rect id="Rectangle_1648" data-name="Rectangle 1648" width="64" height="80" transform="translate(95 19)" fill="#b1dbde"/>
  </g>
  <path id="Path_812" data-name="Path 812" d="M156,0H98a6.018,6.018,0,0,0-6,6V114a6.018,6.018,0,0,0,6,6h58a6.018,6.018,0,0,0,6-6V6A6.018,6.018,0,0,0,156,0Zm3,114a2.946,2.946,0,0,1-3,3H98a2.946,2.946,0,0,1-3-3V102h64Zm0-15H95V19h64Zm0-83H95V6a2.946,2.946,0,0,1,3-3h58a2.946,2.946,0,0,1,3,3ZM133,8H121a.945.945,0,0,0-1,1,.945.945,0,0,0,1,1h12a.945.945,0,0,0,1-1A.945.945,0,0,0,133,8Zm-6,106a4.5,4.5,0,1,0-4.5-4.5A4.481,4.481,0,0,0,127,114Zm0-7a2.5,2.5,0,1,1-2.5,2.5A2.476,2.476,0,0,1,127,107Z" fill="gray"/>
  <path id="Path_813" data-name="Path 813" d="M39,78V42a4.012,4.012,0,0,1,4-4h62a4.012,4.012,0,0,1,4,4V78a4.012,4.012,0,0,1-4,4H43A4.012,4.012,0,0,1,39,78Z" fill="#efefef"/>
  <g id="Group_360" data-name="Group 360">
    <path id="Path_814" data-name="Path 814" d="M105,41a.945.945,0,0,1,1,1V78a.945.945,0,0,1-1,1H43a.945.945,0,0,1-1-1V42a.945.945,0,0,1,1-1h62m0-3H43a4.012,4.012,0,0,0-4,4V78a4.012,4.012,0,0,0,4,4h62a4.012,4.012,0,0,0,4-4V42a4.012,4.012,0,0,0-4-4Z" fill="gray"/>
    <path id="Path_815" data-name="Path 815" d="M73.7,68.2a1.421,1.421,0,0,1-.6-.2L45.8,49.8a1.012,1.012,0,1,1,1.1-1.7L73.7,66l28.1-17.9a1.012,1.012,0,1,1,1.1,1.7L74.2,68.1A.749.749,0,0,1,73.7,68.2Z" fill="gray"/>
    <g id="Group_357" data-name="Group 357">
      <path id="Path_816" data-name="Path 816" d="M46,72.3a.908.908,0,0,1-.7-.3.972.972,0,0,1,.1-1.4L59.4,58a.992.992,0,1,1,1.3,1.5l-14,12.6A1.854,1.854,0,0,1,46,72.3Z" fill="gray"/>
      <path id="Path_817" data-name="Path 817" d="M102,72.3a1.08,1.08,0,0,1-.7-.3l-14-12.6a.992.992,0,0,1,1.3-1.5l14,12.6a1.071,1.071,0,0,1,.1,1.4A.755.755,0,0,1,102,72.3Z" fill="gray"/>
    </g>
    <path id="Path_818" data-name="Path 818" d="M30,64H10a1.5,1.5,0,0,1,0-3H30a1.5,1.5,0,0,1,0,3Z" fill="gray"/>
    <path id="Path_819" data-name="Path 819" d="M25.5,72H5.5a1.5,1.5,0,0,1,0-3h20a1.5,1.5,0,0,1,0,3Z" fill="gray"/>
    <path id="Path_820" data-name="Path 820" d="M21.5,80H1.5a1.5,1.5,0,0,1,0-3h20a1.5,1.5,0,0,1,0,3Z" fill="gray"/>
  </g>
</svg>
