<svg xmlns="http://www.w3.org/2000/svg" width="18" height="14.539" viewBox="0 0 18 14.539">
  <g id="Group_2632" data-name="Group 2632" transform="translate(0.003 0.01)" opacity="0.3">
    <path id="Path_1419" data-name="Path 1419" d="M25.69,5.76c-.03-.079-.061-.156-.093-.232a14.614,14.614,0,0,0-1.3-2.145c-.26-.525-1.218-2.222-1.433-2.517a1.971,1.971,0,0,0-.641-.6A19.039,19.039,0,0,0,18.087-.01h-.262a19.039,19.039,0,0,0-4.138.278,1.971,1.971,0,0,0-.641.6c-.215.3-1.173,1.992-1.433,2.517a14.614,14.614,0,0,0-1.3,2.145c-.033.075-.064.153-.093.232A12.674,12.674,0,0,0,9.79,7.445a14.2,14.2,0,0,0-.163,2.5,8.734,8.734,0,0,0,.27,2.521c.213.082.506.183.82.281v1.087a.707.707,0,0,0,.715.694h1.394a.707.707,0,0,0,.715-.694v-.7h8.831v.7a.707.707,0,0,0,.715.694h1.394a.707.707,0,0,0,.715-.694V12.748c.314-.1.606-.2.818-.28a8.76,8.76,0,0,0,.27-2.521,14.2,14.2,0,0,0-.163-2.5A12.909,12.909,0,0,0,25.69,5.76ZM13.563,2.419C14.127,1.2,14.491,1,14.814.952c.176-.028.892-.044,1.612-.052V.892H19.49V.9c.721.008,1.436.024,1.612.052.323.052.685.252,1.25,1.466s.516,1.345.516,1.432c0,0-.576.575-4.91.575s-4.91-.575-4.91-.575C13.048,3.764,13,3.633,13.563,2.419Zm-.4,6.251a1.353,1.353,0,0,1-1.373-1.333C11.786,6.6,12.038,6,12.8,6s1.736.6,1.736,1.333A1.355,1.355,0,0,1,13.159,8.67Zm7.553,1.645c-.059.007-1.452.163-2.66.163s-2.777-.156-2.844-.163a.35.35,0,0,1-.319-.381.355.355,0,0,1,.393-.309c.016,0,1.6.159,2.77.159s2.563-.157,2.577-.159a.355.355,0,0,1,.4.3A.349.349,0,0,1,20.712,10.315ZM22.757,8.67a1.353,1.353,0,0,1-1.373-1.333C21.383,6.6,22.361,6,23.119,6s1.011.6,1.011,1.333A1.355,1.355,0,0,1,22.757,8.67Z" transform="translate(-8.961 0)" fill="#ccc"/>
    <path id="Path_1420" data-name="Path 1420" d="M.853,43.1c.425-.735.8-1.088,1.02-1.53.055-.112.139-.271.24-.458a4.521,4.521,0,0,0-1.21,0c-.48.1-.759.2-.827.423a1.171,1.171,0,0,0,.74,1.547A.277.277,0,0,0,.853,43.1Z" transform="translate(0 -38.234)" fill="#ccc"/>
    <path id="Path_1421" data-name="Path 1421" d="M231.44,41.523c-.066-.219-.347-.323-.827-.424a4.5,4.5,0,0,0-1.214,0c.1.186.184.345.24.458.219.443.595.8,1.02,1.531a.238.238,0,0,0,.04-.015A1.172,1.172,0,0,0,231.44,41.523Z" transform="translate(-213.522 -38.222)" fill="#ccc"/>
  </g>
</svg>
