<svg xmlns="http://www.w3.org/2000/svg" viewBox="0 0 180 13.377">
  <defs>
    <style>
      .cls-1 {
        fill: #fff;
      }
    </style>
  </defs>
  <g id="Group_338" data-name="Group 338" transform="translate(0 -0.023)">
    <g id="Group_337" data-name="Group 337">
      <path id="Path_776" data-name="Path 776" class="cls-1" d="M76.9,9.2a.353.353,0,0,1-.4-.4.353.353,0,0,1,.4-.4h1.8V7.6c0-.2,0-.5.4-.5s.4.2.4.5v.8h1.8c.8,0,.8.5.8,1.2a19.993,19.993,0,0,1-.3,3c-.3.7-.9.7-1.4.7-.8,0-1.1-.1-1.1-.4s.1-.4.4-.4c.1,0,.7.1.8.1.4,0,.6-.1.7-.6a12.744,12.744,0,0,0,.2-2.3c0-.3,0-.5-.3-.5H79.5a5.585,5.585,0,0,1-1.3,3.2c-.2.2-.9.9-1.2.9a.43.43,0,0,1-.4-.4c0-.2.1-.3.3-.4a4.043,4.043,0,0,0,1.9-3.3H76.9Z"/>
      <path id="Path_777" data-name="Path 777" class="cls-1" d="M83.8,10.7a.4.4,0,1,1,0-.8h5.4a.4.4,0,1,1,0,.8Z"/>
      <path id="Path_778" data-name="Path 778" class="cls-1" d="M92.4,10.2a7.355,7.355,0,0,1-.6,1.8c-.1.1-.5.9-.8.9-.2,0-.5-.1-.5-.4,0-.1,0-.2.3-.5a4.352,4.352,0,0,0,.8-1.5c.1-.3.1-.4.2-.5a.367.367,0,0,1,.3-.1A.319.319,0,0,1,92.4,10.2ZM93,7.6a.353.353,0,0,1,.4-.4.366.366,0,0,1,.4.4v.9H96a.353.353,0,0,1,.4.4.353.353,0,0,1-.4.4H93.9V13a.353.353,0,0,1-.4.4c-.3,0-.4-.1-.4-.4V9.2H91a.353.353,0,0,1-.4-.4.353.353,0,0,1,.4-.4h2Zm2.3,2.6a5.306,5.306,0,0,0,.8,1.7c.3.4.3.4.3.5,0,.3-.3.4-.5.4-.3,0-.7-.6-.9-.9a5.8,5.8,0,0,1-.6-1.7.319.319,0,0,1,.3-.3C95.2,9.8,95.3,10,95.3,10.2ZM96,8.4a.8.8,0,1,1,.8-.8C96.7,8.1,96.4,8.4,96,8.4Zm0-1.1a.43.43,0,0,0-.4.4c0,.2.2.3.4.3a.43.43,0,0,0,.4-.4A.446.446,0,0,0,96,7.3Z"/>
      <path id="Path_779" data-name="Path 779" class="cls-1" d="M99,8.1a8.509,8.509,0,0,1,1.4.9.367.367,0,0,1,.1.3.43.43,0,0,1-.4.4c-.2,0-.2,0-.9-.5A12.751,12.751,0,0,0,98,8.5c-.1-.1-.3-.2-.3-.4a.446.446,0,0,1,.3-.4C98.1,7.6,98.3,7.7,99,8.1Zm4.5.5a7.8,7.8,0,0,1-1.3,2.7A4.681,4.681,0,0,1,99.3,13a6.529,6.529,0,0,1-1.1.2.353.353,0,0,1-.4-.4c0-.3.2-.4.5-.4a4.641,4.641,0,0,0,4.4-3.6c.1-.3.1-.4.4-.4h.2C103.3,8.3,103.5,8.4,103.5,8.6Z"/>
    </g>
    <path id="Path_780" data-name="Path 780" class="cls-1" d="M180,10.7H109.7v-.3c.2-2.2,0-4.7-.9-4.9a5.019,5.019,0,0,0-1.2-.2,6.365,6.365,0,0,1-2.9-.8,8.277,8.277,0,0,1-1.5-1.1A10.211,10.211,0,0,0,97.1.8c-5-.7-10.4-.4-13.3.7a43.252,43.252,0,0,0-4.2,2.2c-1.7,1-3,1.8-3.8,1.8a21.864,21.864,0,0,0-5.9,1.3,7.236,7.236,0,0,0-3.8,3.7l-.1.2H0v-.5H65.8a7.288,7.288,0,0,1,4-3.9,21.7,21.7,0,0,1,6-1.3,11.557,11.557,0,0,0,3.5-1.7,35.1,35.1,0,0,1,4.3-2.2C86.6,0,92-.3,97.1.4a10.622,10.622,0,0,1,6.4,2.7,6.078,6.078,0,0,0,1.4,1,6.344,6.344,0,0,0,2.7.7,5.853,5.853,0,0,1,1.3.2c1.3.4,1.3,3.6,1.2,5.2H180Z"/>
  </g>
</svg>
