<svg id="Component_4" data-name="Component 4" xmlns="http://www.w3.org/2000/svg" width="50" height="49.999" viewBox="0 0 50 49.999">
  <path id="Path_4591" data-name="Path 4591" d="M0,0H50V50H0Z" fill="none"/>
  <g id="Group_237" data-name="Group 237" transform="translate(0 4.999)">
    <g id="Group_236" data-name="Group 236">
      <path id="Path_366" data-name="Path 366" d="M-1669.37,1921.63a1.052,1.052,0,0,0,.321-.051l3.412-1.1a1.031,1.031,0,0,0,.666-1.3,1.04,1.04,0,0,0-1.307-.662l-3.412,1.1a1.031,1.031,0,0,0-.666,1.3A1.038,1.038,0,0,0-1669.37,1921.63Z" transform="translate(1705.12 -1905.222)" fill="#ff9e68"/>
      <path id="Path_367" data-name="Path 367" d="M-1673.983,1915.281a1.036,1.036,0,0,0,.84-.425l2.109-2.886a1.028,1.028,0,0,0-.229-1.441,1.042,1.042,0,0,0-1.448.228l-2.11,2.887a1.028,1.028,0,0,0,.23,1.44A1.035,1.035,0,0,0-1673.983,1915.281Z" transform="translate(1703.657 -1907.226)" fill="#ff9e68"/>
      <path id="Path_368" data-name="Path 368" d="M-1681.445,1912.856a1.034,1.034,0,0,0,1.037-1.031v-3.568a1.034,1.034,0,0,0-1.037-1.031,1.035,1.035,0,0,0-1.038,1.031v3.568A1.035,1.035,0,0,0-1681.445,1912.856Z" transform="translate(1701.545 -1907.226)" fill="#ff9e68"/>
      <path id="Path_369" data-name="Path 369" d="M-1677.888,1914.415c-7.538,0-13.67,5.791-13.67,12.91s6.132,12.91,13.67,12.91a14.293,14.293,0,0,0,5.3-1.012,8.579,8.579,0,0,1,6.145-4.861,12.325,12.325,0,0,0,2.225-7.036C-1664.217,1920.206-1670.35,1914.415-1677.888,1914.415Z" transform="translate(1697.988 -1907.226)" fill="#ff9e68"/>
      <path id="Path_370" data-name="Path 370" d="M-1689.735,1934.187l-2.109,2.887a1.026,1.026,0,0,0,.229,1.44,1.036,1.036,0,0,0,.608.2,1.037,1.037,0,0,0,.84-.425l2.109-2.886a1.028,1.028,0,0,0-.229-1.441A1.043,1.043,0,0,0-1689.735,1934.187Z" transform="translate(1699.422 -1901.621)" fill="#ff9e68"/>
      <path id="Path_371" data-name="Path 371" d="M-1681.445,1936.187a1.035,1.035,0,0,0-1.038,1.031v3.568a1.034,1.034,0,0,0,1.038,1.031,1.034,1.034,0,0,0,1.037-1.031v-3.568A1.034,1.034,0,0,0-1681.445,1936.187Z" transform="translate(1701.545 -1901.621)" fill="#ff9e68"/>
      <path id="Path_372" data-name="Path 372" d="M-1693.822,1927.464l-3.412,1.1a1.03,1.03,0,0,0-.667,1.3,1.037,1.037,0,0,0,.986.713,1.055,1.055,0,0,0,.321-.05l3.412-1.1a1.03,1.03,0,0,0,.666-1.3A1.04,1.04,0,0,0-1693.822,1927.464Z" transform="translate(1697.952 -1903.625)" fill="#ff9e68"/>
      <path id="Path_373" data-name="Path 373" d="M-1693.181,1919.617l-3.412-1.1a1.04,1.04,0,0,0-1.307.662,1.031,1.031,0,0,0,.667,1.3l3.412,1.1a1.052,1.052,0,0,0,.321.051,1.037,1.037,0,0,0,.985-.713A1.03,1.03,0,0,0-1693.181,1919.617Z" transform="translate(1697.952 -1905.222)" fill="#ff9e68"/>
      <path id="Path_374" data-name="Path 374" d="M-1689.735,1914.856a1.036,1.036,0,0,0,.84.425,1.036,1.036,0,0,0,.608-.2,1.027,1.027,0,0,0,.229-1.44l-2.109-2.887a1.04,1.04,0,0,0-1.448-.228,1.027,1.027,0,0,0-.229,1.441Z" transform="translate(1699.422 -1907.226)" fill="#ff9e68"/>
    </g>
    <path id="Path_375" data-name="Path 375" d="M-1659.383,1932.673h0a6.462,6.462,0,0,0-6.015-4.108,6.459,6.459,0,0,0-5.647,3.322c-.025,0-.049,0-.073,0a4.9,4.9,0,0,0-4.9,4.9,4.9,4.9,0,0,0,4.9,4.9c.751,0,4.491-.052,7.743-.082.4,0,.911-.007,1.432-.01a4.846,4.846,0,0,1-1.622-1.746.406.406,0,0,1,.163-.55.406.406,0,0,1,.55.163,4.052,4.052,0,0,0,3.549,2.119,4.457,4.457,0,0,0,4.381-4.454A4.458,4.458,0,0,0-1659.383,1932.673Z" transform="translate(1704.924 -1901.621)" fill="#ccc"/>
  </g>
</svg>
