<svg xmlns="http://www.w3.org/2000/svg" viewBox="0 0 32.512 13.041">
  <defs>
    <style>
      .cls-1 {
        fill: #fff;
        stroke: #fff;
        stroke-width: 0.5px;
      }
    </style>
  </defs>
  <path id="Path_1119" data-name="Path 1119" class="cls-1" d="M24.487,2.9c-.316.442-.474.643-1.381.643H18.173l.71-2.048-.671-.241-.829,2.289H10.636v.723h12.51a1.963,1.963,0,0,0,1.934-.924,1.1,1.1,0,0,1,.158-.2l-.552-.442C24.645,2.695,24.566,2.815,24.487,2.9Zm7.34,3.052c-.118-1.526-.434-2.249-.947-2.41a7.776,7.776,0,0,0-.947-.161A4.335,4.335,0,0,1,28.079,2.9a3.782,3.782,0,0,1-.947-.683A7.244,7.244,0,0,0,22.554.285C18.884-.237,15.016,0,12.925.767A24.3,24.3,0,0,0,9.886,2.333a9.788,9.788,0,0,1-2.447,1.2A15.574,15.574,0,0,0,3.1,4.462,6.473,6.473,0,0,0,.1,8,1.793,1.793,0,0,0,.138,9.723a1.876,1.876,0,0,0,1.657.723h.276a20.8,20.8,0,0,0,2.21.08,2.868,2.868,0,0,0,5.446,0H21.8a2.916,2.916,0,0,0,2.723,1.968,2.863,2.863,0,0,0,2.723-1.968H29.42c1.421,0,2.328-.643,2.407-1.727A13.676,13.676,0,0,0,31.828,5.948ZM7.084,11.731a2.129,2.129,0,1,1,0-4.257,2.129,2.129,0,1,1,0,4.257Zm17.483,0a2.129,2.129,0,1,1,0-4.257A2.167,2.167,0,0,1,26.737,9.6,2.14,2.14,0,0,1,24.566,11.731Zm6.59-3.012c-.079.924-1.1,1.044-1.7,1.044H27.408V9.6a2.841,2.841,0,1,0-5.683,0v.161H9.925V9.6a2.841,2.841,0,1,0-5.683,0v.161a17.63,17.63,0,0,1-2.052-.08H1.875a1.269,1.269,0,0,1-1.066-.4,1.3,1.3,0,0,1,0-1.084,5.717,5.717,0,0,1,2.6-3.133,14.562,14.562,0,0,1,4.065-.884A7.384,7.384,0,0,0,10.241,2.9,18.868,18.868,0,0,1,13.2,1.37C15.174.647,19,.446,22.475.888a6.745,6.745,0,0,1,4.183,1.767,7.9,7.9,0,0,0,1.1.8,5.962,5.962,0,0,0,2.131.562,5.151,5.151,0,0,1,.829.12C31,4.382,31.315,6.591,31.157,8.719Z" transform="translate(0.351 0.296)"/>
</svg>
