<svg xmlns="http://www.w3.org/2000/svg" width="24.525" height="20" viewBox="0 0 24.525 20">
  <path id="Path_4676" data-name="Path 4676" d="M-139.7-1634.634h-16.667a1.391,1.391,0,0,0-1.389,1.389v10a1.39,1.39,0,0,0,1.389,1.389H-139.7a1.39,1.39,0,0,0,1.388-1.389v-10A1.39,1.39,0,0,0-139.7-1634.634Zm-.278,11.111h-16.111v-9.444h16.111Zm-14.384-1.418a.558.558,0,0,0,.433-.207l3.442-4.263,3.443,4.263a.555.555,0,0,0,.781.083.556.556,0,0,0,.084-.781l-.525-.649,1.244-1.541,2.332,2.888a.558.558,0,0,0,.433.207.555.555,0,0,0,.349-.124.556.556,0,0,0,.083-.781l-2.765-3.423a.574.574,0,0,0-.864,0l-1.526,1.889-2.636-3.264a.574.574,0,0,0-.865,0l-3.875,4.8a.556.556,0,0,0,.083.781A.555.555,0,0,0-154.367-1624.941Zm11.514-4.48a1.111,1.111,0,0,0,1.111-1.111,1.11,1.11,0,0,0-1.111-1.111,1.11,1.11,0,0,0-1.111,1.111A1.111,1.111,0,0,0-142.853-1629.421Zm9.485-5.932a1.378,1.378,0,0,0-.784-.718l-15.661-5.7a1.393,1.393,0,0,0-1.779.831l-1.791,4.918h1.773l1.488-4.088,15.139,5.512-1.943,5.339v4.671a1.407,1.407,0,0,0,.184-.305l3.42-9.4A1.372,1.372,0,0,0-133.368-1635.353Z" transform="translate(157.761 1641.856)" fill="#fff"/>
</svg>
