<svg xmlns="http://www.w3.org/2000/svg" width="52.435" height="33.5" viewBox="0 0 52.435 33.5">
  <g id="Group_3853" data-name="Group 3853" transform="translate(-314 -1118)">
    <path id="ic_mail_outline_24px" d="M24.94,4H4.549A2.546,2.546,0,0,0,2.013,6.549L2,21.842a2.556,2.556,0,0,0,2.549,2.549H24.94a2.556,2.556,0,0,0,2.549-2.549V6.549A2.556,2.556,0,0,0,24.94,4Zm0,17.842H4.549V9.1l10.2,6.372L24.94,9.1Zm-10.2-8.921L4.549,6.549H24.94Z" transform="translate(338.946 1114)" fill="#333"/>
    <path id="ic_phone_24px" d="M8.273,14.346a22.064,22.064,0,0,0,9.6,9.6l3.2-3.2a1.448,1.448,0,0,1,1.486-.35,16.615,16.615,0,0,0,5.2.83,1.461,1.461,0,0,1,1.457,1.457v5.083a1.461,1.461,0,0,1-1.457,1.457A24.759,24.759,0,0,1,3,4.457,1.461,1.461,0,0,1,4.457,3h5.1a1.461,1.461,0,0,1,1.457,1.457,16.547,16.547,0,0,0,.83,5.2,1.462,1.462,0,0,1-.364,1.486Z" transform="translate(311 1122.283)" fill="#333"/>
  </g>
</svg>
