<svg xmlns="http://www.w3.org/2000/svg" width="21.5" height="25.123" viewBox="0 0 21.5 25.123">
  <path id="Path_4649" data-name="Path 4649" d="M342.008-1372.952a.742.742,0,0,0-.8.7l-.664,9.5a.75.75,0,0,0,.7.8l.053,0a.749.749,0,0,0,.747-.7l.664-9.5A.75.75,0,0,0,342.008-1372.952Zm-8.793,0a.75.75,0,0,0-.7.8l.664,9.5a.749.749,0,0,0,.747.7l.053,0a.75.75,0,0,0,.7-.8l-.664-9.5A.742.742,0,0,0,333.215-1372.952Zm4.4-.014a.75.75,0,0,0-.75.75v9.524a.75.75,0,0,0,.75.75.75.75,0,0,0,.75-.75v-9.524A.75.75,0,0,0,337.612-1372.966Zm7.572-3.812H330.041a1.681,1.681,0,0,0-1.235.528,1.679,1.679,0,0,0-.458,1.262l.841,15.146a1.832,1.832,0,0,0,1.8,1.707h13.237a1.832,1.832,0,0,0,1.805-1.707h0l.841-15.146a1.679,1.679,0,0,0-.458-1.262A1.681,1.681,0,0,0,345.184-1376.778Zm-.646,16.853a.324.324,0,0,1-.307.29H330.994a.323.323,0,0,1-.306-.29l-.842-15.147a.19.19,0,0,1,.05-.148.191.191,0,0,1,.145-.058h15.143a.191.191,0,0,1,.145.058.191.191,0,0,1,.05.149Zm3.074-20.344h-6.227l-1.025-2.522a.751.751,0,0,0-.695-.467h-4.107a.751.751,0,0,0-.7.467l-1.025,2.522h-6.226a.75.75,0,0,0-.75.75.75.75,0,0,0,.75.75h20a.75.75,0,0,0,.75-.75A.75.75,0,0,0,347.612-1380.269Zm-12.155,0,.606-1.489h3.1l.606,1.489Z" transform="translate(-326.862 1383.258)" fill="#fff"/>
</svg>
