<svg xmlns="http://www.w3.org/2000/svg" viewBox="0 0 72.492 80.771">
  <defs>
    <style>
      .cls-1 {
        fill: #ccc;
      }
    </style>
  </defs>
  <g id="Group_2085" data-name="Group 2085" transform="translate(-147.834 -288.729)">
    <path id="ic_timeline_24px" class="cls-1" d="M1,12.59a6.61,6.61,0,0,0,6.59,6.59,5.6,5.6,0,0,0,1.68-.231L21,30.647a5.821,5.821,0,0,0-.231,1.713,6.59,6.59,0,0,0,13.18,0,5.821,5.821,0,0,0-.231-1.713l8.4-8.4a6.48,6.48,0,0,0,3.427,0L60.542,37.27a5.6,5.6,0,0,0-.231,1.68,6.59,6.59,0,1,0,6.59-6.59,5.6,5.6,0,0,0-1.68.231L50.2,17.6a5.821,5.821,0,0,0,.231-1.713,6.59,6.59,0,1,0-13.18,0,5.821,5.821,0,0,0,.231,1.713l-8.4,8.4a6.48,6.48,0,0,0-3.427,0L13.95,14.271a5.6,5.6,0,0,0,.231-1.68A6.59,6.59,0,1,0,1,12.59Z" transform="translate(146.833 282.729)"/>
    <path id="ic_touch_app_24px" class="cls-1" d="M14.869,22.619v-8.9a5.952,5.952,0,1,1,11.9,0v8.9a10.714,10.714,0,1,0-11.9,0ZM38.3,33.643l-10.81-5.381A3.353,3.353,0,0,0,26.2,28h-1.81V13.714a3.571,3.571,0,1,0-7.143,0V39.286L9.083,37.571a4.161,4.161,0,0,0-.571-.071,2.664,2.664,0,0,0-1.881.786L4.75,40.19,16.512,51.952A3.584,3.584,0,0,0,19.036,53H35.2a3.468,3.468,0,0,0,3.429-3.048L40.417,37.4A3.422,3.422,0,0,0,38.3,33.643Z" transform="translate(176.893 316.5)"/>
  </g>
</svg>
