<svg id="Group_324" data-name="Group 324" xmlns="http://www.w3.org/2000/svg" width="45" height="44.813" viewBox="0 0 45 44.813">
  <path id="Path_747" data-name="Path 747" d="M42.386,0H2.427A2.472,2.472,0,0,0,0,2.427V42.573a2.445,2.445,0,0,0,2.427,2.241H42.573A2.472,2.472,0,0,0,45,42.386V2.427A2.788,2.788,0,0,0,42.386,0Z" fill="#e51715" fill-rule="evenodd"/>
  <g id="Group_323" data-name="Group 323" transform="translate(6.162 14.004)">
    <path id="Path_748" data-name="Path 748" d="M3.3,8.62A2.368,2.368,0,0,1,3.487,7.5H16a1.411,1.411,0,0,1-.187.747v.187c-.187,0-.187,0-.373.187H13.2a4.64,4.64,0,0,0-1.494.187c1.68,2.427,3.548,4.855,5.415,7.282,1.494-1.12,2.8-2.427,4.295-3.548l.934-.934c0-.187.187-.187.187-.373-.56,0-.934-.187-1.307-.187-.56,0-1.12-.187-1.867-.187a.183.183,0,0,1-.187-.187c0-.373-.187-.747-.187-1.12H29.628v.187c-.187.373-.373.56-.56.934l-.187.187-2.8.56c-.187,0-.373.187-.56.373a24.841,24.841,0,0,0-3.548,2.614,33.382,33.382,0,0,0-2.614,2.427,2.578,2.578,0,0,0-.56.747c-.187.187-.187.373-.187.747v4.295c1.307,0,2.427.187,3.734.187a2.368,2.368,0,0,1-.187,1.12c0,.187,0,0-.187,0H10.582c0-.373.187-.747.187-1.12h1.12a5.452,5.452,0,0,0,1.68-.373c.187-.187.373-.373.373-1.12V17.4c-.373-.56-.934-1.307-1.307-1.867-1.307-1.681-2.8-3.361-4.295-5.041a4.951,4.951,0,0,1-.934-1.12c-.187-.187-.56-.187-.747-.373A9.46,9.46,0,0,1,4.234,8.62Z" transform="translate(-3.3 -7.5)" fill="#fff" fill-rule="evenodd"/>
    <path id="Path_749" data-name="Path 749" d="M16.5,18.943c1.12-3.548,2.241-7.1,3.174-10.643,1.494.373,3.174.934,4.668,1.307,0,.187-.187.187-.187.373-1.307,2.054-2.614,4.295-3.734,6.349-.56.934-1.12,2.054-1.68,2.988a.183.183,0,0,1-.187.187c-.747-.187-1.307-.373-2.054-.56Z" transform="translate(8.147 -6.806)" fill="#fff" fill-rule="evenodd"/>
    <path id="Path_750" data-name="Path 750" d="M19.034,15.747h0a11.422,11.422,0,0,0-.934,2.241c-.934-.187-1.867-.56-2.8-.747,0-.187.187-.187.187-.373.187-.56.56-1.12.747-1.68A.183.183,0,0,1,16.42,15a19.159,19.159,0,0,1,2.614.747Z" transform="translate(7.107 -0.996)" fill="#fff" fill-rule="evenodd"/>
  </g>
</svg>
